{"glyphs":{"0":{"ha":621,"x_min":39,"x_max":582,"o":"m 406 365 l 408 410 q 401 549 414 458 q 390 623 400 597 q 350 696 381 649 q 325 725 325 718 q 289 703 310 740 q 235 583 283 682 q 226 560 239 572 q 224 543 224 556 q 226 519 228 535 q 218 403 222 506 q 228 319 218 344 q 233 244 228 272 q 239 183 232 206 q 281 138 258 138 q 330 174 303 138 q 372 263 357 210 q 376 274 371 274 q 384 306 376 283 q 392 338 392 329 l 406 365 m 82 658 l 86 688 q 100 714 86 697 q 108 743 108 736 q 122 780 107 750 q 149 822 136 810 q 172 850 161 833 q 181 865 172 857 q 200 875 190 874 q 249 881 232 886 q 300 874 292 864 q 328 883 303 878 q 365 887 354 888 q 388 876 375 886 q 484 785 436 853 q 551 642 532 717 q 572 456 582 547 q 528 246 563 351 q 485 125 493 140 q 473 102 478 110 q 467 85 468 94 q 446 54 465 76 q 417 29 426 32 q 347 -3 378 -1 q 324 -3 340 -4 q 296 -3 308 -3 q 276 -6 283 -3 q 237 -3 251 -3 q 196 8 222 -4 q 129 74 154 35 q 114 107 124 97 l 100 138 q 82 197 85 147 q 61 594 39 322 q 71 613 61 613 q 74 629 75 619 q 82 658 74 639 z "},"1":{"ha":483,"x_min":15,"x_max":433,"o":"m 319 -8 l 292 -6 q 257 21 263 0 q 246 32 257 26 q 225 47 238 32 q 212 101 213 61 q 211 182 211 140 q 213 228 211 224 q 213 244 217 228 q 211 319 207 299 q 217 456 215 339 q 207 578 218 572 q 197 578 206 581 q 185 572 189 576 q 171 550 174 550 q 157 539 165 544 q 79 522 132 510 q 31 538 42 528 q 18 566 21 547 q 33 597 15 585 q 85 653 69 622 l 104 675 l 119 686 q 128 696 119 689 q 145 710 136 703 q 154 725 154 718 l 168 747 q 182 772 182 761 q 192 781 183 772 q 207 793 200 789 q 246 844 217 813 q 265 872 264 871 q 270 875 265 872 q 283 881 275 878 q 301 890 292 885 q 316 897 310 896 q 346 894 322 897 q 369 889 369 892 q 374 880 369 886 q 383 874 378 874 q 396 864 389 874 q 421 854 401 864 q 433 833 432 840 q 425 817 425 829 l 413 703 q 386 338 394 625 q 381 272 381 296 q 375 196 381 247 q 369 94 369 144 q 367 28 369 44 q 319 -8 357 -12 z "},"2":{"ha":578,"x_min":28,"x_max":547,"o":"m 168 0 l 151 3 q 132 13 144 3 q 117 19 119 24 q 103 24 115 14 q 49 88 71 47 q 44 156 28 128 q 74 203 51 174 q 103 246 96 233 q 128 280 110 258 q 151 315 146 301 q 189 358 157 338 q 203 384 197 375 q 214 404 208 393 q 235 442 231 436 q 244 456 240 449 q 269 479 251 465 q 283 510 274 493 q 294 533 292 528 q 367 668 344 594 q 360 717 372 699 q 314 721 347 735 q 147 550 218 676 q 119 556 132 543 q 92 576 108 560 q 68 604 74 588 q 63 662 63 621 q 74 724 63 703 q 92 749 85 744 q 100 774 100 757 q 117 793 108 790 q 119 813 122 808 l 128 824 l 144 854 q 186 885 161 879 q 196 894 192 890 q 206 903 200 897 q 222 908 211 903 q 258 913 233 908 q 285 917 264 918 q 319 908 306 917 q 352 904 344 906 q 363 903 360 903 q 378 888 365 903 l 392 876 q 426 844 394 876 q 462 799 457 811 q 473 783 467 788 q 497 754 479 779 q 521 717 515 729 q 533 624 538 685 q 497 507 528 563 q 375 324 467 451 q 235 160 340 275 q 446 157 442 160 q 492 119 450 154 q 515 78 499 111 q 533 32 532 46 q 543 14 540 14 q 546 -5 547 8 q 533 -18 544 -18 q 485 -3 524 -7 q 369 0 447 0 q 258 -3 292 0 q 168 0 168 -3 z "},"3":{"ha":592,"x_min":21,"x_max":540,"o":"m 268 -15 q 226 -21 256 -21 q 158 -14 197 -21 q 57 40 81 3 q 26 147 26 90 q 78 197 21 197 q 108 189 90 197 q 132 174 125 181 q 167 167 140 169 q 321 214 249 156 q 377 272 368 249 q 386 326 386 294 q 358 365 386 358 q 299 362 331 371 q 235 349 268 353 q 178 363 201 336 q 165 460 156 389 q 185 503 171 489 q 264 522 225 517 q 299 546 275 524 q 355 613 324 568 q 376 692 386 658 q 328 717 367 725 q 288 710 300 714 q 233 688 276 707 q 147 669 172 669 q 108 686 121 669 q 69 775 74 747 q 74 826 64 803 q 83 847 75 840 q 113 853 90 854 q 149 853 126 860 q 197 853 185 846 l 222 861 q 260 873 250 863 q 319 881 271 883 l 342 889 q 374 885 361 892 q 444 857 419 868 q 468 846 443 853 q 497 796 493 825 q 530 700 519 740 q 529 633 540 660 q 501 588 518 607 q 471 556 483 569 q 414 503 451 533 q 464 468 451 492 q 479 453 468 467 q 494 428 490 439 q 517 372 514 400 q 528 292 525 344 q 507 185 532 239 l 492 139 q 467 86 482 104 q 408 45 453 68 q 354 21 364 22 q 268 -15 322 -1 z "},"4":{"ha":639,"x_min":-31,"x_max":728,"o":"m 400 744 l 400 754 q 382 731 393 744 q 364 700 379 722 q 282 572 289 592 l 263 538 q 179 411 188 432 q 169 401 175 406 q 161 392 164 396 q 162 388 158 389 q 172 390 165 388 q 193 392 179 392 l 265 406 q 331 421 308 406 q 351 472 340 424 q 357 513 351 501 l 365 583 q 374 597 374 592 l 374 604 q 381 678 379 665 l 400 744 m 313 221 l 315 264 q 315 290 319 290 q 229 263 292 290 q 158 232 167 235 q 146 228 150 229 q 126 221 133 221 q 97 216 115 214 q 73 224 79 218 q 60 234 67 231 q 49 238 54 238 q 43 238 44 239 q 32 244 42 236 q 17 259 22 253 q -1 271 11 265 l -14 285 q -24 299 -14 290 q -30 326 -29 315 q -7 403 -31 336 q 11 435 7 417 q 19 446 17 438 q 39 468 26 446 q 58 504 57 503 l 75 524 q 87 546 75 529 q 104 565 99 563 q 115 590 99 565 q 135 619 131 614 q 147 640 139 624 q 156 655 153 647 q 172 675 160 663 q 199 718 178 681 l 238 768 q 268 811 246 789 q 299 849 271 818 q 343 886 328 879 q 354 899 354 894 q 372 900 356 900 q 395 898 388 900 q 438 865 403 896 q 457 868 442 868 q 526 840 499 868 l 558 818 q 556 788 565 815 q 499 539 524 704 q 490 465 490 469 q 514 464 492 464 l 581 468 q 610 465 601 468 q 633 453 618 463 q 654 432 647 443 q 664 421 654 426 q 669 407 664 413 l 681 401 q 696 376 681 399 q 693 347 728 353 q 628 351 668 358 q 592 343 619 351 q 474 321 486 329 q 467 296 472 321 q 463 264 467 269 q 459 144 460 226 q 460 49 458 61 q 463 21 463 46 q 467 0 467 13 q 463 -18 469 -6 q 449 -24 460 -26 q 413 -21 424 -24 q 368 -11 376 -21 q 340 0 363 -11 q 329 13 340 6 q 315 18 318 21 l 304 21 q 299 63 299 38 q 310 175 306 171 l 310 196 q 313 221 313 203 z "},"5":{"ha":611,"x_min":-6,"x_max":628,"o":"m 76 150 l 128 165 q 147 175 138 165 q 178 183 163 185 l 239 214 l 258 221 q 310 246 304 244 q 335 260 326 258 q 357 272 342 261 q 386 292 371 286 q 411 311 392 297 q 438 383 456 356 q 414 399 431 393 q 342 401 372 401 q 249 388 311 401 l 163 376 q 124 396 150 367 q 82 421 115 396 q 63 442 71 435 q 36 469 43 453 q 47 538 35 478 q 61 606 58 597 q 65 625 64 614 l 79 663 q 118 768 118 749 l 113 785 q 96 833 96 810 q 99 858 96 856 q 117 858 101 861 q 135 869 119 860 q 167 882 147 897 q 183 870 172 874 q 204 874 193 867 q 235 868 215 881 q 264 868 242 869 q 279 869 271 864 q 315 881 289 879 q 353 887 340 882 q 392 888 365 892 q 425 893 408 893 q 443 896 428 890 l 444 896 q 507 883 482 899 q 522 872 517 881 q 549 850 528 860 q 561 822 546 843 q 581 777 576 800 q 577 747 585 754 q 558 735 569 740 q 525 735 547 731 q 468 739 503 739 q 332 722 417 735 q 253 710 300 714 q 247 688 251 708 q 239 663 242 667 q 218 573 228 599 q 208 543 208 547 q 300 554 296 556 l 354 554 q 447 531 419 551 l 463 519 q 508 483 490 503 l 588 382 q 613 332 608 349 q 624 288 628 313 q 616 284 618 288 q 613 278 614 281 q 606 265 607 271 l 568 219 l 547 197 q 477 143 546 190 q 376 82 408 96 q 237 22 278 36 q 133 0 196 7 q 89 -2 122 -8 q 19 47 56 4 q 1 70 3 65 q 7 86 -1 75 q -6 125 1 114 q 6 138 -3 131 q 42 147 18 143 q 76 150 57 143 z "},"6":{"ha":653,"x_min":33,"x_max":626,"o":"m 438 361 q 440 381 438 372 q 420 424 438 407 q 381 429 403 442 q 301 372 340 407 q 239 310 261 338 q 228 266 231 288 q 225 233 226 244 q 222 210 222 211 l 222 181 q 224 104 218 114 q 242 94 229 94 q 261 99 254 93 q 335 182 296 131 q 422 317 356 200 l 438 361 m 101 484 q 102 489 101 484 q 120 551 103 493 q 141 620 138 608 q 149 640 144 632 q 156 654 154 649 q 176 696 171 672 q 188 718 179 696 q 197 743 196 740 q 213 772 206 751 q 251 820 218 782 q 290 860 285 858 l 306 871 q 351 888 346 885 q 358 893 356 892 q 395 894 361 894 q 429 892 429 894 q 453 876 429 883 q 485 851 481 856 q 486 806 503 832 q 465 788 471 790 q 339 608 415 763 l 335 593 q 329 577 335 589 q 308 529 324 565 q 285 476 293 493 l 288 475 q 355 526 324 500 q 416 558 386 553 q 499 528 446 564 q 603 425 551 493 q 622 351 622 406 q 607 269 626 307 q 599 250 599 258 q 554 183 600 242 q 461 72 508 125 q 333 11 389 18 q 304 -1 311 10 q 297 -19 297 -11 q 251 -37 290 -32 q 227 -27 243 -35 q 201 -17 211 -19 q 183 -8 192 -14 q 165 -3 174 -3 q 133 6 161 -3 q 98 28 125 4 q 63 67 71 51 q 38 217 33 113 q 65 383 43 321 q 70 406 69 392 q 78 426 71 419 q 89 456 78 436 q 101 484 100 475 z "},"7":{"ha":547,"x_min":-7,"x_max":572,"o":"m 88 188 q 99 255 89 215 q 117 308 110 294 q 125 332 125 321 q 137 367 125 343 q 150 394 149 392 q 156 413 153 397 q 168 450 161 418 q 185 472 169 450 q 191 496 188 492 q 195 503 194 500 q 205 531 196 507 q 215 557 214 556 q 219 564 217 558 q 233 594 231 586 q 251 644 240 622 q 263 681 263 667 q 265 708 268 703 q 209 706 261 713 q 101 711 157 699 q 74 725 82 714 q 50 751 61 747 q 6 801 29 760 q -5 849 -7 829 q 18 894 -3 869 q 42 890 36 894 q 114 886 67 888 q 167 888 154 886 q 185 890 179 890 l 203 890 q 233 901 218 899 q 258 911 249 904 q 276 916 267 918 q 336 910 286 914 q 358 913 347 915 q 432 908 367 914 q 451 896 439 907 q 468 865 463 885 q 472 841 474 846 q 472 833 471 836 q 497 821 476 826 q 536 782 511 799 q 540 776 538 781 q 547 768 543 772 q 551 760 550 764 q 535 736 572 743 q 451 642 508 732 q 342 426 401 549 q 276 253 313 374 q 246 39 239 133 q 233 6 242 21 q 214 -1 224 -8 q 180 6 201 13 q 148 1 158 0 q 108 33 138 3 q 88 188 78 64 z "},"8":{"ha":631,"x_min":32,"x_max":600,"o":"m 436 782 l 429 804 q 361 825 400 821 q 338 819 354 828 q 319 799 322 810 q 304 674 279 721 l 310 654 q 325 631 313 651 q 375 578 358 581 q 433 714 410 613 q 436 782 436 731 m 344 115 q 349 122 347 118 q 357 129 350 126 q 374 149 367 131 q 378 181 381 168 q 379 201 376 193 l 379 208 q 372 216 376 208 q 360 229 367 224 q 361 257 364 250 q 354 285 354 283 q 348 290 350 286 q 342 294 346 294 q 331 314 338 294 q 328 338 332 321 q 319 356 325 356 l 313 365 l 299 378 q 289 372 297 379 q 236 286 265 350 q 235 281 231 281 q 222 233 236 276 q 207 181 207 190 q 203 97 174 128 q 219 73 213 78 q 230 66 226 68 q 244 63 233 64 q 258 61 254 61 q 297 58 268 58 l 297 61 l 296 64 q 321 86 300 65 q 342 111 342 107 q 344 115 344 113 m 101 738 l 104 763 q 154 849 107 807 q 172 872 168 856 q 189 886 176 875 q 208 901 201 897 q 269 919 235 917 q 303 922 279 924 q 336 917 326 921 l 368 917 l 400 915 l 417 908 q 543 835 513 888 q 568 704 574 792 q 560 689 564 697 q 476 532 526 588 l 456 507 l 472 492 q 483 475 481 488 q 485 456 486 463 q 524 404 501 442 q 551 363 546 367 q 564 342 554 351 q 590 275 585 294 q 597 220 594 256 q 593 153 600 185 q 581 119 586 121 q 576 101 576 110 q 553 63 575 93 q 504 15 525 22 q 493 7 500 14 q 489 0 489 7 q 376 -47 475 -11 q 264 -46 269 -47 q 219 -40 232 -37 q 165 -12 207 -42 q 135 8 146 -3 q 103 33 122 14 q 72 65 88 40 q 56 106 56 89 q 44 126 50 119 q 33 188 32 157 q 40 228 33 219 q 49 242 47 238 q 53 250 51 247 q 58 260 58 257 l 97 336 q 108 340 100 336 q 119 346 115 344 q 160 383 157 383 q 172 405 156 392 q 191 419 188 418 q 197 422 194 419 q 219 428 208 428 q 225 431 225 425 q 235 442 225 436 q 235 455 236 446 q 232 464 235 464 q 226 496 226 464 q 192 539 200 540 q 180 544 188 538 q 171 556 172 551 q 171 569 176 567 q 165 581 165 575 q 149 604 165 582 q 135 624 150 607 q 117 640 119 640 l 114 649 q 111 668 114 664 q 104 679 99 674 q 99 694 104 689 q 93 710 93 699 l 101 738 z "},"9":{"ha":642,"x_min":17,"x_max":599,"o":"m 418 672 l 417 690 q 404 751 417 719 q 382 785 392 783 q 349 781 353 792 q 281 678 297 714 l 260 638 q 238 585 253 617 q 215 535 222 554 q 208 482 207 485 q 208 463 210 472 q 231 428 210 442 q 274 425 251 407 q 358 510 311 451 q 413 607 397 551 q 418 672 424 669 m 344 265 l 378 390 l 375 392 q 361 378 369 386 q 321 340 336 356 q 256 286 299 304 q 183 303 228 278 q 56 399 115 338 q 26 475 35 418 q 26 544 17 517 q 36 576 36 571 q 147 782 31 600 q 244 865 214 849 q 374 904 319 907 q 431 904 403 904 q 444 901 439 907 l 463 899 q 501 883 471 903 q 543 849 532 863 q 586 697 581 800 q 583 521 599 593 l 583 490 q 578 476 583 488 q 571 442 579 464 q 564 411 563 421 l 553 331 q 535 258 535 261 l 525 229 q 510 183 513 204 q 506 165 506 181 q 501 147 503 160 q 493 126 499 135 q 485 103 488 118 q 457 45 482 89 q 426 -3 432 1 l 411 -17 l 378 -32 q 249 -32 325 -43 q 239 -6 236 -25 q 262 47 242 17 q 294 107 282 78 q 312 149 307 136 q 330 204 317 163 q 343 247 343 246 l 344 265 z "},"\u0000":{"ha":0,"x_min":0,"x_max":0,"o":""},"\r":{"ha":294,"x_min":0,"x_max":0,"o":""}," ":{"ha":294,"x_min":0,"x_max":0,"o":""},"!":{"ha":307,"x_min":24,"x_max":264,"o":"m 27 69 q 29 76 27 69 q 48 99 31 83 q 83 115 65 115 q 115 121 101 115 q 141 126 129 126 q 178 120 153 126 q 213 113 204 114 q 228 110 222 111 q 241 100 235 108 q 247 79 247 92 q 181 -39 226 -14 l 139 -46 q 99 -26 121 -46 q 54 -6 54 -22 q 39 15 54 -3 q 24 44 24 33 q 27 69 24 56 m 264 988 l 251 883 q 225 618 246 813 q 204 353 204 424 q 213 263 204 283 q 174 236 197 236 q 153 239 161 236 q 142 242 144 242 l 136 242 l 131 243 q 94 332 99 293 q 69 405 71 389 q 63 426 67 421 q 58 489 58 485 l 58 547 q 64 619 64 582 l 64 640 q 75 722 64 668 q 86 810 86 775 q 108 893 86 846 q 137 960 129 940 q 147 988 144 979 q 154 1003 150 996 q 172 1014 161 1014 q 201 1022 193 1022 q 264 988 264 1022 z "},"\"":{"ha":486,"x_min":51,"x_max":436,"o":"m 276 824 l 272 856 q 286 897 272 878 q 322 924 300 917 q 389 935 358 935 q 436 897 436 935 q 431 849 436 885 l 411 724 q 347 528 381 528 q 318 611 322 579 q 286 699 286 686 q 281 721 286 715 q 275 792 275 760 l 276 824 m 56 824 l 51 856 q 65 897 51 878 q 101 924 79 917 q 169 935 138 935 q 215 897 215 935 q 171 614 183 663 q 126 528 149 528 q 97 611 101 579 q 65 699 65 686 q 60 721 65 715 q 54 792 54 760 l 56 824 z "},"#":{"ha":768,"x_min":-81,"x_max":847,"o":"m 240 356 q 306 366 303 364 q 314 369 310 368 q 347 385 326 372 q 365 392 354 386 q 394 401 376 397 q 418 410 411 406 q 446 421 425 414 q 460 458 449 424 q 474 497 471 492 l 461 506 q 381 494 442 506 q 285 476 372 490 q 256 399 256 410 q 240 356 256 388 m -75 275 q -58 292 -75 286 q -39 300 -58 294 q 26 318 25 314 q 108 342 32 321 q 124 353 119 346 q 147 400 129 360 q 158 421 157 411 q 152 431 158 431 q 93 417 146 431 q -6 404 40 404 q -57 432 -51 404 q -64 456 -64 438 q -57 482 -64 475 q -17 493 -50 489 l 78 517 q 164 551 149 543 q 183 560 179 558 q 195 565 186 561 q 214 574 204 569 q 235 639 215 581 q 260 717 254 697 q 276 736 265 728 q 310 827 308 825 q 322 853 313 829 q 361 904 336 894 q 393 894 382 904 q 419 871 403 889 q 435 842 436 853 q 411 800 435 832 q 399 762 407 788 q 386 728 390 736 q 367 664 381 714 q 336 600 336 619 q 359 600 342 597 q 379 607 376 603 q 400 617 386 607 q 413 622 406 617 q 422 629 421 626 q 447 635 446 633 q 522 672 511 643 q 533 717 522 694 q 544 743 544 739 q 551 778 543 747 q 569 831 565 815 q 579 850 572 846 q 588 872 588 864 q 606 894 593 886 q 663 894 639 911 q 689 875 674 889 q 718 857 696 875 l 733 825 q 727 813 731 822 q 721 798 724 803 q 706 763 718 793 q 683 688 678 689 l 754 700 l 775 692 q 840 603 832 668 q 833 576 847 583 q 767 574 825 586 l 622 550 q 593 432 592 433 q 693 435 653 432 q 758 417 722 440 q 781 365 776 399 q 775 313 785 332 q 683 299 743 313 q 567 288 581 288 q 552 285 553 288 q 510 144 551 283 q 482 8 485 29 q 475 -24 479 -14 q 456 -33 471 -33 q 423 -30 442 -33 q 392 -22 404 -26 q 379 -15 379 -18 q 360 -6 379 -12 q 349 29 360 -4 q 350 61 347 35 q 361 139 347 104 q 372 167 372 142 q 383 210 378 199 q 388 236 389 222 q 378 250 386 250 q 340 242 369 250 q 286 228 310 233 q 225 215 232 215 q 202 208 207 213 q 193 182 197 203 q 179 131 189 161 q 171 94 179 125 q 146 11 163 46 l 143 -8 q 140 -18 143 -11 q 132 -33 136 -25 q 117 -40 128 -40 q 94 -35 107 -40 q 71 -33 81 -31 q 65 -31 69 -32 q 42 -12 53 -24 q 26 1 38 -12 q 25 69 7 22 q 36 115 38 108 q 54 178 39 122 q 15 174 57 181 q -28 167 -26 167 q -67 201 -47 167 q -80 235 -79 226 q -74 254 -81 243 l -75 275 z "},"$":{"ha":600,"x_min":63,"x_max":557,"o":"m 378 172 q 379 201 379 183 q 376 253 379 219 q 343 304 376 264 l 335 313 q 328 272 329 276 q 317 133 325 267 q 360 144 344 133 l 378 172 m 307 765 l 303 765 q 258 731 282 757 q 246 697 246 708 l 233 643 q 238 571 229 592 q 260 538 238 560 q 282 513 263 531 q 293 574 283 524 q 290 579 290 568 q 303 661 293 636 q 302 708 304 707 q 303 735 300 708 q 307 765 307 761 m 268 336 l 242 349 q 213 368 238 349 q 185 392 189 388 q 178 400 181 397 l 160 410 q 135 435 144 417 l 103 478 q 93 508 100 482 q 82 531 88 514 q 78 558 76 547 q 74 601 72 568 q 76 649 76 635 q 78 672 76 663 q 89 722 88 683 q 92 729 90 724 q 114 775 94 733 q 128 787 119 781 q 147 807 136 793 q 164 823 150 807 q 194 849 178 839 q 219 851 206 849 q 326 868 282 863 l 338 914 q 365 964 338 947 l 375 969 q 413 946 410 975 q 401 858 417 917 l 440 851 q 485 818 475 832 q 529 763 508 800 q 549 651 556 682 q 551 619 546 625 q 539 597 557 607 q 494 580 521 586 q 460 581 467 574 q 428 611 435 581 l 415 628 q 408 652 408 642 q 404 708 408 663 q 381 751 396 714 l 364 619 q 360 590 365 618 q 356 544 354 563 q 346 476 357 525 q 410 440 360 465 q 469 399 460 414 l 501 364 l 519 325 q 527 285 522 319 q 529 236 532 251 q 528 200 536 229 q 526 172 529 196 q 511 135 517 143 q 490 107 511 128 q 460 67 475 82 q 410 32 444 53 q 354 13 403 18 q 321 15 335 4 q 299 15 313 13 l 289 -42 q 256 -121 264 -118 q 232 -113 236 -132 q 230 -78 228 -94 q 232 -58 232 -61 l 233 -50 l 233 -43 q 234 -34 233 -39 q 235 -22 235 -29 q 240 1 236 -15 q 244 29 244 18 l 228 35 l 194 38 l 174 46 q 119 82 168 53 q 99 106 108 82 q 86 122 94 111 q 69 161 69 142 q 69 196 63 178 q 154 219 93 242 q 164 214 156 218 q 210 176 178 204 q 244 148 242 149 q 256 143 247 147 q 257 151 256 149 q 264 158 260 151 q 263 185 267 167 q 265 245 263 188 q 267 315 267 303 q 269 331 267 326 q 268 336 268 332 z "},"%":{"ha":1115,"x_min":83,"x_max":1044,"o":"m 786 847 l 792 847 q 801 845 794 846 q 813 843 808 844 q 824 765 856 811 q 744 653 763 689 q 703 581 725 617 q 513 268 692 563 l 469 183 q 394 8 418 83 q 344 4 378 -18 q 342 6 343 6 q 339 10 340 7 q 335 15 338 13 q 328 22 333 18 q 306 86 313 39 q 311 124 306 111 q 354 229 326 157 q 386 285 367 246 q 414 335 393 304 l 501 494 q 550 576 529 539 q 578 615 558 585 l 606 671 q 676 765 664 744 q 703 797 689 786 q 714 813 704 801 q 744 838 724 825 q 786 847 765 850 m 910 135 q 929 188 922 181 q 931 200 931 194 l 931 213 q 926 293 935 242 q 919 336 925 321 q 893 379 914 351 q 876 396 876 392 q 853 383 867 404 q 833 344 849 372 q 817 314 818 317 q 811 300 819 308 q 810 292 810 297 q 810 279 811 286 q 806 208 810 272 q 811 161 806 175 q 815 117 811 136 q 819 82 814 90 q 847 56 832 56 q 879 76 861 56 q 907 128 897 97 q 910 135 904 135 m 710 340 l 718 371 q 718 376 718 372 q 724 386 718 379 q 733 403 731 393 q 765 457 731 426 q 772 463 769 460 q 774 469 774 467 q 781 478 775 472 q 829 485 800 492 q 858 481 856 479 q 882 489 861 483 q 981 431 932 492 q 1025 347 1013 392 q 1040 244 1044 300 q 1028 176 1036 188 q 1006 108 1026 161 q 981 47 986 56 q 969 25 971 31 q 956 7 968 19 q 916 -19 936 -12 q 872 -26 896 -26 q 844 -28 849 -26 q 831 -26 835 -26 l 821 -26 q 784 -15 806 -26 q 747 18 763 -4 l 728 56 q 715 90 718 61 q 696 200 704 122 q 701 321 694 224 q 708 331 701 331 q 710 340 711 333 m 299 579 q 318 632 311 625 q 319 644 319 639 l 319 657 q 315 738 324 686 q 308 781 314 765 q 282 824 303 796 q 265 840 265 836 q 242 828 256 849 q 222 789 238 817 q 206 758 207 761 q 200 744 208 753 q 199 736 199 742 q 199 724 200 731 q 194 653 199 717 q 200 606 194 619 q 204 561 200 581 q 208 526 203 535 q 235 500 221 500 q 268 521 250 500 q 296 572 286 542 q 299 579 293 579 m 99 785 l 107 815 q 107 820 107 817 q 113 831 107 824 q 122 847 119 838 q 154 901 119 871 q 160 908 158 904 q 163 914 163 911 q 169 922 164 917 q 218 929 189 936 q 247 926 244 924 q 271 933 250 928 q 369 875 321 936 q 414 792 401 836 q 429 688 433 744 q 417 621 425 632 q 395 553 415 606 q 369 492 375 500 q 359 469 361 475 q 344 451 357 464 q 305 425 325 432 q 261 418 285 418 q 233 417 238 418 q 219 418 224 418 l 210 418 q 173 429 194 418 q 136 463 151 440 l 117 500 q 104 535 107 506 q 85 644 93 567 q 90 765 83 668 q 97 775 90 775 q 99 785 100 778 z "},"&":{"ha":681,"x_min":-4,"x_max":718,"o":"m 290 801 q 263 768 268 799 q 261 672 253 706 q 292 590 272 606 q 315 628 308 604 q 338 692 333 665 q 315 779 344 733 q 290 801 310 796 m 154 250 l 154 228 q 167 147 156 167 q 214 110 178 126 q 329 165 301 110 q 337 180 333 174 q 340 190 340 186 q 333 201 340 193 q 319 218 326 208 q 299 253 301 240 q 278 285 296 267 q 265 306 278 286 q 249 342 251 325 l 226 394 q 178 335 226 383 q 154 250 154 282 m 463 683 l 447 624 q 444 619 446 624 q 438 608 443 618 q 421 576 426 589 q 410 558 421 571 q 388 540 399 546 q 368 522 379 532 q 349 500 347 506 q 372 438 346 482 q 400 389 399 394 q 411 371 401 383 q 425 347 421 358 q 443 328 429 336 q 458 376 451 363 q 469 419 464 390 q 481 468 481 444 q 508 510 497 504 q 534 513 515 510 q 606 503 553 517 q 610 500 606 501 q 636 481 625 492 q 635 414 642 471 q 607 294 629 357 q 544 190 564 199 q 584 138 533 188 q 646 81 635 89 q 657 69 657 72 q 711 15 708 32 q 701 -33 718 -11 q 691 -37 699 -36 q 672 -40 683 -39 q 649 -46 661 -40 q 600 -47 638 -51 q 573 -51 597 -54 q 537 -44 549 -47 q 518 -38 525 -40 q 501 -27 511 -36 q 489 -15 492 -18 q 460 18 476 -3 q 441 41 444 39 q 417 72 438 43 q 338 11 392 51 q 320 3 332 10 q 303 -7 308 -4 q 261 -23 288 -25 q 215 -26 235 -21 q 183 -28 194 -31 q 145 -16 171 -25 q 110 -6 119 -7 q 43 49 79 10 q 31 72 43 51 q 14 93 17 79 q 10 117 11 107 q 8 135 8 126 q 1 151 7 143 q 1 174 3 156 q -4 197 -1 192 q 13 283 -4 272 l 21 336 q 29 369 25 346 q 51 413 24 385 q 101 475 72 449 q 119 488 101 483 q 138 503 125 490 q 157 519 140 508 q 155 558 165 535 q 147 593 144 581 q 141 624 147 614 q 133 642 135 635 q 131 663 132 650 q 128 689 131 675 q 126 715 129 696 q 157 815 117 761 q 168 838 161 835 q 182 847 175 842 q 195 858 189 853 q 230 879 201 864 q 306 892 258 894 q 393 871 389 888 q 419 850 404 868 q 448 818 432 844 q 464 783 464 792 q 471 749 464 775 q 463 683 474 718 z "},"'":{"ha":264,"x_min":51,"x_max":215,"o":"m 56 824 l 51 856 q 65 897 51 878 q 101 924 79 917 q 168 935 138 935 q 215 897 215 935 q 208 849 215 885 l 190 724 q 126 528 160 528 q 97 611 101 579 q 65 699 65 686 q 60 721 65 715 q 54 792 54 760 l 56 824 z "},"(":{"ha":393,"x_min":90,"x_max":453,"o":"m 92 476 l 100 608 q 108 707 100 693 l 108 733 q 114 758 108 750 q 144 844 124 776 q 183 935 151 844 q 196 950 183 938 q 231 976 208 963 q 274 992 254 990 l 306 999 l 311 999 q 331 999 317 999 q 351 999 346 1000 q 367 997 356 999 q 386 992 378 996 q 429 961 403 982 q 381 929 429 950 q 364 910 378 929 l 339 856 l 306 761 q 266 604 283 700 q 246 496 249 508 q 238 385 238 458 q 240 275 238 311 q 289 81 251 160 q 303 49 299 61 q 308 35 307 38 q 313 25 310 32 q 381 -75 325 -3 l 392 -96 q 443 -161 407 -110 q 453 -203 447 -168 q 424 -197 431 -200 q 393 -179 417 -194 l 392 -181 q 385 -174 393 -178 q 367 -169 378 -169 l 308 -126 q 274 -94 288 -106 l 244 -61 l 221 -22 l 211 -1 q 204 25 207 3 q 168 71 197 29 l 150 107 l 143 133 q 119 197 124 182 l 104 258 q 100 282 104 261 q 96 344 96 303 l 90 381 q 96 418 90 400 q 92 447 90 424 l 92 476 z "},")":{"ha":418,"x_min":-46,"x_max":350,"o":"m 196 350 q 190 399 190 354 q 185 516 190 444 q 177 601 179 588 q 172 628 175 615 q 151 783 165 657 l 142 817 q 118 868 138 836 q 102 895 118 876 q 86 928 86 914 q 117 953 86 933 l 128 953 q 148 953 131 953 q 179 949 165 953 q 215 919 193 946 q 261 839 238 893 l 288 779 q 289 776 286 779 q 308 721 299 763 l 317 693 l 339 576 q 342 540 342 563 l 342 514 q 350 419 350 497 q 333 268 350 331 l 324 228 q 283 124 319 203 q 200 -11 247 44 l 143 -68 q 113 -96 140 -78 l 44 -124 l 4 -131 q -46 -110 -39 -131 l 11 -76 q 42 -39 11 -74 q 42 -35 42 -37 q 78 10 49 -39 l 94 39 q 117 72 94 43 l 119 72 q 121 81 121 74 q 143 126 121 88 q 154 158 144 126 q 165 200 164 190 q 168 211 167 210 l 168 210 q 182 247 182 231 q 178 279 182 263 q 196 350 178 311 z "},"*":{"ha":508,"x_min":21,"x_max":500,"o":"m 206 850 l 204 861 q 200 889 204 864 q 194 932 183 914 q 226 938 207 940 q 307 897 250 938 l 306 857 q 310 823 308 835 q 314 800 311 811 q 319 785 317 789 q 326 785 322 782 q 366 805 329 790 q 433 826 403 819 q 460 831 451 836 q 483 800 465 829 q 500 764 500 771 l 500 733 q 400 703 493 735 l 321 656 q 334 594 328 636 q 342 536 340 553 q 338 514 344 519 q 288 508 331 508 l 269 510 l 265 510 q 229 521 264 511 q 222 564 228 524 q 215 614 215 604 q 197 604 210 614 q 164 579 183 592 q 140 563 157 579 q 74 528 79 526 q 60 540 68 531 q 53 551 51 549 q 39 568 53 554 q 28 590 28 582 q 56 608 28 597 q 85 625 85 619 l 108 640 q 126 651 108 644 q 143 664 126 656 q 147 668 144 667 q 151 672 149 669 q 158 677 154 674 q 165 683 161 681 q 90 710 163 683 q 31 779 51 725 q 22 810 21 804 q 45 808 25 815 q 99 793 65 801 q 144 790 110 794 q 203 783 179 785 q 203 821 201 797 q 205 847 204 844 q 206 850 206 849 z "},"+":{"ha":717,"x_min":75,"x_max":657,"o":"m 301 83 q 290 131 290 106 q 288 171 290 157 l 288 172 q 279 251 279 206 l 279 301 q 235 301 250 299 q 206 295 221 294 q 188 292 192 296 q 135 283 176 283 q 96 307 126 283 l 81 333 q 79 356 79 335 q 75 399 75 367 q 81 438 81 407 q 128 449 103 449 q 168 451 154 449 l 169 451 q 236 460 203 460 q 285 458 269 460 q 288 569 288 561 l 290 590 q 310 639 290 618 q 338 660 329 660 q 356 659 347 660 q 369 658 365 658 q 380 654 374 657 q 389 647 386 651 q 408 581 399 636 q 418 456 408 575 q 567 451 518 451 l 588 449 q 636 429 615 449 q 657 401 657 410 q 656 383 657 392 q 655 369 656 374 q 651 359 654 365 q 644 350 649 353 q 578 331 633 340 q 433 318 564 331 q 438 238 438 272 q 444 209 444 224 q 447 190 443 194 q 456 138 456 179 q 432 99 456 129 l 406 83 q 383 82 404 82 q 340 78 372 78 q 301 83 332 83 z "},",":{"ha":282,"x_min":44,"x_max":238,"o":"m 213 136 q 235 112 233 133 q 238 53 238 90 q 217 -46 238 17 q 201 -76 213 -65 q 188 -112 201 -81 q 125 -182 179 -154 q 106 -192 114 -190 q 53 -183 74 -199 q 49 -174 44 -179 q 65 -141 49 -164 q 85 -109 81 -118 q 96 -74 89 -100 l 96 -21 q 74 47 96 28 q 54 103 51 65 q 54 116 53 104 q 64 144 56 128 q 85 168 72 160 l 106 167 q 157 161 135 169 l 179 156 q 213 136 181 156 z "},"-":{"ha":565,"x_min":43,"x_max":536,"o":"m 50 368 q 108 379 76 379 q 157 382 139 379 l 158 382 q 258 390 203 390 l 425 382 l 449 379 q 510 360 485 379 q 535 330 536 340 q 533 307 535 319 q 531 289 532 294 q 500 271 526 276 l 478 267 q 436 261 453 267 q 400 255 415 261 q 346 249 385 249 l 324 244 q 240 232 279 231 q 206 226 224 225 q 183 222 188 226 q 118 214 169 214 q 69 238 106 214 l 50 264 q 49 286 47 267 q 43 329 43 296 q 50 368 50 339 z "},".":{"ha":278,"x_min":40,"x_max":224,"o":"m 124 194 l 125 194 q 178 179 151 199 l 192 164 q 210 147 193 158 q 206 111 211 143 q 222 74 215 104 q 213 -24 224 44 q 208 -37 215 -31 q 150 -39 193 -53 q 148 -40 150 -40 q 137 -37 146 -39 q 123 -34 128 -35 q 89 -26 118 -33 q 64 -12 64 -17 q 49 13 49 3 q 46 51 40 29 q 54 88 51 74 l 67 111 q 82 153 67 121 q 89 175 85 171 q 124 194 111 189 z "},"/":{"ha":388,"x_min":-15,"x_max":435,"o":"m -8 -143 l -11 -115 q 14 10 -11 -103 l 168 481 q 197 557 193 538 q 240 650 238 644 q 244 660 242 656 q 294 804 260 692 q 302 818 296 806 q 311 833 308 831 l 343 856 q 388 874 368 874 q 418 861 408 874 l 435 826 q 406 751 435 803 q 335 569 338 578 q 322 538 332 560 q 306 486 321 528 l 274 394 q 250 333 250 343 q 203 204 213 210 q 197 192 203 203 q 179 128 181 150 q 143 -35 176 106 q 131 -87 143 -43 q 124 -140 131 -100 q 110 -203 118 -179 q 50 -262 88 -262 q 8 -237 31 -262 q -15 -171 -15 -212 l -8 -143 z "},":":{"ha":288,"x_min":46,"x_max":228,"o":"m 218 572 l 228 489 q 208 426 228 457 q 215 411 215 419 q 197 385 215 400 l 183 371 q 131 356 171 354 l 129 356 q 106 364 113 361 q 82 411 90 372 q 72 436 72 433 l 60 461 q 46 510 57 499 q 74 564 46 539 q 156 588 100 588 q 193 596 181 596 q 218 572 218 589 m 193 -47 q 128 -33 183 -47 q 85 -26 101 -33 q 69 -12 69 -18 q 46 40 46 11 q 60 88 57 74 l 72 111 q 81 140 72 121 q 90 163 89 158 q 93 170 92 167 q 97 176 94 174 q 111 188 106 186 q 129 194 126 192 l 147 196 q 183 179 172 196 l 197 164 q 215 144 215 150 l 211 111 q 228 68 228 100 q 218 -26 228 36 q 193 -47 218 -43 z "},";":{"ha":297,"x_min":50,"x_max":243,"o":"m 136 356 l 135 356 q 100 374 117 363 l 78 436 l 65 461 q 51 510 64 471 q 72 560 51 531 q 139 583 75 571 q 199 596 189 596 q 226 556 226 590 q 233 476 235 506 q 214 426 228 447 q 221 401 225 415 q 203 385 204 390 l 176 360 q 136 356 163 351 m 218 136 q 241 112 239 133 q 243 53 243 90 q 222 -46 243 17 q 207 -76 218 -65 q 193 -112 207 -81 q 131 -182 185 -153 q 111 -192 119 -190 q 58 -183 79 -199 q 54 -174 50 -179 q 70 -141 54 -164 q 90 -109 86 -118 q 101 -74 94 -100 l 101 -21 q 79 47 101 28 q 60 103 57 65 q 60 116 58 104 q 69 144 61 128 q 90 168 78 160 l 111 167 q 163 161 140 169 l 185 156 q 218 136 186 156 z "},"<":{"ha":717,"x_min":96,"x_max":628,"o":"m 476 638 q 482 649 479 647 q 509 651 485 650 q 542 639 533 653 q 590 618 553 647 q 619 576 628 589 q 554 543 607 576 q 467 485 501 510 q 275 374 453 478 q 269 354 249 363 q 319 316 274 351 q 365 279 365 281 q 440 231 433 239 q 461 213 447 222 q 478 200 475 204 q 569 99 568 121 q 541 79 568 92 q 482 63 514 67 q 414 76 438 61 q 386 90 400 78 q 369 111 372 101 q 329 139 344 111 q 300 167 318 144 q 286 177 296 168 q 269 189 276 186 q 233 224 257 214 l 215 247 q 190 269 190 263 q 150 300 182 289 q 113 331 143 315 q 101 338 103 332 q 99 371 99 343 q 114 411 96 376 q 181 453 146 433 q 261 514 213 478 q 310 554 310 550 q 344 572 317 557 q 378 594 371 588 q 415 615 410 597 q 458 633 440 631 q 476 638 475 636 z "},"=":{"ha":532,"x_min":15,"x_max":514,"o":"m 508 117 q 454 107 489 108 q 400 101 419 106 l 399 101 q 300 93 356 93 q 92 107 226 93 q 37 130 56 118 q 21 153 18 142 q 24 175 24 165 q 26 190 25 185 q 57 210 31 204 q 121 217 104 217 l 142 217 q 179 221 167 217 q 197 225 192 225 l 276 238 q 317 243 290 249 q 346 250 329 249 q 365 250 363 251 q 385 253 368 249 q 433 261 403 258 q 488 238 454 261 l 506 215 q 510 194 511 199 q 513 171 513 190 q 511 140 514 151 q 508 117 508 140 m 22 490 q 76 500 42 499 q 129 506 110 501 l 131 506 q 231 514 175 514 q 438 500 303 514 q 494 477 475 489 q 510 453 513 465 q 506 432 507 442 q 504 417 506 422 q 472 397 500 403 q 408 390 425 390 l 388 390 l 368 389 l 296 376 q 253 369 281 371 q 213 364 238 360 q 163 357 189 353 q 96 346 124 349 q 43 369 81 342 l 25 392 q 21 413 19 408 q 17 433 18 417 q 19 467 15 449 q 22 490 22 467 z "},">":{"ha":717,"x_min":75,"x_max":607,"o":"m 161 639 q 194 651 169 653 q 221 649 218 650 q 226 638 224 647 q 242 633 228 636 q 288 615 263 631 q 325 594 293 597 q 359 572 332 588 q 393 554 386 557 q 414 533 393 550 q 522 453 490 478 l 589 411 q 604 371 607 376 q 601 335 604 339 q 590 331 597 332 q 553 300 560 315 q 513 269 521 289 q 488 247 513 263 l 469 224 q 433 189 446 214 q 417 177 426 186 q 403 167 407 168 q 374 139 385 144 q 333 111 358 111 q 317 90 331 101 q 289 76 303 78 q 221 63 265 61 q 162 79 189 67 q 133 99 135 92 q 225 200 135 121 q 242 213 228 204 q 258 226 256 222 q 338 279 264 235 q 383 316 338 281 q 433 354 429 351 q 428 374 454 363 q 236 485 250 478 q 121 560 156 543 q 83 576 86 576 q 113 618 75 589 q 161 639 150 647 z "},"?":{"ha":610,"x_min":61,"x_max":571,"o":"m 169 111 q 176 133 171 131 q 187 134 182 136 q 238 128 192 132 q 258 110 250 113 q 303 76 292 76 q 313 56 314 75 q 300 22 313 38 q 249 -44 281 -21 q 225 -50 233 -50 q 180 -44 217 -50 q 138 -22 143 -39 l 138 10 q 144 40 138 36 q 150 63 150 44 l 154 92 q 169 111 164 99 m 383 763 q 391 790 390 786 q 394 799 392 793 q 406 829 406 821 l 406 849 q 404 860 406 858 q 392 861 403 861 q 335 841 371 857 q 285 812 300 825 q 247 760 271 799 q 222 710 224 722 q 215 690 219 697 q 205 658 210 683 q 200 624 200 632 q 207 617 200 617 q 197 606 222 614 q 182 603 193 603 q 168 606 171 603 q 138 613 142 606 q 104 624 122 613 q 81 651 86 636 q 93 758 61 708 q 132 826 111 811 q 160 881 156 876 q 169 888 165 886 q 175 905 175 901 q 188 916 175 908 q 207 929 200 924 q 221 946 221 940 q 239 950 231 946 q 264 964 258 954 q 299 972 272 964 q 369 976 325 981 q 396 963 376 974 q 418 951 415 953 q 425 947 421 949 q 444 932 436 943 q 468 922 457 929 q 503 903 482 910 l 526 889 q 554 885 543 886 q 568 865 560 885 q 504 671 571 793 q 490 641 500 661 q 478 613 479 621 q 403 454 464 582 q 332 308 342 326 q 325 301 331 308 q 317 292 319 293 l 310 276 q 295 266 310 269 q 272 264 281 263 l 228 264 q 189 276 194 271 q 183 311 183 282 q 221 463 183 403 q 247 517 235 497 q 261 549 258 538 q 283 579 264 560 q 300 613 292 601 q 320 639 307 615 q 333 670 333 663 q 346 686 333 678 q 354 704 346 692 q 363 733 354 724 q 371 754 371 742 q 383 763 371 763 z "},"@":{"ha":896,"x_min":33,"x_max":853,"o":"m 524 410 q 482 394 515 428 q 418 301 458 382 q 374 213 378 219 q 371 142 338 140 q 443 199 403 144 q 467 225 463 222 q 488 267 479 261 q 536 376 501 339 q 524 410 542 392 m 599 436 q 606 413 601 418 q 618 408 610 408 q 642 402 626 408 q 657 392 657 396 q 640 369 651 379 q 619 331 639 365 q 573 220 569 244 q 605 192 576 196 q 654 225 633 188 q 701 307 654 226 q 733 475 740 422 q 704 569 728 529 q 658 614 701 574 l 631 628 q 560 651 601 653 q 489 638 519 650 q 353 553 383 581 q 289 477 324 526 q 236 392 254 428 q 199 300 218 357 q 171 222 179 243 q 163 166 163 200 q 160 117 163 132 q 158 93 157 101 q 188 -40 158 33 q 205 -68 196 -61 q 229 -79 214 -75 q 259 -92 244 -83 q 342 -90 274 -101 q 360 -84 350 -86 q 378 -81 369 -82 q 404 -69 386 -81 q 444 -42 422 -58 q 479 -21 467 -26 q 571 -17 521 24 q 586 -78 589 -39 q 500 -194 582 -164 q 473 -206 481 -201 q 458 -212 465 -210 q 422 -226 431 -224 q 264 -219 278 -233 q 244 -201 250 -206 q 233 -192 238 -197 q 213 -176 224 -179 q 189 -162 201 -165 q 146 -133 176 -160 q 134 -124 142 -133 q 126 -108 126 -115 q 106 -94 122 -110 q 53 17 69 -61 q 33 140 36 96 q 42 248 33 206 q 70 349 51 290 q 113 453 89 408 l 154 533 l 193 579 q 219 608 215 596 q 235 620 224 611 q 250 631 246 629 q 393 731 300 681 q 451 755 422 749 q 534 759 479 761 q 600 754 589 757 q 790 622 644 744 q 844 503 836 563 q 836 310 853 444 q 822 274 833 307 q 802 231 810 240 q 776 189 794 221 q 721 111 735 117 q 675 81 696 99 q 647 76 665 83 q 594 77 628 68 q 529 110 560 86 q 506 156 499 133 q 433 81 476 115 q 354 60 389 47 q 321 64 336 60 q 267 108 286 64 q 264 214 254 146 q 344 379 329 358 q 372 422 361 400 q 472 508 410 496 q 550 497 510 517 q 599 436 581 479 z "},"A":{"ha":649,"x_min":32,"x_max":640,"o":"m 264 375 q 297 381 267 378 q 367 406 326 385 q 365 439 368 406 q 358 522 361 497 q 353 569 356 556 q 332 679 353 596 l 271 472 q 256 367 251 386 l 264 375 m 76 335 l 85 396 q 90 432 85 414 q 114 503 90 456 q 126 539 114 506 q 153 621 126 542 l 169 661 q 176 683 169 667 q 187 715 183 699 q 196 746 190 731 q 231 810 215 783 q 339 860 260 865 l 383 856 q 447 832 425 844 q 490 805 479 819 q 500 757 501 790 q 508 613 501 740 q 515 483 515 485 l 522 424 q 553 224 522 415 l 583 126 q 613 45 611 49 q 625 15 615 42 q 599 -46 640 -31 q 543 -39 561 -51 q 511 -26 536 -39 q 495 -13 508 -19 q 478 -3 482 -7 q 450 40 463 1 q 435 63 446 43 q 429 94 425 82 q 419 146 419 107 q 407 211 407 167 q 393 281 407 256 q 242 246 322 249 q 226 240 226 246 q 218 196 226 228 l 194 43 q 169 -65 208 -60 q 133 -71 158 -65 q 90 -61 107 -76 q 45 -24 58 -43 q 33 18 32 -6 q 40 101 35 38 q 42 133 43 104 q 46 176 42 161 l 68 263 q 79 304 72 265 q 78 318 78 307 l 76 335 z "},"B":{"ha":669,"x_min":54,"x_max":651,"o":"m 403 575 l 425 622 q 431 653 432 642 q 431 671 431 664 q 429 688 431 678 q 420 709 428 699 q 405 723 413 719 q 376 735 397 726 l 346 736 q 275 729 304 744 q 260 601 275 699 l 251 506 l 244 456 q 294 471 254 456 l 314 488 q 349 518 319 489 q 364 532 356 521 l 378 549 q 393 563 382 547 l 403 575 m 242 204 l 244 171 q 244 135 250 158 q 243 99 239 111 q 244 71 243 75 q 283 82 257 71 q 315 94 308 93 q 333 106 322 96 q 406 147 368 124 l 438 176 q 493 247 478 225 l 501 272 q 467 346 519 311 q 421 368 456 363 l 419 368 q 363 379 371 382 l 301 365 q 272 357 285 357 q 243 369 258 357 l 244 331 q 239 279 235 304 q 242 204 244 254 m 303 -43 l 290 -43 q 236 -39 276 -46 q 122 6 165 -28 q 94 35 110 17 q 78 61 78 54 q 78 79 78 68 q 76 101 79 90 l 76 113 q 78 142 72 121 q 81 178 83 164 q 76 217 78 196 q 81 247 72 222 q 92 453 92 435 l 99 494 q 101 567 92 536 l 101 597 q 113 710 100 617 q 75 753 107 726 q 61 774 68 760 q 67 821 54 789 q 115 857 75 832 q 190 889 118 865 l 217 900 q 294 906 236 907 q 346 893 326 901 q 476 814 417 858 q 501 792 494 806 q 548 738 526 775 q 572 692 569 701 q 558 585 579 647 q 467 451 549 553 q 514 428 481 447 q 543 408 518 422 q 551 399 546 404 q 558 389 556 393 l 569 382 l 583 361 l 604 343 q 626 313 618 329 q 649 281 647 293 l 651 254 q 610 154 650 239 q 571 107 594 124 l 550 82 q 519 54 542 71 q 481 22 496 38 q 459 10 474 19 q 416 -14 444 0 q 378 -31 388 -28 q 303 -43 350 -39 z "},"C":{"ha":615,"x_min":53,"x_max":585,"o":"m 260 850 q 340 856 279 858 q 428 844 401 854 l 463 833 q 511 804 506 804 q 576 688 568 760 q 579 632 585 657 q 574 596 579 624 l 560 564 l 543 540 q 533 539 535 539 q 454 537 482 531 q 406 567 426 543 q 401 582 401 575 q 406 594 403 589 l 413 617 q 410 692 431 661 q 396 707 410 696 q 374 724 382 718 q 347 725 367 729 q 290 640 314 711 q 251 546 263 604 q 235 428 235 442 l 233 397 l 233 385 q 236 264 231 382 q 242 244 238 257 q 254 194 246 229 l 272 164 q 290 139 279 160 q 301 129 297 139 q 310 118 311 119 q 331 110 317 117 q 396 118 368 90 q 420 145 406 128 q 442 173 435 163 q 467 193 450 183 q 546 190 513 228 q 548 137 553 179 q 508 49 543 94 q 490 22 506 40 q 458 -8 475 3 q 353 -22 456 -18 q 331 -19 347 -22 q 290 -15 315 -24 q 261 -7 264 -7 l 243 -3 q 221 4 232 -3 q 184 28 210 11 q 144 57 158 46 q 85 133 103 90 q 78 160 79 143 q 72 186 76 178 q 62 222 61 197 q 58 283 63 247 q 60 303 58 300 q 54 327 53 310 q 56 375 56 344 q 59 424 60 383 q 61 486 58 465 q 60 522 56 499 l 61 564 q 74 617 63 589 q 79 647 75 629 q 115 717 83 664 q 136 744 115 728 q 147 761 136 750 q 172 789 158 772 q 215 824 192 813 q 260 850 239 835 z "},"D":{"ha":742,"x_min":67,"x_max":701,"o":"m 540 397 q 551 458 549 414 q 557 519 554 503 q 468 732 557 682 q 399 743 432 753 q 351 724 383 743 q 350 658 350 704 l 343 607 l 331 479 q 328 439 331 476 q 307 113 307 221 q 350 136 332 118 q 404 179 399 176 l 424 197 q 460 231 431 199 l 460 232 l 486 267 l 514 324 q 540 397 525 339 m 139 188 q 136 208 136 193 q 140 242 136 222 q 144 288 144 261 q 153 356 144 314 q 154 418 147 364 q 160 451 161 431 q 158 485 158 472 q 161 553 158 544 q 163 586 164 561 q 176 651 171 594 q 106 677 129 650 q 67 754 82 704 q 70 770 68 763 q 74 783 72 778 q 79 795 75 789 q 85 805 83 801 q 94 815 88 808 q 104 823 101 821 q 117 831 107 825 q 129 840 126 838 q 144 849 132 842 q 160 860 156 857 q 182 870 164 867 q 236 889 200 874 q 301 908 242 894 q 418 897 361 921 q 464 892 450 897 q 501 874 478 879 l 572 836 q 635 764 588 821 q 700 578 686 672 q 701 485 701 551 q 656 301 689 358 q 640 260 653 285 q 622 226 640 257 q 579 165 603 194 q 549 125 556 135 q 485 67 492 72 q 449 42 453 43 q 337 -15 343 -11 q 303 -25 331 -19 q 253 -21 263 -29 q 213 8 231 -11 q 190 31 207 10 q 165 50 168 47 q 139 150 147 76 q 139 188 138 156 z "},"E":{"ha":557,"x_min":40,"x_max":532,"o":"m 224 324 l 224 268 q 233 172 224 182 q 240 139 232 171 q 251 104 240 128 q 290 71 251 97 q 372 99 307 71 l 471 136 q 505 131 489 142 q 524 95 521 121 q 523 58 528 69 q 499 31 518 47 q 475 7 481 14 q 454 -8 469 0 q 420 -24 439 -15 q 394 -36 401 -32 q 311 -56 340 -61 q 274 -49 293 -56 q 253 -42 256 -42 q 242 -41 251 -43 q 225 -37 233 -39 q 182 -28 217 -35 q 163 -17 182 -22 l 125 14 q 104 49 115 19 l 92 69 q 76 101 86 74 q 69 126 71 108 q 63 169 63 142 q 50 222 57 176 q 49 329 40 282 q 58 381 49 356 q 61 403 60 392 q 71 458 68 439 q 89 551 65 478 q 98 584 89 563 q 108 629 107 606 l 119 656 q 140 738 119 667 q 151 768 151 764 l 186 842 l 203 864 q 232 881 213 874 q 276 879 240 888 q 307 863 299 871 q 331 858 317 858 l 438 865 q 492 856 478 863 q 519 835 506 850 q 528 804 532 819 q 517 781 525 789 q 450 744 499 765 q 358 696 365 699 l 325 681 q 299 651 304 667 q 252 478 256 496 q 248 458 249 461 q 247 453 247 454 l 275 456 q 347 468 336 475 q 363 472 353 468 q 453 488 414 490 q 468 482 460 492 q 481 458 476 472 q 460 404 489 424 q 321 342 401 365 q 247 315 294 321 l 224 324 z "},"F":{"ha":653,"x_min":47,"x_max":668,"o":"m 339 694 l 329 529 q 385 535 336 533 q 449 535 433 538 l 500 511 q 546 468 519 499 q 506 413 563 432 q 436 404 451 404 l 326 399 l 326 335 q 335 136 335 164 q 342 86 342 94 l 342 56 q 335 22 342 29 q 314 0 318 1 q 193 28 257 -22 l 171 57 q 163 99 171 63 q 151 144 164 103 q 155 165 151 153 q 158 193 158 178 q 151 225 158 208 q 149 257 151 243 l 149 271 q 152 303 151 286 q 156 338 153 321 q 157 371 160 356 l 157 375 q 128 383 138 385 q 109 392 119 382 q 97 413 99 403 q 126 451 96 422 q 160 471 129 457 l 160 499 l 167 576 q 167 633 163 614 q 168 665 171 653 l 176 696 q 76 690 107 683 q 49 731 50 703 q 56 771 47 732 q 89 819 51 790 q 147 839 119 833 q 242 863 200 857 q 374 886 324 876 l 439 910 q 470 921 461 922 q 497 926 479 919 q 529 939 500 933 q 599 926 589 950 q 632 907 611 924 q 664 853 636 906 q 660 830 668 842 q 633 817 651 818 l 596 803 q 549 788 579 801 q 485 772 492 772 q 471 771 478 772 q 426 760 450 767 q 386 753 403 753 q 343 733 347 744 q 342 725 342 731 l 339 708 l 339 694 z "},"G":{"ha":722,"x_min":46,"x_max":674,"o":"m 232 7 l 206 6 q 175 10 203 8 q 154 22 172 15 q 119 49 146 22 q 94 71 96 68 q 85 85 93 76 q 72 124 79 93 q 49 213 50 192 q 51 271 47 233 q 53 306 46 278 q 57 375 53 321 l 57 383 l 63 446 q 71 503 61 474 q 85 557 81 532 q 93 593 89 558 q 118 665 114 658 l 140 704 q 153 722 144 708 l 194 776 q 231 800 203 786 q 267 824 246 815 q 357 850 319 846 q 403 858 374 838 q 515 851 486 851 q 571 842 543 851 q 614 810 613 833 q 604 757 617 775 q 572 742 592 739 q 479 747 515 750 q 411 726 443 744 q 399 721 408 725 q 363 700 376 711 q 267 538 311 657 l 263 514 q 263 513 264 515 q 260 505 263 511 q 258 494 258 499 q 253 481 257 490 q 228 376 239 443 q 218 264 218 308 q 233 193 218 219 l 256 168 q 289 142 261 157 q 326 111 301 126 q 401 132 349 101 q 413 142 407 136 l 446 164 q 483 207 476 196 l 500 221 l 506 264 q 508 272 506 265 q 514 308 514 293 l 514 328 l 511 371 q 506 397 513 390 q 428 358 485 397 q 409 356 424 356 q 386 361 394 357 q 363 396 363 375 q 367 429 363 417 q 372 446 371 442 q 377 455 372 450 q 390 465 382 460 q 410 483 399 471 q 460 513 422 494 q 544 531 497 531 q 621 503 592 531 q 671 403 650 476 q 674 330 674 386 q 647 121 674 274 q 631 31 640 54 q 619 -16 622 8 q 615 -50 617 -40 q 612 -63 613 -60 q 610 -69 611 -67 q 606 -85 610 -72 q 585 -112 601 -99 q 554 -128 568 -126 q 493 -99 508 -119 q 478 -68 488 -90 q 467 -30 468 -46 q 467 -8 467 -14 q 472 26 468 -3 q 478 69 476 54 l 440 24 q 415 4 440 18 q 351 -4 404 -7 l 339 -4 q 274 -3 338 -15 q 232 7 265 -4 z "},"H":{"ha":768,"x_min":79,"x_max":724,"o":"m 92 238 q 92 257 94 242 q 90 326 86 307 q 87 414 85 401 q 94 428 89 426 q 84 489 89 436 q 82 560 79 542 q 81 587 79 571 q 85 608 82 603 q 81 629 82 611 l 81 692 l 83 728 l 83 758 l 92 801 q 99 826 88 808 q 128 899 85 856 q 160 917 129 901 q 194 917 185 918 q 222 914 203 915 q 250 910 240 913 q 275 865 275 901 l 275 842 q 278 767 278 792 l 278 736 q 275 715 278 718 q 275 689 276 710 l 275 665 q 272 615 271 622 l 263 542 q 342 538 274 538 l 411 538 q 488 538 472 538 q 509 547 504 539 q 517 569 514 556 q 521 601 519 583 q 524 624 522 619 q 528 683 532 631 q 533 704 528 688 q 539 749 533 724 q 548 795 539 775 q 561 829 557 815 q 594 869 568 853 q 661 901 629 894 l 686 901 q 711 831 724 894 q 700 776 711 810 q 688 692 688 711 q 676 621 688 672 q 677 586 679 594 q 675 565 675 578 q 672 524 672 535 q 669 457 669 482 q 665 403 669 432 q 656 343 665 374 l 651 254 q 661 111 651 244 q 667 78 669 103 q 657 44 664 54 q 642 33 650 35 q 619 32 635 32 q 568 18 588 14 q 533 29 551 18 q 496 67 504 44 q 492 90 496 76 q 492 120 489 104 q 494 154 494 136 q 493 196 493 172 l 494 213 q 497 231 492 218 q 499 250 503 243 l 499 288 l 506 358 q 504 404 492 368 l 507 415 q 476 411 490 411 q 390 401 438 401 l 265 406 l 265 390 q 264 324 263 368 l 264 297 q 265 194 265 261 q 271 90 271 122 l 269 81 q 267 61 269 69 q 253 25 267 35 q 211 13 240 15 q 158 28 182 10 q 124 56 125 44 q 115 85 122 67 q 106 111 108 96 q 104 161 106 156 q 100 181 100 167 q 92 238 100 199 z "},"I":{"ha":528,"x_min":24,"x_max":528,"o":"m 524 764 q 517 740 528 746 q 494 733 506 733 q 432 731 482 733 q 368 713 400 724 l 367 713 q 353 639 367 688 q 346 585 353 622 q 342 563 346 574 q 338 528 338 551 q 329 465 328 471 q 329 450 331 460 q 324 421 328 440 q 319 375 319 401 q 313 328 319 349 l 313 313 q 309 242 315 263 q 303 206 303 221 q 296 161 303 192 q 292 89 289 131 l 300 89 q 337 91 335 92 q 356 94 339 90 l 378 93 l 392 93 q 410 83 396 93 q 429 63 424 72 q 435 44 439 53 q 404 14 432 35 l 378 6 q 358 -4 374 1 q 332 -10 343 -10 q 294 -33 300 -17 q 228 -42 289 -44 l 181 -42 l 154 -50 q 93 -57 119 -64 q 58 -47 67 -50 q 36 -33 49 -43 q 26 -9 24 -22 q 35 29 28 4 q 68 54 58 49 q 153 82 135 75 q 150 136 153 128 q 160 196 154 138 q 153 222 161 201 l 153 231 q 151 301 157 269 q 157 350 151 303 q 157 394 164 358 q 167 436 163 421 l 168 456 q 176 506 168 464 l 176 519 l 179 531 q 213 681 204 633 q 199 678 201 678 l 153 671 q 60 694 100 657 q 58 775 25 742 q 122 800 79 793 q 171 818 160 813 q 236 849 185 818 q 296 856 288 856 l 361 864 q 394 862 374 865 q 419 853 415 858 q 464 836 438 849 l 497 806 q 524 764 517 778 z "},"J":{"ha":572,"x_min":32,"x_max":536,"o":"m 306 626 q 304 715 313 647 q 292 781 304 738 q 192 765 197 765 q 124 758 143 758 q 100 760 106 758 q 89 784 89 763 q 100 823 89 806 q 121 844 111 840 q 182 871 142 857 q 250 893 182 874 q 360 921 293 913 q 368 922 365 922 l 392 926 l 432 926 l 464 917 q 521 876 482 911 l 524 868 q 535 857 535 860 q 536 849 535 854 q 517 807 536 814 q 486 808 511 806 q 426 806 439 814 q 431 782 426 792 q 447 708 435 774 q 459 649 447 699 q 474 539 471 600 q 489 354 489 506 q 490 331 490 346 q 486 289 486 322 q 483 261 483 278 q 479 237 481 251 q 476 214 478 222 q 465 183 472 190 q 453 142 457 175 q 442 122 453 139 q 424 100 432 106 l 413 88 q 385 51 413 79 l 375 40 q 339 4 367 35 q 306 -11 338 -1 q 239 -11 275 -21 q 197 14 219 -8 q 190 14 192 13 q 146 39 179 25 q 113 64 143 36 q 61 117 106 65 q 47 149 60 124 q 41 172 47 150 q 32 233 35 193 l 32 243 q 49 293 32 251 q 118 294 76 325 q 133 255 122 272 q 149 222 144 238 q 199 142 158 188 q 240 125 214 126 q 283 158 246 126 q 294 178 289 164 q 309 201 308 197 q 315 221 310 206 q 326 251 315 222 q 332 318 339 274 q 331 328 331 319 q 325 368 326 361 l 325 381 q 324 385 324 382 l 326 413 q 314 457 321 421 q 311 554 300 517 q 308 566 311 556 q 307 586 306 576 l 306 626 z "},"K":{"ha":689,"x_min":49,"x_max":689,"o":"m 258 860 q 330 849 324 851 q 338 844 336 847 q 341 835 339 840 q 342 819 343 829 q 323 756 338 796 q 313 682 308 715 q 289 528 294 613 l 289 510 q 328 579 324 574 q 386 664 344 599 l 429 708 q 437 721 431 710 q 444 738 443 732 q 571 835 528 829 q 626 836 599 840 q 660 803 660 829 q 626 746 660 778 l 550 643 q 531 614 544 628 q 507 588 525 607 q 447 504 493 571 l 415 471 q 396 442 407 463 q 369 388 368 400 q 381 360 371 376 q 432 289 401 339 q 482 222 456 267 l 515 196 q 538 174 525 190 q 605 108 590 121 q 633 88 619 94 q 660 64 638 83 q 686 35 683 44 q 674 8 689 25 q 601 -4 667 8 l 564 -4 q 544 0 558 -1 q 482 11 501 1 l 436 49 l 406 71 q 383 110 401 83 l 374 129 q 347 160 353 150 q 296 231 314 211 l 281 257 q 263 279 275 263 l 256 285 q 250 246 256 261 q 241 221 244 231 q 240 171 238 211 q 236 135 238 160 q 236 107 232 114 q 226 56 235 104 q 224 13 219 40 q 175 -43 221 -35 q 131 -44 153 -44 q 79 -12 115 -42 q 53 24 57 0 q 56 68 49 47 q 58 117 56 81 q 63 158 54 138 q 75 206 75 182 q 71 256 75 231 q 71 318 61 288 l 74 351 q 82 419 74 396 q 103 553 92 524 l 108 574 q 126 633 108 596 q 131 644 131 632 q 144 701 136 689 q 149 756 151 714 q 161 801 149 778 q 181 837 176 833 q 188 842 186 840 q 196 847 189 843 q 204 851 203 850 l 204 850 q 258 860 213 858 z "},"L":{"ha":503,"x_min":56,"x_max":496,"o":"m 226 286 q 225 264 225 281 q 222 235 225 247 q 222 204 219 222 q 246 143 228 179 q 267 121 246 139 q 278 118 272 119 q 289 115 285 117 q 308 116 293 113 q 328 123 324 119 q 349 139 333 126 q 382 165 364 158 q 432 208 408 190 q 461 211 454 213 q 476 200 468 210 q 488 143 496 178 q 446 69 476 104 q 425 51 440 60 q 417 39 422 49 l 390 13 q 379 4 382 13 q 343 -17 376 -4 q 269 -8 301 -17 q 171 29 200 7 l 144 46 q 118 61 142 51 l 100 83 l 79 106 l 65 131 q 60 152 61 136 q 56 179 58 168 q 57 210 57 183 q 60 240 60 222 q 60 269 63 244 l 61 282 l 61 301 q 67 349 61 324 q 78 401 72 374 q 82 433 78 419 q 83 494 78 446 l 83 503 q 85 525 83 517 l 85 535 l 88 619 q 94 656 88 624 q 107 710 94 672 q 115 733 115 724 q 119 761 115 740 q 129 799 126 769 q 136 829 131 799 q 151 867 136 846 q 176 886 154 875 l 178 886 q 219 893 183 889 q 263 882 236 893 q 301 861 269 882 q 292 772 318 842 q 281 735 292 760 q 276 706 281 722 q 259 606 276 693 q 226 286 242 519 z "},"M":{"ha":938,"x_min":85,"x_max":874,"o":"m 414 631 q 425 521 415 607 q 443 335 440 368 l 457 269 l 468 204 q 497 275 499 265 q 521 347 497 285 q 564 453 554 407 q 579 493 565 461 q 586 519 575 497 q 603 569 597 543 q 610 597 610 596 q 613 600 611 599 q 624 625 617 604 q 628 656 628 644 l 628 699 q 635 728 628 703 l 633 760 q 665 846 633 793 l 693 869 q 715 885 693 882 q 753 882 736 888 q 775 876 769 876 q 815 863 781 871 q 837 842 832 857 q 842 800 842 826 l 832 692 q 824 557 832 682 l 825 513 q 824 465 824 510 l 824 393 q 824 367 824 372 l 828 314 q 844 190 822 314 q 859 106 844 171 q 867 -1 874 42 q 826 -42 867 -24 q 789 -24 796 -36 q 774 -12 776 -17 l 763 1 q 726 44 740 19 q 713 72 717 54 q 696 121 699 92 q 685 162 693 150 q 674 185 678 174 q 654 240 658 200 q 646 308 650 279 q 647 333 646 325 q 642 350 643 344 q 640 363 642 356 l 635 336 q 617 282 631 329 l 588 192 l 563 104 q 546 71 556 100 q 531 36 533 39 q 526 28 529 33 q 501 -8 515 6 q 424 -28 464 -43 q 367 28 385 -14 q 351 58 357 51 q 336 97 350 69 q 321 164 326 124 q 311 207 314 176 q 301 243 304 219 q 293 289 299 267 q 283 346 286 313 q 263 438 281 371 q 251 465 258 442 q 249 441 249 443 q 238 372 249 439 q 236 331 240 369 q 226 275 228 304 q 217 163 215 200 q 217 133 221 150 q 212 98 214 115 q 206 67 210 81 l 206 57 q 204 8 201 14 q 192 -29 204 -7 q 156 -46 181 -51 q 104 -29 111 -35 q 89 15 89 -4 l 89 82 l 92 107 q 93 139 90 111 q 92 162 92 140 q 88 194 92 183 l 88 208 q 87 263 85 256 q 86 297 89 271 q 93 319 92 297 q 97 365 94 340 l 107 369 q 106 408 104 371 q 113 458 107 418 q 117 513 118 499 q 132 560 117 528 q 163 671 161 647 q 171 713 165 694 q 197 789 176 758 q 233 825 207 819 l 250 838 l 251 838 q 346 843 278 857 q 410 778 404 817 q 414 643 404 758 l 414 631 z "},"N":{"ha":744,"x_min":56,"x_max":667,"o":"m 503 311 q 502 335 500 318 q 507 379 504 351 q 508 432 507 422 l 507 460 q 508 497 507 482 l 508 538 q 509 579 511 550 q 511 653 507 608 q 518 708 515 699 l 518 736 q 519 765 518 740 l 519 775 q 518 800 521 796 l 531 851 l 536 881 q 557 904 539 886 q 589 908 561 908 q 631 907 617 908 q 649 899 644 906 q 657 874 653 893 q 661 828 665 856 q 663 815 663 819 l 663 801 q 661 744 667 774 q 663 722 661 733 l 663 710 q 658 661 663 682 l 658 626 q 654 592 660 608 q 653 558 654 586 q 647 535 650 549 q 647 506 651 524 q 650 472 643 501 q 651 407 644 454 l 651 379 q 650 292 656 335 l 650 283 q 647 243 650 256 q 647 183 650 219 l 647 175 l 644 142 q 556 29 629 43 q 413 78 465 13 l 404 99 q 364 163 389 101 q 321 265 325 256 q 301 324 301 319 l 299 350 q 293 361 297 353 q 286 378 289 369 q 276 419 286 388 q 269 454 276 422 l 253 578 q 251 592 253 582 l 246 561 q 232 449 236 468 l 225 308 l 225 253 l 221 185 q 225 89 221 133 q 210 35 224 49 q 168 21 196 22 q 115 42 149 26 q 102 65 106 47 q 86 94 99 82 q 72 122 74 107 l 56 228 q 58 274 56 250 q 58 325 60 299 q 65 386 56 351 q 72 445 74 421 q 75 508 71 469 q 79 563 79 546 q 83 590 79 581 q 86 625 83 613 q 94 667 85 629 q 99 696 94 676 q 107 749 103 715 q 122 803 111 782 q 157 850 133 824 q 179 886 169 857 q 215 913 189 900 q 241 919 225 919 q 271 910 257 919 q 338 836 325 889 l 343 801 q 356 764 343 793 q 361 724 356 750 q 371 683 361 704 q 392 585 385 613 q 403 558 399 575 q 414 521 406 546 q 426 467 417 497 q 497 257 483 281 q 500 292 500 263 l 503 311 z "},"O":{"ha":678,"x_min":42,"x_max":625,"o":"m 225 315 l 229 190 q 294 79 251 111 q 326 64 301 72 l 361 56 q 376 61 368 56 q 390 68 386 64 q 410 90 400 81 q 418 100 419 100 q 422 118 424 106 q 433 136 426 122 q 464 236 449 214 q 469 314 469 297 q 439 457 469 372 q 422 581 422 476 q 413 619 414 601 q 403 656 411 636 q 392 683 396 676 q 387 697 388 690 q 381 713 386 703 q 313 676 358 746 l 289 635 q 275 583 289 632 q 253 497 253 506 q 238 439 254 488 q 237 419 236 435 q 231 377 238 404 q 225 315 225 350 m 67 417 l 76 519 q 83 544 76 528 q 90 565 89 561 q 93 575 90 568 q 114 640 93 613 q 163 750 146 714 q 199 810 179 786 q 228 832 200 817 q 335 863 285 863 q 431 847 385 863 q 472 826 446 844 q 501 807 497 808 q 551 748 525 793 q 578 682 576 703 q 595 616 581 661 q 610 549 610 571 q 617 485 610 528 q 624 415 625 442 q 574 132 615 219 q 542 54 565 71 l 539 35 q 523 -3 538 18 q 486 -35 508 -24 q 431 -47 482 -39 q 333 -61 357 -61 q 256 -58 303 -71 q 203 -44 210 -44 q 173 -28 196 -43 q 143 -6 150 -14 q 117 21 121 11 l 97 60 q 72 112 79 78 q 58 156 65 146 q 46 188 51 171 q 47 222 47 197 l 47 236 q 50 276 42 257 q 52 301 51 286 q 56 343 53 315 l 56 361 q 67 417 68 403 z "},"P":{"ha":647,"x_min":-11,"x_max":651,"o":"m 428 749 q 288 769 392 769 l 296 683 q 315 403 307 608 q 332 410 328 406 q 356 418 343 418 q 390 443 374 422 q 454 501 432 478 l 500 554 q 514 585 504 556 q 526 635 524 615 q 518 681 526 675 q 501 715 518 683 q 468 736 496 719 l 428 749 m 140 908 l 218 919 l 318 926 l 371 919 q 397 913 376 914 q 506 867 438 914 q 533 847 522 861 l 586 783 q 594 769 589 781 q 610 742 600 757 q 614 731 607 742 q 631 694 632 700 q 644 658 638 689 q 649 617 651 628 q 646 585 650 615 q 611 486 636 518 l 593 453 l 563 408 l 544 392 q 422 306 494 336 q 414 303 419 304 l 381 292 l 326 278 q 336 92 326 238 q 344 36 342 42 q 339 -26 344 -10 q 321 -49 333 -42 q 278 -58 308 -57 q 249 -53 269 -61 q 215 -31 228 -46 l 207 14 q 199 40 210 17 q 183 79 189 51 l 174 211 l 172 256 q 75 300 92 250 q 69 335 61 326 l 76 353 q 140 379 93 379 l 169 379 q 167 399 167 382 l 161 457 l 161 482 l 160 500 q 158 528 161 513 l 158 536 l 156 571 l 156 597 l 154 611 q 143 736 154 710 q 82 708 97 710 q 31 728 67 706 q 14 756 15 740 q -3 813 -11 790 q 19 847 0 824 q 53 872 21 853 q 140 908 78 897 z "},"Q":{"ha":674,"x_min":50,"x_max":717,"o":"m 282 499 q 245 317 261 371 q 225 206 229 263 q 257 76 225 115 q 285 57 263 67 q 313 60 297 57 l 290 86 q 313 153 265 114 q 358 159 325 163 q 424 117 390 156 q 426 114 424 114 l 451 163 q 463 199 457 165 q 476 257 469 233 q 479 285 476 268 l 479 299 q 472 340 482 325 q 467 465 465 406 l 464 499 q 454 579 457 506 l 439 642 q 422 722 439 649 q 394 724 417 732 q 353 697 371 715 q 333 653 338 664 q 317 619 329 643 q 300 560 304 594 q 282 499 292 525 m 596 665 q 613 453 621 486 q 608 425 608 447 l 607 410 l 607 367 q 604 353 604 364 l 601 322 l 599 313 l 601 308 l 600 303 q 597 292 600 300 q 592 244 594 283 l 574 167 q 565 138 574 164 q 551 106 556 113 q 526 67 551 94 l 493 22 q 574 -53 507 7 q 601 -69 578 -58 q 684 -103 663 -99 q 711 -115 706 -107 q 715 -130 717 -124 q 707 -149 714 -136 q 692 -177 708 -161 q 661 -193 676 -193 q 585 -178 617 -189 q 549 -161 553 -167 q 390 -43 489 -132 q 288 -56 328 -67 q 253 -50 282 -57 q 174 -31 249 -50 l 144 -18 q 114 0 133 -15 q 85 30 103 13 q 61 61 67 47 q 53 135 50 92 q 57 187 57 178 q 56 215 57 196 q 57 243 54 233 q 57 292 60 251 q 58 321 58 294 q 72 490 69 481 q 94 574 89 547 q 113 646 94 597 q 160 750 119 674 q 178 775 167 753 q 194 803 185 782 l 217 828 q 236 839 218 831 q 276 854 258 850 q 350 858 293 858 q 392 864 371 856 l 436 864 q 518 843 467 861 q 553 814 540 828 q 569 776 565 800 q 593 692 569 757 q 596 665 596 683 z "},"R":{"ha":685,"x_min":42,"x_max":681,"o":"m 276 663 q 258 489 276 597 q 283 513 267 496 q 361 569 303 532 l 382 585 l 424 606 l 469 636 q 476 650 467 639 q 507 731 503 696 q 501 758 507 749 q 467 769 496 767 q 440 776 464 772 q 365 769 383 776 q 336 763 346 763 l 315 757 l 292 756 l 286 718 q 281 690 286 717 q 276 663 281 681 m 513 49 q 454 89 492 56 q 418 122 447 99 q 349 188 390 139 q 339 210 349 189 q 307 271 322 225 q 303 276 306 272 q 294 290 300 281 q 281 321 288 299 q 253 369 274 343 l 247 369 q 243 346 247 361 l 243 318 l 235 238 l 214 103 q 214 65 219 92 q 207 29 214 54 q 186 -4 200 4 q 132 -7 172 -12 q 93 32 118 -1 q 65 76 83 36 q 67 108 68 101 q 65 124 65 114 q 67 136 65 133 q 67 164 64 133 l 67 174 q 75 218 67 179 q 76 259 75 247 q 85 288 76 271 l 85 325 l 86 363 q 94 421 94 388 q 98 453 97 438 q 103 489 99 469 q 107 535 103 519 q 112 558 111 551 q 114 578 113 564 l 124 638 l 128 725 l 111 736 q 49 772 67 754 q 44 794 42 776 q 63 822 46 811 q 119 846 82 822 q 144 860 124 846 l 169 868 q 204 883 174 872 q 226 891 211 883 q 258 900 242 899 q 315 908 272 901 q 386 906 357 914 q 425 899 404 906 q 500 876 458 899 q 528 864 510 876 l 554 851 l 589 824 q 642 764 618 800 q 654 721 658 747 q 486 481 635 600 l 446 463 l 378 419 q 468 306 413 371 q 500 267 472 296 l 547 208 l 564 183 l 601 142 q 625 118 606 132 l 649 96 q 675 39 681 71 q 636 6 669 7 l 603 8 l 536 26 l 513 49 z "},"S":{"ha":600,"x_min":31,"x_max":560,"o":"m 361 -37 q 301 -47 351 -47 q 219 -36 267 -54 l 190 -26 l 147 -6 q 140 -6 142 -6 q 133 -3 139 -7 q 114 8 125 4 q 75 43 86 28 q 31 161 31 114 q 44 182 31 167 q 114 215 72 215 q 140 204 131 214 l 186 144 q 211 122 197 133 l 229 103 l 257 79 q 268 76 263 76 q 299 69 274 74 q 346 85 326 76 q 368 104 358 97 l 388 126 q 397 149 390 129 q 398 173 397 167 q 393 207 399 179 q 374 229 392 211 q 350 265 365 246 q 269 310 342 274 l 243 325 l 218 347 q 167 385 200 353 q 146 400 153 394 q 100 447 138 403 q 76 500 100 450 l 64 554 l 69 590 q 64 644 61 626 q 78 678 69 653 q 115 760 74 699 q 176 826 115 768 l 224 851 l 246 861 q 280 865 258 863 q 344 865 301 868 q 399 854 388 863 q 454 817 408 850 q 521 719 515 763 q 524 568 544 649 q 485 546 524 563 l 450 547 q 365 593 406 553 q 349 632 354 600 q 335 672 347 665 q 324 697 333 674 q 292 728 300 728 q 275 724 285 728 q 222 633 225 683 q 247 535 213 593 q 267 513 263 513 q 299 478 275 499 l 318 457 l 376 414 l 400 390 l 426 374 q 469 347 449 364 q 538 269 497 326 q 560 194 546 257 l 560 140 l 553 108 q 538 81 546 101 q 522 43 538 79 q 489 14 518 36 q 396 -36 447 -19 q 361 -37 385 -39 z "},"T":{"ha":663,"x_min":25,"x_max":703,"o":"m 456 751 q 453 700 453 726 q 447 610 453 650 q 440 555 442 569 q 436 526 439 540 l 436 517 q 425 467 436 492 l 421 404 l 415 272 l 415 203 q 410 146 415 150 l 411 110 l 411 94 l 410 78 q 407 72 410 72 q 394 37 410 56 q 354 13 378 18 l 329 8 q 314 8 324 8 q 297 10 304 7 q 283 17 290 13 q 264 49 269 25 q 247 133 260 56 q 244 175 247 150 l 249 208 l 249 235 q 254 269 249 260 q 261 306 249 278 q 263 361 251 318 q 263 385 257 379 q 265 424 265 393 l 267 438 q 275 511 267 478 q 275 533 272 515 q 279 576 278 551 l 279 586 q 281 631 281 607 l 282 643 q 285 676 282 651 q 292 729 289 701 l 289 729 q 108 689 142 689 l 85 688 q 42 694 64 688 q 25 724 31 700 q 45 790 25 769 q 121 829 65 811 q 293 888 135 831 l 353 901 q 406 907 369 907 q 466 916 442 907 q 519 930 490 925 q 581 940 549 935 q 636 938 596 946 q 685 906 651 938 l 693 886 q 697 874 693 878 q 681 825 703 836 q 651 814 672 821 q 513 786 624 814 q 457 778 507 786 l 456 760 l 456 751 z "},"U":{"ha":706,"x_min":68,"x_max":667,"o":"m 90 118 q 80 144 85 124 q 76 183 75 165 q 72 231 76 201 q 74 262 74 236 q 71 313 74 288 q 69 355 68 339 q 68 390 69 371 q 74 424 69 400 q 72 459 72 425 q 78 514 72 493 q 85 599 78 553 l 85 622 q 97 707 94 682 q 106 757 99 738 q 118 835 100 775 q 156 861 124 849 l 154 860 q 189 864 163 865 q 224 858 215 863 q 257 847 233 854 q 274 693 289 839 q 265 624 274 679 q 261 567 265 596 l 261 540 l 258 506 q 258 482 258 493 q 256 448 257 471 q 252 413 256 425 q 249 396 249 400 q 243 372 244 392 q 235 315 242 349 q 240 169 228 303 q 260 115 243 128 q 306 122 276 101 q 315 133 314 131 l 321 154 q 336 182 326 154 l 351 210 l 356 226 q 367 258 356 238 q 382 285 379 278 l 403 354 l 411 389 q 422 419 411 397 q 429 456 422 426 q 428 493 429 482 q 430 501 429 493 q 437 528 431 510 q 443 575 443 547 q 456 603 443 579 q 482 699 456 639 q 482 701 481 697 q 484 710 483 707 q 486 718 485 714 q 488 726 488 722 q 489 747 483 735 q 499 774 494 760 q 508 801 503 788 l 542 824 q 560 826 549 824 q 615 825 572 828 q 642 794 632 819 q 646 725 657 771 q 635 657 646 715 q 626 611 635 647 q 615 547 618 575 q 607 508 611 518 q 606 476 604 489 l 597 417 q 593 350 597 394 q 584 281 589 306 q 597 185 579 257 l 614 94 q 621 59 614 74 q 628 44 628 44 l 628 38 q 601 -51 667 -39 q 563 -63 569 -60 q 533 -60 556 -67 q 490 -35 510 -54 q 475 15 485 -26 q 465 64 471 24 q 456 96 461 68 q 450 114 458 101 q 436 89 440 94 q 424 67 426 74 q 414 39 422 61 l 389 -6 q 317 -54 360 -60 q 289 -51 315 -53 q 250 -42 283 -46 q 236 -40 244 -40 q 214 -37 228 -39 q 193 -22 211 -33 q 136 19 151 -7 q 118 39 124 22 q 100 78 115 47 l 90 118 z "},"V":{"ha":658,"x_min":15,"x_max":668,"o":"m 240 636 l 253 569 l 253 538 q 271 461 265 500 q 296 314 293 333 q 302 278 299 294 q 303 258 306 261 q 305 240 304 247 q 308 227 306 232 q 312 221 310 222 q 317 222 314 219 q 340 279 325 228 q 363 343 357 314 q 375 396 365 360 q 393 451 385 425 q 407 502 403 475 q 412 533 411 529 q 417 546 413 536 q 431 608 431 586 q 436 654 431 629 q 456 747 436 689 q 464 781 456 750 q 485 839 472 813 q 565 918 507 897 q 617 925 589 925 q 656 918 646 925 q 668 888 667 911 q 664 861 665 879 l 621 728 l 603 682 l 586 649 q 579 632 586 646 l 565 586 q 558 558 563 565 l 535 481 q 525 447 529 475 q 506 394 514 410 q 496 356 496 367 q 489 324 496 344 q 480 302 482 304 q 474 283 478 300 q 469 250 469 267 q 464 225 464 247 q 453 174 456 207 q 444 138 446 161 q 408 55 431 85 q 344 18 386 25 q 286 18 303 8 q 268 21 281 17 q 258 24 261 21 q 228 36 249 24 q 201 55 213 42 q 175 86 189 68 q 158 114 172 93 q 147 157 154 150 q 144 167 144 164 l 136 200 q 139 194 138 199 q 138 261 136 235 q 138 303 132 275 q 133 342 138 325 q 117 396 118 381 q 113 444 117 411 q 110 507 113 481 l 86 640 q 79 692 78 685 q 80 702 81 700 q 78 711 79 704 q 76 729 78 718 q 65 765 67 751 q 85 901 15 888 q 122 904 93 904 q 158 902 150 904 q 179 892 167 900 q 225 736 211 872 q 238 655 236 664 q 240 636 240 646 z "},"W":{"ha":917,"x_min":67,"x_max":857,"o":"m 614 835 q 611 750 619 801 q 608 719 611 735 q 599 664 599 678 q 590 581 599 644 q 588 435 588 533 q 599 265 588 336 q 620 192 610 194 q 640 208 631 190 q 649 244 639 215 q 676 375 661 318 q 693 449 692 432 q 701 501 694 458 q 717 594 714 546 l 717 606 q 722 711 722 681 q 721 763 722 742 l 722 814 q 735 844 724 832 q 745 849 736 844 q 763 856 754 853 q 793 855 772 860 q 821 845 814 850 q 832 833 828 840 q 839 822 836 826 q 844 806 842 817 q 853 714 849 782 q 856 625 857 646 q 854 574 854 604 l 853 554 q 846 455 853 536 q 833 354 839 374 q 831 324 831 329 l 826 300 q 825 292 826 296 q 817 259 824 288 q 808 228 810 231 l 801 197 q 767 125 774 133 q 739 88 767 118 l 717 58 l 706 50 q 585 42 651 -4 l 550 67 q 528 92 542 79 q 515 108 526 96 q 496 133 504 119 q 488 151 488 146 q 475 182 488 156 q 460 213 467 193 q 449 243 457 215 q 440 279 443 253 l 424 215 q 414 182 424 204 l 406 154 q 342 8 350 21 q 300 -31 317 -22 q 250 -36 283 -40 q 164 -17 224 -35 l 142 7 q 125 40 128 21 q 106 85 111 72 q 96 132 101 97 l 96 167 q 92 224 93 171 q 89 250 89 246 l 90 260 q 79 336 82 268 l 78 346 q 76 360 78 350 q 71 407 75 369 l 67 479 q 67 515 69 493 l 67 542 q 78 654 67 621 l 83 682 q 86 697 83 688 q 96 734 90 715 q 104 776 101 753 q 114 809 107 799 q 136 835 121 819 q 163 854 151 850 q 194 858 188 858 q 246 856 210 864 q 279 844 257 856 q 294 817 293 835 q 290 751 297 797 q 279 700 283 704 q 281 665 286 693 q 277 594 281 631 q 274 547 274 557 l 274 531 q 272 499 272 518 q 268 429 268 476 q 267 388 265 397 l 264 360 l 264 340 q 265 317 264 324 q 265 233 263 285 q 272 182 267 182 l 318 260 q 339 325 324 272 l 389 419 q 407 469 404 464 l 417 493 q 427 511 424 496 q 437 549 431 526 q 444 613 443 571 q 457 678 446 656 q 472 779 457 707 q 475 813 475 801 q 504 865 489 850 q 562 870 519 879 q 614 835 604 861 z "},"X":{"ha":704,"x_min":21,"x_max":710,"o":"m 221 108 q 218 99 218 103 q 215 90 218 94 q 211 82 213 85 q 146 15 169 26 q 92 14 122 3 q 49 61 76 19 q 60 174 21 115 q 79 216 68 197 q 101 263 90 235 l 118 292 q 135 335 129 325 q 154 361 142 346 q 175 389 167 376 q 251 492 201 438 q 214 581 222 554 l 197 615 q 176 647 185 625 q 115 754 118 746 q 99 785 113 763 q 69 863 69 832 q 85 908 69 893 q 131 921 101 924 q 147 922 135 921 q 165 922 160 922 q 180 917 169 921 q 197 906 190 914 q 233 849 217 886 l 251 821 l 279 768 l 296 729 q 354 628 332 676 q 377 662 360 638 q 396 689 394 686 q 421 726 399 694 l 450 753 q 461 774 451 754 l 488 810 q 506 824 493 813 q 553 893 508 835 q 599 912 576 910 q 640 910 621 914 q 689 883 658 906 q 689 803 710 857 q 644 738 661 754 l 604 667 l 551 585 q 435 449 528 554 q 499 335 444 431 l 525 282 q 546 249 538 265 l 588 149 q 606 117 601 128 q 624 78 608 108 q 582 8 638 26 q 549 6 560 0 q 536 12 539 11 q 531 13 533 13 q 528 15 529 14 q 525 15 526 15 q 483 43 499 22 l 474 54 l 461 75 q 436 108 442 94 l 426 128 q 389 210 414 138 q 340 325 388 211 q 325 294 339 322 l 288 222 q 263 182 283 210 q 221 108 263 171 z "},"Y":{"ha":635,"x_min":29,"x_max":581,"o":"m 368 433 q 369 465 368 453 q 380 551 376 533 q 383 574 383 569 l 383 633 q 392 701 388 639 q 397 800 392 768 q 411 839 397 821 q 454 882 429 869 l 456 882 q 498 881 476 888 q 522 873 519 874 q 530 870 525 872 q 537 867 535 868 q 542 865 539 867 q 548 860 546 863 q 553 856 550 858 q 557 851 556 854 q 576 668 571 824 q 581 588 581 643 q 579 514 581 533 l 579 500 q 576 463 576 475 l 576 453 q 572 413 576 426 q 565 353 572 381 q 559 317 565 342 q 553 278 553 293 q 540 219 554 271 q 531 176 543 214 q 521 141 531 161 q 504 102 511 121 q 496 81 497 83 q 451 -12 488 38 l 429 -35 q 422 -47 432 -37 q 339 -97 414 -57 q 310 -106 338 -99 q 249 -112 283 -112 q 182 -101 214 -112 q 147 -87 163 -97 q 128 -74 140 -81 q 88 -49 121 -74 q 51 3 82 -44 q 41 27 42 25 q 37 36 40 29 q 32 68 33 43 q 69 124 29 124 q 147 82 111 124 q 161 67 158 71 q 174 54 164 64 q 191 42 185 44 q 208 35 197 39 q 228 31 218 31 q 253 37 238 31 q 275 53 269 43 q 291 89 275 67 q 308 114 307 111 q 317 142 313 133 q 331 204 325 165 q 325 239 333 207 q 302 252 325 244 q 263 261 279 260 q 192 289 235 256 q 169 310 174 303 q 162 321 165 318 q 156 331 158 324 q 126 393 126 379 l 121 407 q 110 432 121 421 q 106 482 110 435 q 96 547 96 518 l 96 569 l 97 599 q 99 643 94 610 l 99 696 l 100 717 l 100 746 q 101 760 101 747 l 103 774 q 104 796 103 788 q 165 864 104 854 q 229 854 213 868 q 257 739 261 826 q 254 697 257 714 q 258 651 263 671 q 261 632 261 642 l 261 611 q 266 560 261 606 q 276 497 271 514 q 282 463 276 479 q 297 421 282 451 q 344 363 310 358 q 367 410 358 365 q 368 433 371 414 z "},"Z":{"ha":689,"x_min":7,"x_max":708,"o":"m 267 499 q 297 546 268 499 q 313 564 301 546 q 325 589 325 576 l 347 619 q 364 644 347 625 q 413 721 382 679 q 435 755 429 746 q 445 769 442 764 q 453 779 449 775 l 442 779 l 414 776 q 397 774 408 776 q 265 746 289 744 q 226 739 242 747 q 168 732 203 739 q 88 758 110 732 l 74 776 l 54 814 q 56 863 50 829 q 80 885 61 876 q 125 894 99 894 q 231 899 168 894 q 368 906 293 903 q 606 931 450 906 q 640 919 619 932 q 672 892 661 907 q 692 856 681 871 q 667 767 708 815 l 633 738 q 615 710 632 738 q 493 543 503 553 q 478 519 490 538 q 461 490 467 500 l 414 433 q 401 404 414 426 l 393 399 l 351 342 l 313 285 l 288 253 l 271 225 q 255 193 271 217 q 228 151 239 169 q 208 117 218 132 l 243 122 l 307 139 q 357 151 326 139 q 381 153 371 151 q 407 157 383 156 q 444 165 411 160 q 486 171 478 171 q 550 178 504 171 q 600 169 589 181 q 611 86 632 138 q 600 78 611 83 q 504 47 519 51 q 444 29 468 40 q 428 24 439 29 q 365 3 404 13 q 269 -26 283 -21 q 212 -42 254 -31 q 142 -57 169 -54 q 72 -31 114 -60 q 58 -18 61 -24 l 42 7 q 38 103 7 56 q 44 117 38 106 l 79 199 l 85 225 q 100 249 85 231 q 114 274 106 261 q 122 288 122 286 q 157 329 140 315 l 175 357 l 193 379 q 231 431 193 390 q 254 465 233 438 l 267 499 z "},"[":{"ha":393,"x_min":99,"x_max":513,"o":"m 133 743 q 142 810 133 751 l 142 825 l 143 868 q 147 896 143 889 l 147 897 q 143 943 143 901 q 147 974 147 950 q 190 983 167 983 q 235 988 214 983 q 306 993 257 993 l 429 986 l 446 983 q 493 969 474 983 q 512 945 513 954 q 510 928 511 936 q 508 917 510 919 q 485 904 504 907 l 469 900 q 438 894 454 900 q 411 889 422 894 q 372 883 400 883 l 351 881 q 288 875 329 874 q 276 869 285 872 l 272 844 l 260 728 l 249 539 l 242 501 q 243 481 242 483 l 243 456 l 239 406 q 240 385 240 403 q 238 361 240 367 l 235 256 q 237 203 235 215 q 239 183 239 192 l 239 151 l 242 99 l 242 78 q 244 38 244 53 l 251 -35 q 257 -106 260 -87 q 306 -104 272 -104 l 429 -111 l 446 -114 q 493 -128 474 -114 q 512 -152 513 -143 q 510 -169 511 -161 q 508 -181 510 -178 q 485 -193 504 -190 l 469 -197 q 438 -203 454 -197 q 411 -208 422 -203 q 372 -214 400 -214 l 351 -217 q 288 -222 329 -224 q 265 -229 279 -231 q 247 -231 251 -228 q 199 -239 235 -239 q 161 -219 189 -239 l 147 -200 q 143 -154 143 -196 q 147 -135 147 -147 q 149 -122 147 -122 l 142 -122 q 126 -92 132 -111 q 118 -65 115 -86 l 108 -26 q 106 4 108 -10 l 107 15 q 103 28 103 19 l 100 53 l 100 64 q 99 79 100 75 q 103 93 99 83 q 103 147 99 99 q 108 364 108 319 l 110 397 l 110 438 q 111 522 111 471 q 114 578 111 574 l 114 610 l 133 743 z "},"\\":{"ha":388,"x_min":-15,"x_max":435,"o":"m 428 -143 l 435 -171 q 412 -237 435 -212 q 369 -262 389 -262 q 317 -219 338 -262 q 293 -131 297 -175 l 289 -87 q 283 -66 289 -86 q 276 -35 276 -46 q 242 120 243 106 q 233 157 240 135 q 222 191 226 179 q 217 204 217 203 q 169 333 207 210 q 146 394 169 343 q 92 548 97 536 q 83 575 88 560 q 14 751 82 578 q -15 826 -15 803 l 1 861 q 31 874 11 874 q 76 856 51 874 l 108 833 q 117 818 111 831 q 125 804 124 806 q 168 675 156 703 q 222 557 188 633 q 344 206 300 351 q 406 10 388 61 q 431 -115 431 -103 l 428 -143 z "},"]":{"ha":418,"x_min":-65,"x_max":349,"o":"m 314 25 q 306 -42 314 17 l 306 -57 l 304 -100 q 300 -128 304 -122 l 299 -128 q 304 -175 304 -133 q 300 -206 300 -181 q 257 -215 281 -215 q 212 -220 233 -215 q 142 -225 190 -225 l 18 -218 l 1 -215 q -46 -201 -26 -215 q -65 -177 -65 -186 q -63 -160 -64 -168 q -61 -147 -62 -151 q -37 -136 -57 -139 l -22 -132 q 10 -126 -7 -132 q 36 -121 25 -126 q 75 -115 47 -115 l 96 -112 q 160 -107 118 -106 q 169 -101 161 -104 l 175 -76 l 188 40 l 199 229 l 206 267 q 204 288 206 285 l 204 313 l 208 363 q 207 383 207 365 q 210 407 207 401 l 213 511 q 208 574 213 553 l 208 617 l 206 669 l 206 690 q 203 731 203 715 l 196 803 l 190 840 q 190 874 186 857 q 142 872 175 872 l 18 879 l 1 882 q -46 897 -26 882 q -65 920 -65 911 q -63 938 -64 929 q -61 950 -62 946 q -37 961 -57 958 l -22 965 q 10 971 -7 965 q 36 976 25 971 q 75 982 47 982 l 96 985 q 160 990 118 992 q 182 997 168 999 q 200 999 196 996 q 249 1007 213 1007 q 286 988 258 1007 l 300 968 q 304 922 304 964 q 300 892 300 917 l 299 890 l 306 890 q 321 860 315 879 q 329 833 332 854 l 339 794 q 342 764 339 778 l 340 753 q 344 740 344 749 l 347 715 l 347 704 q 348 689 347 693 q 344 675 349 685 q 344 621 349 669 q 339 404 339 449 l 338 371 l 338 331 q 336 246 336 297 q 333 190 336 194 l 333 158 l 314 25 z "},"^":{"ha":669,"x_min":93,"x_max":565,"o":"m 565 611 q 557 593 565 601 q 552 567 560 590 q 544 539 544 543 q 499 501 535 528 q 489 483 489 489 q 472 480 479 476 q 460 504 465 483 q 450 525 450 524 q 429 551 433 549 q 392 638 385 625 q 378 647 383 644 q 357 674 365 657 q 345 707 361 675 q 322 744 329 739 q 310 782 314 781 q 296 772 306 783 q 275 729 286 760 q 251 696 271 726 q 238 667 249 683 q 222 640 226 650 q 210 621 217 631 q 189 590 213 604 q 171 558 182 569 l 149 551 l 125 551 l 93 553 q 94 576 93 558 l 107 614 q 128 640 128 631 q 149 675 128 664 q 161 707 161 704 q 178 731 156 714 q 181 740 179 732 q 188 756 183 749 q 207 784 192 764 q 226 813 222 804 q 253 839 253 835 q 286 888 254 856 q 342 940 318 921 q 386 949 365 958 l 400 931 q 403 925 400 929 q 401 910 410 918 q 407 904 403 907 q 421 893 415 899 q 444 856 435 864 q 447 846 447 851 q 444 833 447 840 q 465 814 444 821 q 467 790 476 796 q 478 775 467 789 q 493 746 489 761 q 517 715 513 731 q 524 697 521 700 q 531 685 526 694 q 533 674 535 675 q 550 657 547 661 q 563 638 557 640 q 565 611 554 625 z "},"_":{"ha":889,"x_min":57,"x_max":828,"o":"m 64 -76 q 122 -65 90 -65 q 171 -62 153 -65 l 172 -62 q 272 -54 217 -54 l 717 -62 l 740 -65 q 802 -85 776 -65 q 827 -115 828 -104 q 825 -137 826 -125 q 822 -156 824 -150 q 792 -174 818 -168 l 769 -178 q 728 -183 744 -178 l 485 -196 q 360 -210 436 -206 q 254 -212 285 -214 q 219 -219 238 -219 q 197 -222 201 -218 q 132 -231 183 -231 q 83 -207 119 -231 l 64 -181 q 63 -158 61 -178 q 57 -115 57 -149 q 64 -76 64 -106 z "},"`":{"ha":435,"x_min":76,"x_max":357,"o":"m 149 913 l 171 914 q 279 836 236 892 q 301 800 301 804 q 349 729 342 751 q 340 677 357 694 q 304 660 322 660 q 222 725 250 668 q 178 769 207 739 q 133 811 151 797 q 106 835 107 831 q 88 858 76 844 q 149 913 117 897 z "},"a":{"ha":599,"x_min":61,"x_max":600,"o":"m 331 399 q 317 445 329 429 q 271 464 304 461 q 245 417 261 457 q 225 333 229 378 q 211 200 211 267 q 233 100 213 132 q 239 96 236 94 q 261 124 246 96 q 331 399 335 257 m 374 133 l 353 79 q 313 19 353 76 q 266 -10 300 -7 q 200 -3 232 -12 q 135 33 157 13 q 91 103 113 54 q 68 185 69 153 q 61 243 61 231 l 61 276 q 65 335 61 326 q 72 364 67 340 q 106 475 79 422 q 211 579 157 576 l 218 579 q 226 578 221 578 l 244 578 q 304 569 293 574 q 340 564 325 564 l 376 557 q 420 550 393 558 q 449 538 447 542 q 457 507 451 533 q 465 469 463 481 q 468 444 467 457 q 504 256 479 343 q 507 243 506 251 q 517 210 508 235 q 529 169 525 186 q 544 125 533 153 q 569 76 553 104 q 538 10 600 33 q 508 7 529 7 q 482 21 504 7 q 456 36 468 21 l 444 39 q 428 49 435 49 q 378 161 425 51 q 374 133 374 146 z "},"b":{"ha":600,"x_min":64,"x_max":547,"o":"m 378 436 l 374 438 q 378 436 376 436 m 203 81 l 203 68 q 236 25 235 25 q 268 33 243 25 q 283 47 269 33 q 301 64 296 60 q 324 76 318 74 q 333 99 324 88 q 351 123 343 111 q 361 140 358 135 q 367 151 369 151 q 375 175 369 157 l 389 207 l 404 276 q 397 338 407 286 l 397 350 q 394 358 394 354 l 394 360 l 393 374 q 389 397 393 381 q 372 438 386 410 l 357 438 q 319 411 332 425 q 281 342 304 392 q 249 251 257 292 l 240 218 q 217 132 222 181 l 210 113 l 203 81 m 519 479 q 547 379 547 419 q 533 257 547 299 q 531 233 533 242 q 499 97 518 142 q 483 67 492 88 q 442 13 475 43 q 421 -13 442 8 q 356 -49 400 -35 q 289 -65 304 -65 q 174 -42 210 -78 l 172 -43 q 106 -72 144 -92 q 78 -56 82 -60 q 74 -37 75 -51 q 67 21 64 -12 l 74 67 q 72 108 69 90 l 72 118 q 76 224 75 146 q 81 320 78 303 q 85 353 85 338 q 103 556 101 543 q 106 646 106 569 l 106 722 q 105 756 106 744 q 110 771 104 767 q 106 843 99 803 l 106 860 q 117 910 103 886 q 156 933 126 922 q 204 946 185 944 l 211 946 q 243 936 229 946 q 260 903 260 929 q 260 885 263 894 q 247 688 261 875 q 232 484 232 501 q 231 462 232 467 q 231 456 231 457 q 239 465 238 458 q 244 475 240 472 q 268 499 268 492 q 275 506 268 500 q 283 511 282 511 q 293 517 286 515 l 318 529 q 358 537 319 538 q 406 531 397 536 q 424 522 419 524 q 434 519 429 519 q 472 507 439 518 q 488 503 488 507 q 496 500 493 500 q 519 479 519 486 z "},"c":{"ha":500,"x_min":54,"x_max":433,"o":"m 99 464 q 117 494 99 482 q 117 497 117 496 q 138 532 117 507 q 163 563 160 557 q 203 583 193 581 q 218 581 214 581 l 221 581 q 313 578 261 590 q 386 533 365 565 q 408 478 397 513 q 425 407 425 429 q 426 340 433 371 l 425 326 q 418 315 425 321 q 402 310 411 310 q 386 303 393 311 q 358 296 379 296 q 335 308 336 296 q 322 318 331 310 q 313 331 313 326 l 306 340 q 300 349 306 343 q 290 388 288 374 q 294 426 297 424 q 281 468 294 447 q 276 470 279 469 q 267 472 272 471 q 261 482 264 482 q 240 467 251 479 q 217 394 221 413 l 208 310 l 208 246 q 219 185 211 196 q 225 165 219 179 q 254 101 226 147 l 261 93 q 285 74 268 74 q 332 113 301 74 q 350 146 331 117 q 411 167 369 172 q 429 146 429 164 q 421 83 431 133 q 407 56 407 69 q 397 28 397 31 q 389 24 393 28 l 382 10 q 375 4 376 10 q 354 -14 360 -14 q 332 -18 350 -18 q 293 -29 306 -29 l 269 -31 l 254 -25 l 242 -24 q 216 -17 225 -17 q 203 -16 207 -18 q 192 -8 199 -14 q 170 6 175 6 q 154 14 165 6 q 136 24 143 17 l 131 38 q 128 49 133 47 q 107 56 110 49 l 99 67 q 88 96 99 78 l 71 146 q 71 156 68 149 l 71 181 l 54 289 l 54 308 q 67 356 67 354 q 81 410 65 386 q 99 464 81 436 z "},"d":{"ha":606,"x_min":67,"x_max":536,"o":"m 346 353 l 343 374 q 338 388 339 379 q 333 417 338 397 q 321 461 333 442 q 288 468 317 472 q 242 358 268 449 q 238 347 242 357 q 226 306 232 335 q 219 274 221 278 q 217 258 217 265 q 214 240 214 253 l 208 214 q 206 193 203 206 l 206 174 q 204 150 207 169 l 204 131 l 207 83 q 235 29 207 67 q 249 31 246 26 q 279 88 276 58 l 283 106 q 294 147 290 113 l 301 171 q 307 197 301 183 q 314 218 313 211 q 332 274 314 229 q 331 282 331 278 l 331 292 q 346 353 346 351 m 522 801 q 517 742 522 753 l 507 651 l 507 604 q 506 533 506 581 q 508 455 506 486 q 504 403 510 424 q 507 393 507 400 l 508 382 l 507 350 l 507 292 q 508 239 508 276 q 511 188 511 207 q 515 149 511 168 l 515 131 l 521 74 l 521 26 q 524 8 524 17 q 530 -23 524 -1 q 535 -62 536 -44 q 436 -85 496 -108 q 410 -71 424 -83 q 394 -46 397 -58 l 393 -18 q 385 6 386 -17 q 381 19 379 14 q 374 43 385 26 l 358 17 q 343 3 351 6 l 338 -14 q 308 -49 318 -35 l 292 -65 q 200 -60 258 -72 q 178 -57 186 -60 l 168 -57 q 138 -44 165 -60 q 113 -26 114 -35 l 121 -28 q 107 -1 101 -19 q 86 29 90 6 l 74 76 q 75 115 71 94 q 82 153 72 121 l 78 165 l 75 190 q 76 215 71 196 l 68 229 q 72 297 68 285 l 74 315 q 78 363 67 326 l 97 426 q 101 451 97 429 q 118 496 108 486 l 143 538 q 158 558 150 544 q 217 583 172 583 q 364 572 263 590 l 364 621 l 360 679 q 358 756 360 721 q 358 811 356 790 q 372 868 360 813 q 414 951 385 924 q 449 958 424 957 q 481 956 475 960 q 496 949 486 951 q 535 878 535 938 l 522 801 z "},"e":{"ha":528,"x_min":60,"x_max":483,"o":"m 343 444 q 342 497 349 465 q 315 506 332 506 q 278 467 294 506 q 244 393 256 433 l 243 393 q 228 331 228 335 q 264 326 250 325 q 296 340 278 326 q 343 444 328 371 m 339 244 l 288 240 q 219 249 244 240 l 224 222 q 288 71 228 107 q 315 64 304 64 q 344 75 326 64 q 354 90 350 81 q 368 101 356 103 q 454 158 425 174 q 483 128 483 139 q 476 115 483 122 l 476 107 q 459 57 476 93 q 422 -4 442 21 q 397 -33 413 -25 q 303 -56 353 -61 q 288 -50 292 -54 q 271 -49 276 -47 l 260 -47 q 239 -42 247 -47 q 219 -33 225 -33 q 176 -12 183 -19 q 163 -3 168 -6 q 136 26 157 0 q 115 46 118 42 q 101 64 107 58 q 93 89 94 69 q 88 107 88 96 l 82 118 q 74 133 82 128 q 65 154 65 142 l 65 165 q 63 182 60 168 l 63 218 l 61 231 l 61 240 q 64 264 60 246 l 63 276 q 67 299 64 278 q 79 335 72 328 l 79 347 q 81 358 81 351 q 84 374 81 365 q 106 436 88 382 l 128 485 q 158 531 138 506 q 169 556 160 538 l 188 572 q 213 590 196 585 q 242 600 232 600 l 281 606 q 290 604 288 604 l 308 604 q 358 592 339 601 q 419 560 400 579 q 463 467 463 511 q 449 390 463 422 q 399 290 414 311 q 339 244 374 244 z "},"f":{"ha":454,"x_min":-7,"x_max":546,"o":"m 85 482 l 71 483 l 54 483 q 8 493 15 483 q 6 546 -7 519 q 33 570 14 567 q 67 578 53 574 q 101 582 74 578 q 132 590 128 586 l 132 601 q 144 643 132 610 q 150 664 144 650 q 160 703 154 678 l 179 769 q 189 790 179 775 q 191 806 186 794 q 196 824 196 817 l 204 846 l 217 864 q 225 892 217 875 q 236 907 233 900 q 317 956 307 954 l 356 956 q 400 957 388 956 q 475 940 446 954 l 489 936 q 540 842 546 889 q 526 818 540 832 q 493 801 511 804 q 421 817 456 801 q 367 832 386 832 q 336 810 349 832 q 306 681 322 778 q 290 592 288 594 l 303 592 q 332 589 317 589 l 381 582 q 445 567 406 582 q 478 524 485 553 q 440 493 472 496 q 294 479 350 497 q 283 411 283 475 l 278 286 q 275 264 278 265 q 276 244 268 258 q 274 223 275 242 q 275 197 274 204 q 274 147 272 192 q 276 89 275 101 q 276 69 274 89 l 276 49 q 275 -21 276 -10 q 211 -82 269 -72 q 163 -76 182 -86 q 136 -53 143 -65 q 114 7 126 -35 l 114 22 l 111 46 q 114 69 111 56 q 111 88 111 83 l 111 124 q 110 175 113 146 l 110 207 q 113 261 110 217 q 111 300 111 281 q 113 411 115 385 q 115 431 115 419 l 115 450 q 118 465 118 458 q 115 482 118 472 q 85 482 96 485 z "},"g":{"ha":557,"x_min":65,"x_max":489,"o":"m 224 271 l 226 217 l 236 190 l 250 163 q 278 128 254 133 q 310 146 294 125 q 322 156 318 153 q 331 187 331 163 q 335 226 331 211 q 337 276 333 233 q 344 341 340 318 q 346 372 347 364 q 328 424 336 385 q 290 454 300 451 q 253 457 260 465 q 232 365 243 447 q 224 330 224 351 q 224 297 225 308 l 224 271 m 482 308 q 488 200 488 239 l 489 182 l 486 97 q 485 61 486 78 l 485 39 l 479 3 l 479 -11 q 432 -157 479 -62 q 381 -228 415 -192 q 238 -293 322 -290 q 133 -264 167 -293 l 119 -257 q 82 -204 103 -249 q 75 -186 82 -200 q 83 -156 75 -167 q 121 -136 89 -144 q 172 -164 135 -133 q 238 -196 200 -194 q 297 -160 276 -201 q 329 -49 318 -118 q 335 11 335 -22 q 332 56 335 44 q 265 39 294 36 l 253 39 q 219 40 242 36 q 178 57 197 43 l 151 75 q 150 74 153 74 l 143 78 l 124 93 q 111 119 111 100 q 97 133 101 125 q 86 153 86 138 l 79 181 q 72 215 79 188 q 69 238 65 226 q 72 256 72 249 l 76 303 l 76 313 q 76 339 72 317 q 81 351 81 347 q 93 408 89 396 q 99 435 97 419 q 110 463 101 450 l 124 494 q 168 538 132 510 q 203 556 182 551 l 242 553 l 282 543 q 333 522 283 543 q 360 567 333 549 q 408 568 371 578 l 421 568 q 454 556 436 569 q 472 511 463 546 q 482 308 482 382 z "},"h":{"ha":592,"x_min":69,"x_max":518,"o":"m 232 540 l 217 351 l 225 371 q 265 429 231 383 q 308 503 265 433 l 332 531 l 344 550 q 389 571 371 571 q 469 549 426 576 q 494 528 479 547 q 515 476 518 510 q 514 468 515 474 q 486 165 488 251 q 500 19 485 78 q 464 -49 511 -29 q 425 -51 451 -57 q 390 -45 401 -51 q 365 -17 378 -39 l 358 11 q 353 42 353 22 l 347 82 q 349 118 349 85 l 350 154 q 351 231 346 174 l 354 290 l 354 325 q 346 344 356 329 q 265 158 310 317 l 229 47 q 175 -49 204 -42 l 160 -51 q 107 -40 140 -51 q 81 18 81 -11 q 82 31 83 24 q 85 81 78 49 q 83 92 83 85 l 85 113 q 79 152 82 119 q 79 201 76 185 q 88 239 76 207 q 75 276 76 256 q 72 362 69 333 q 74 415 74 390 q 72 475 71 440 l 82 588 l 92 668 q 85 698 92 678 q 82 746 79 718 q 88 781 85 774 q 99 822 92 789 q 104 864 99 850 l 113 889 q 149 921 114 899 l 164 921 q 243 903 218 917 q 249 854 254 896 q 244 782 246 796 q 238 661 243 768 q 232 540 232 554 z "},"i":{"ha":315,"x_min":68,"x_max":269,"o":"m 139 871 q 269 833 232 871 q 238 738 269 810 q 219 700 232 714 l 201 682 q 188 678 194 678 q 110 697 138 665 q 97 710 104 706 q 85 735 89 714 q 72 763 72 753 q 135 871 69 849 l 139 871 m 128 543 q 193 529 142 550 q 210 518 199 524 l 232 500 q 238 482 238 494 l 238 360 q 235 310 238 332 l 235 301 q 242 44 231 244 q 224 -3 246 6 q 193 4 200 -3 q 183 7 188 7 l 174 7 l 165 4 q 150 10 161 4 q 135 24 139 17 q 124 32 132 31 q 107 53 108 38 q 87 97 88 90 q 82 113 86 104 l 75 233 q 78 265 75 254 l 78 299 q 81 355 79 314 q 85 421 82 396 q 82 469 82 457 q 83 488 82 482 q 85 529 68 503 q 119 543 103 543 l 128 543 z "},"j":{"ha":326,"x_min":-132,"x_max":301,"o":"m 172 894 q 183 897 172 894 q 208 900 194 900 q 262 888 222 900 q 301 863 301 876 q 296 850 301 861 q 286 813 288 842 q 283 777 285 783 q 277 754 281 771 q 268 722 274 738 q 224 664 265 697 q 200 649 206 649 q 188 658 188 649 q 163 681 169 664 q 150 696 153 694 l 115 703 q 94 749 106 713 q 107 810 94 772 q 144 876 119 847 q 172 894 149 889 m 86 346 q 81 367 83 349 q 78 397 79 386 q 75 422 76 407 l 75 468 q 99 513 75 490 q 158 532 138 532 q 208 515 178 532 l 232 504 q 244 392 239 486 l 244 350 q 192 -160 244 3 l 189 -181 q 149 -264 178 -215 l 143 -275 q 92 -322 136 -290 q 35 -339 71 -342 q -57 -321 -33 -339 q -69 -311 -62 -317 q -104 -292 -79 -301 q -115 -271 -110 -286 q -124 -250 -121 -256 q -132 -222 -126 -244 l -124 -186 q -90 -154 -111 -154 q -64 -175 -68 -154 q -58 -199 -64 -187 q -15 -228 -37 -225 q 33 -181 11 -225 q 43 -165 43 -171 q 53 -142 43 -158 q 74 -82 68 -126 q 72 -78 74 -81 q 82 -50 72 -74 q 92 -18 92 -40 l 104 74 l 106 117 l 90 292 q 86 328 90 307 l 86 346 z "},"k":{"ha":578,"x_min":74,"x_max":589,"o":"m 89 515 l 85 533 q 85 545 85 535 q 83 571 86 556 q 82 622 83 606 q 78 676 78 628 q 79 769 74 725 q 94 843 79 783 q 110 878 110 874 q 138 911 117 892 l 165 925 q 238 921 186 933 l 268 914 q 263 854 268 890 q 251 744 261 815 q 232 438 232 603 l 238 415 q 310 478 278 446 q 353 515 343 510 q 385 542 354 517 q 425 578 421 571 q 489 631 451 613 q 533 618 514 631 q 556 585 556 599 q 552 563 556 571 q 540 544 549 556 q 525 519 532 533 q 450 431 507 488 q 390 371 411 389 q 329 325 378 357 q 335 315 331 322 q 346 296 340 307 q 446 210 404 232 q 481 189 463 193 q 496 178 481 188 l 504 175 q 544 160 535 160 q 589 130 589 151 q 567 97 589 108 q 525 69 567 94 q 501 61 519 71 q 383 75 450 44 q 321 128 346 92 l 289 153 q 242 206 288 157 l 247 163 l 254 121 q 260 50 254 76 q 249 13 265 24 q 192 0 233 1 q 131 19 151 -1 q 120 55 125 24 q 111 99 115 86 q 89 244 83 183 l 88 286 q 89 318 89 292 q 89 515 103 394 z "},"l":{"ha":333,"x_min":69,"x_max":282,"o":"m 108 743 l 118 825 l 119 868 q 126 896 119 886 l 140 915 q 189 949 178 944 q 222 948 200 953 q 247 939 243 943 l 263 926 q 275 904 275 919 q 279 892 282 896 q 251 728 271 882 l 240 539 l 233 501 q 235 481 233 483 l 235 456 q 229 421 232 428 q 226 406 229 414 q 229 384 229 403 q 225 361 229 365 q 222 319 222 339 q 226 277 222 299 q 228 235 229 256 l 233 182 l 233 161 q 236 121 236 136 l 243 49 l 249 11 q 245 -35 253 -12 q 222 -62 238 -57 q 128 -39 179 -81 l 117 -39 q 101 -8 107 -28 q 92 11 90 -3 q 86 36 93 25 q 79 56 79 47 q 76 88 79 74 l 78 99 q 74 111 74 103 l 71 136 l 71 147 q 70 163 71 158 q 74 176 69 167 q 72 217 69 182 q 81 364 81 324 l 82 397 l 82 438 q 84 522 83 471 q 89 578 85 574 l 88 590 q 98 681 88 624 q 108 743 108 739 z "},"m":{"ha":817,"x_min":74,"x_max":746,"o":"m 132 574 l 135 574 q 193 569 153 579 q 210 490 207 565 q 215 412 215 433 q 217 386 215 390 l 217 293 l 224 292 q 226 308 224 293 q 242 368 233 347 q 248 382 247 374 q 256 400 249 390 q 297 501 264 439 q 319 541 308 528 q 351 550 329 554 q 386 535 372 546 q 413 531 397 533 l 453 522 q 468 513 458 521 q 476 494 478 506 q 474 429 475 483 l 474 407 l 468 353 q 471 326 468 331 l 476 322 l 488 386 q 496 404 488 396 l 513 444 q 521 463 513 449 q 534 490 524 472 q 561 525 544 508 q 586 540 561 536 q 650 542 606 561 q 665 539 658 542 q 676 535 665 536 q 701 517 686 533 l 701 501 q 703 481 701 488 q 704 456 701 471 l 704 439 q 711 369 706 428 l 711 354 q 715 337 715 346 q 714 318 714 328 q 721 295 718 314 q 718 258 724 276 l 721 246 l 721 207 q 728 190 728 201 l 732 167 q 739 117 732 142 l 739 101 l 746 65 l 746 57 l 744 43 q 728 21 744 28 q 720 17 725 19 q 704 14 715 14 l 675 24 l 661 33 q 632 43 650 31 q 622 65 632 56 q 610 88 606 71 q 603 103 611 89 q 599 133 606 106 q 597 158 599 146 q 594 182 594 169 q 589 204 593 194 q 590 214 590 204 q 588 232 590 224 l 588 264 l 581 319 l 560 256 q 539 197 539 201 l 494 58 q 478 40 490 50 q 458 29 467 29 q 444 33 456 33 q 415 26 432 33 q 361 56 368 21 l 358 88 l 360 119 q 357 139 357 124 l 356 158 l 356 218 l 353 289 l 353 357 q 303 214 313 247 l 251 49 q 196 6 236 8 l 181 3 q 140 13 150 -4 l 126 36 q 115 71 121 67 q 101 111 113 90 l 94 144 q 92 157 94 149 l 92 182 q 85 227 88 193 q 83 282 82 261 q 81 324 78 299 l 81 349 q 74 446 74 381 l 74 465 q 81 522 81 507 q 88 544 81 536 q 132 574 94 551 z "},"n":{"ha":617,"x_min":79,"x_max":579,"o":"m 389 51 l 381 75 l 365 168 q 358 215 358 194 l 364 276 q 365 293 364 292 q 315 253 349 293 q 307 239 313 249 q 238 15 249 146 q 208 -8 226 -8 q 167 0 171 0 l 157 -1 l 139 -1 q 97 24 107 1 q 92 60 92 31 l 92 79 l 88 156 l 88 269 q 85 318 88 289 q 83 419 82 350 q 82 492 85 488 q 79 506 79 497 q 83 522 79 514 q 121 540 88 531 q 151 551 139 551 q 201 535 171 547 q 222 494 222 531 q 223 408 225 435 q 224 301 221 382 q 407 539 326 499 q 428 546 414 546 q 460 532 442 546 q 485 514 478 518 q 501 500 492 510 q 515 488 510 490 q 522 357 532 460 q 519 330 521 342 q 518 279 518 318 q 519 225 518 240 q 524 168 524 176 l 531 115 q 545 66 544 83 q 569 11 546 49 q 561 -22 579 -10 q 531 -34 533 -36 q 515 -37 529 -32 q 465 -39 501 -42 q 429 -17 447 -35 l 408 4 q 393 40 397 21 q 389 51 386 47 z "},"o":{"ha":532,"x_min":63,"x_max":476,"o":"m 317 410 q 263 461 307 465 q 219 428 238 460 q 198 302 194 379 q 209 191 201 225 q 236 132 217 157 q 269 114 247 113 q 326 179 308 114 l 338 213 q 340 226 344 219 q 356 308 354 261 q 339 326 342 318 q 331 358 331 350 q 319 385 321 365 q 317 410 318 404 m 63 279 l 68 350 q 126 514 78 446 q 260 572 174 571 l 268 572 q 385 538 349 572 q 442 471 424 507 q 467 418 461 435 q 474 369 472 401 q 450 301 476 310 q 426 92 469 169 q 386 22 413 60 q 317 -6 367 -3 q 230 0 267 -6 q 149 35 193 6 q 86 133 104 65 q 63 279 67 199 z "},"p":{"ha":606,"x_min":67,"x_max":568,"o":"m 403 408 q 407 467 410 463 q 390 451 400 464 l 344 400 q 272 293 272 310 q 263 271 272 290 l 264 249 l 261 189 l 261 174 q 265 88 261 114 q 289 106 267 92 l 313 138 q 358 201 349 182 q 389 307 389 294 q 400 363 389 326 q 403 392 400 375 l 403 408 m 106 431 l 111 494 q 113 524 115 506 l 122 581 q 121 608 122 593 q 122 628 119 622 q 151 647 128 639 l 146 647 q 185 649 160 656 q 226 636 210 642 q 251 608 236 624 l 253 564 q 257 492 253 529 q 257 472 256 476 l 281 497 q 312 528 282 500 q 350 563 342 556 q 367 574 350 569 q 428 574 403 582 q 456 567 453 567 l 507 544 q 521 535 507 539 l 533 528 q 551 518 540 528 q 564 494 568 515 q 568 483 564 489 l 568 450 q 555 372 568 428 q 538 306 542 315 q 530 281 535 296 q 519 251 525 265 q 492 187 513 228 q 450 122 471 146 q 342 14 401 54 q 260 -15 276 -11 q 260 -65 256 -15 l 260 -165 l 264 -226 l 265 -289 q 263 -340 268 -335 l 246 -354 q 214 -356 228 -361 q 181 -343 186 -347 q 163 -332 175 -343 l 147 -326 q 124 -317 128 -329 q 110 -297 110 -306 l 89 -267 q 81 -228 81 -246 q 75 -181 72 -197 l 72 -128 l 72 -54 q 69 -6 72 -17 q 72 142 67 3 q 76 176 76 169 l 97 347 l 101 394 l 101 406 q 106 431 106 422 z "},"q":{"ha":608,"x_min":51,"x_max":601,"o":"m 340 453 l 332 454 q 307 454 317 461 l 269 432 q 199 324 211 367 q 188 247 196 311 q 197 160 185 189 q 210 147 197 153 q 251 185 228 151 l 267 213 q 297 256 294 251 q 307 269 299 261 l 313 289 q 318 296 313 290 q 344 360 328 319 q 356 394 344 372 q 363 440 365 406 l 356 446 q 340 453 346 446 m 207 556 q 233 558 221 554 q 269 563 246 563 q 331 553 311 560 q 351 544 351 546 l 386 524 q 406 521 397 514 q 449 532 428 538 q 479 513 467 532 q 503 492 496 499 q 508 473 510 486 q 507 340 507 460 q 506 248 510 261 q 507 174 503 235 q 511 138 511 149 q 510 117 511 126 l 511 61 q 513 -62 506 -1 l 514 -107 l 535 -97 q 601 -160 575 -82 q 586 -189 590 -182 q 563 -235 585 -190 q 554 -251 563 -240 q 494 -285 529 -283 q 433 -276 458 -286 q 424 -269 426 -276 l 403 -233 l 403 -231 l 401 -218 q 390 -203 392 -215 q 389 -194 389 -199 l 389 -187 q 381 -139 376 -153 q 377 -92 388 -112 q 367 -55 367 -71 q 372 -26 367 -39 q 374 0 376 -12 l 374 15 l 369 56 q 368 117 354 81 l 368 142 l 369 161 l 369 169 l 358 149 l 300 65 q 283 50 288 53 q 254 51 279 49 q 221 60 229 54 q 192 67 215 60 q 160 74 174 67 q 142 83 146 82 q 113 99 135 86 q 79 132 94 99 l 72 144 q 63 168 63 153 q 56 197 57 174 q 54 214 51 201 q 51 294 51 236 q 69 419 51 351 q 101 479 69 443 l 107 486 q 138 518 111 500 q 179 542 147 529 l 207 556 z "},"r":{"ha":472,"x_min":68,"x_max":476,"o":"m 72 410 q 69 439 72 422 l 69 449 q 68 469 71 458 q 71 494 68 483 q 78 531 71 522 q 97 563 78 538 q 118 581 103 568 q 149 589 140 588 q 186 585 154 594 q 229 575 200 583 q 254 553 239 572 q 245 512 251 547 q 240 454 239 476 q 269 483 249 461 q 292 507 290 506 q 363 531 328 524 q 428 524 413 535 q 447 511 440 519 q 468 473 460 500 q 467 439 476 446 q 411 428 458 432 q 392 417 408 428 l 319 360 q 289 340 297 349 l 263 292 q 260 256 261 289 q 260 208 258 222 q 260 114 261 193 l 260 54 q 258 -2 260 6 q 247 -29 257 -10 q 221 -36 243 -36 q 151 -32 167 -76 l 133 -21 q 119 -7 122 -15 q 108 11 108 8 l 103 31 l 94 47 q 88 101 90 49 q 85 165 85 153 q 82 190 85 176 q 91 224 92 200 q 88 260 90 247 q 88 277 85 274 q 86 315 90 281 q 85 336 82 321 l 72 410 z "},"s":{"ha":472,"x_min":58,"x_max":429,"o":"m 108 539 q 211 588 146 585 q 370 535 318 592 q 426 422 422 478 q 397 363 429 367 q 338 375 351 361 q 306 393 325 374 q 283 425 297 397 l 268 460 q 240 488 257 485 q 219 446 219 479 q 282 321 225 381 q 284 317 282 321 q 304 294 286 314 q 418 100 414 174 q 399 38 418 53 q 243 -36 339 -33 q 85 24 147 -39 q 68 56 68 40 q 63 90 60 82 q 63 149 58 129 q 128 194 71 193 q 154 169 149 194 q 188 76 172 99 q 240 56 204 54 q 284 107 286 58 q 238 197 282 156 q 210 223 224 214 q 193 236 197 232 q 186 244 192 240 q 116 318 158 267 q 71 414 74 369 q 108 539 65 493 z "},"t":{"ha":485,"x_min":1,"x_max":549,"o":"m 158 490 l 160 503 q 119 508 131 506 q 81 513 107 510 q 39 521 54 515 q 6 572 10 531 q 32 622 1 613 q 71 629 60 629 q 113 632 82 629 q 154 642 128 640 l 175 647 q 186 650 175 646 l 193 679 q 206 724 193 701 q 224 778 206 733 q 249 858 224 783 q 290 890 254 865 q 353 875 313 901 q 383 849 375 865 q 375 810 375 840 q 356 707 374 800 l 356 668 q 392 661 367 667 q 454 649 418 656 q 542 593 524 635 q 539 550 549 563 q 492 532 529 538 q 412 531 461 531 q 339 524 363 531 q 336 485 336 499 l 335 464 q 322 361 335 454 q 308 232 314 349 l 308 131 q 313 83 308 106 q 319 40 314 53 q 326 -12 319 28 q 272 -53 310 -53 q 204 -25 233 -53 l 189 -3 q 183 13 185 8 q 179 22 181 17 q 164 57 169 50 q 156 74 156 68 q 156 88 156 79 q 149 128 153 111 q 142 175 142 135 q 142 260 144 249 q 143 313 146 264 l 147 343 q 153 385 147 349 q 151 415 150 390 q 156 449 153 439 q 158 490 158 465 z "},"u":{"ha":610,"x_min":78,"x_max":569,"o":"m 508 385 l 510 358 q 518 271 510 354 l 518 254 q 529 154 518 221 q 558 53 529 125 q 568 33 565 49 l 567 19 q 560 4 569 13 q 533 -6 560 -6 q 500 -8 507 -6 q 478 -6 493 -11 q 444 6 472 -8 q 425 31 432 8 l 414 57 q 400 101 414 82 q 394 126 400 108 q 385 146 388 144 q 350 60 371 90 q 342 43 350 53 l 328 17 q 315 1 328 14 q 278 -17 307 -17 q 214 -3 251 -17 q 175 10 204 -1 q 149 15 167 8 q 129 21 132 21 q 110 35 125 25 l 86 60 q 81 73 85 61 q 79 90 78 85 q 79 104 81 94 q 81 124 78 114 q 86 185 81 151 q 85 194 85 189 q 90 215 85 200 q 89 225 89 222 l 96 279 q 97 307 96 299 l 97 328 q 99 343 99 333 l 106 410 q 107 429 106 425 l 107 443 q 110 465 110 446 l 122 504 l 132 521 q 147 533 133 526 q 211 547 169 547 q 247 533 228 544 q 267 528 251 535 q 269 457 294 515 q 264 418 264 419 q 258 400 258 407 q 250 353 250 356 q 246 336 256 358 l 240 285 q 232 211 231 251 l 226 193 q 225 150 228 186 q 228 140 228 146 l 229 129 q 231 122 228 125 q 247 119 233 118 q 269 125 260 119 q 296 174 289 149 q 303 204 303 200 q 332 274 326 264 q 356 360 339 311 q 356 388 353 367 l 374 461 q 386 487 386 482 q 403 525 386 492 q 411 547 403 531 q 446 576 421 563 l 450 576 q 503 568 481 579 q 506 549 506 563 q 511 499 508 535 l 511 485 l 506 454 q 508 385 517 419 z "},"v":{"ha":538,"x_min":60,"x_max":521,"o":"m 253 150 l 271 254 q 273 267 271 263 q 275 281 275 272 q 282 317 276 292 q 288 335 282 328 q 322 422 290 357 q 340 456 328 442 q 349 475 340 464 l 365 504 q 375 525 365 507 q 386 540 383 529 q 403 569 389 550 q 435 593 407 582 l 457 593 l 488 583 l 508 569 q 518 550 515 563 q 521 550 521 553 q 504 488 519 538 q 485 423 490 442 q 472 385 479 404 q 461 345 472 383 q 442 293 450 307 l 415 196 q 396 132 400 160 q 365 -10 365 -4 q 354 -44 365 -15 q 306 -67 351 -67 q 288 -54 299 -60 q 250 -56 283 -60 q 149 -39 190 -62 q 132 14 139 -22 q 113 63 114 44 l 99 88 q 92 121 99 106 q 85 151 86 136 q 81 174 81 161 q 78 197 78 185 q 74 252 72 224 q 71 321 75 281 q 69 350 71 344 l 71 386 q 72 418 71 413 q 67 457 67 440 l 65 483 q 63 515 65 500 q 65 546 60 531 q 86 564 75 557 q 136 565 103 578 l 171 550 l 183 540 q 182 526 186 538 l 189 460 q 197 378 189 428 q 208 297 206 329 q 219 206 211 264 q 228 135 226 149 q 233 106 228 108 q 253 150 246 126 z "},"w":{"ha":732,"x_min":50,"x_max":672,"o":"m 226 394 l 225 336 l 225 292 l 228 239 q 242 111 228 181 l 249 99 q 253 125 249 114 q 258 151 258 136 l 278 224 q 285 242 278 228 q 302 294 290 256 q 317 360 314 332 q 322 400 319 389 q 321 431 325 411 l 328 488 q 333 515 328 507 q 410 525 392 524 q 419 503 410 517 q 429 478 419 497 l 435 453 q 456 282 443 433 q 482 147 457 233 q 488 174 489 158 q 496 218 496 182 l 510 256 l 536 399 l 542 460 l 553 503 q 565 528 556 521 q 594 535 574 536 l 629 535 q 656 528 639 528 l 672 524 q 669 486 671 507 q 658 410 668 469 q 633 171 642 211 q 629 156 633 161 q 610 61 628 136 q 581 21 610 50 q 551 0 571 4 q 525 -8 544 -7 q 485 -3 506 -11 q 461 8 464 4 q 426 26 447 21 l 406 35 q 386 56 389 53 q 376 96 381 64 q 369 133 374 97 q 353 65 353 72 q 344 38 346 42 q 341 28 342 35 q 338 17 340 22 q 328 -1 338 8 q 294 -17 319 -11 q 229 -18 269 -24 l 213 -19 q 192 -17 203 -19 q 168 11 175 -6 q 139 63 151 35 q 117 118 131 71 q 104 151 104 147 l 104 164 q 92 197 99 169 q 89 239 86 225 q 85 268 85 244 q 82 313 82 282 q 72 379 78 364 q 61 429 74 397 q 54 501 50 492 q 61 536 50 513 q 96 575 61 543 q 125 574 114 581 q 150 567 136 568 l 199 553 q 232 460 239 542 l 226 406 q 226 400 226 404 l 226 394 z "},"x":{"ha":563,"x_min":29,"x_max":531,"o":"m 392 171 l 397 143 l 435 75 q 442 58 435 72 q 453 40 450 44 q 464 25 457 36 q 482 3 468 19 q 483 -47 510 -18 q 383 -50 436 -96 q 331 11 353 -26 q 301 56 322 22 l 269 124 l 260 139 q 257 148 260 140 q 253 163 254 156 q 242 174 246 164 q 194 106 235 164 q 150 43 154 49 q 139 26 143 35 q 128 6 135 18 q 117 -12 121 -7 q 107 -26 114 -17 q 94 -36 100 -35 q 81 -39 89 -37 q 42 -18 65 -42 q 29 33 29 -1 q 37 60 32 49 q 44 86 42 71 q 84 177 72 164 q 101 208 96 190 q 114 239 107 225 q 158 321 132 269 l 129 394 q 114 433 118 414 q 101 472 110 453 q 108 551 82 515 q 139 571 125 568 q 191 572 153 574 q 261 539 229 571 q 275 506 261 529 q 292 447 290 451 q 294 440 294 443 l 354 494 q 386 514 360 503 l 400 522 q 461 535 408 529 q 519 510 507 522 q 531 482 519 508 q 478 431 528 450 l 419 386 q 383 356 400 374 l 335 308 q 368 226 347 282 q 392 171 378 192 z "},"y":{"ha":571,"x_min":68,"x_max":488,"o":"m 218 438 q 216 399 218 415 q 214 378 214 382 q 210 315 214 335 q 207 282 207 294 l 207 219 q 213 123 207 139 q 232 101 218 107 q 256 103 247 97 q 272 123 264 110 q 284 153 279 136 q 299 191 289 171 q 310 220 308 211 q 322 243 313 229 q 344 417 342 318 l 344 461 q 365 554 347 517 q 422 590 375 576 l 443 592 q 479 583 471 592 q 481 469 488 543 l 481 374 q 483 278 483 304 q 485 114 482 268 q 485 78 483 113 q 481 -19 486 56 q 476 -110 476 -94 q 442 -226 461 -194 q 392 -282 424 -258 q 313 -312 369 -304 q 290 -311 308 -311 q 182 -278 207 -303 q 97 -223 108 -240 q 82 -190 85 -206 q 90 -139 79 -175 q 144 -129 111 -112 q 194 -157 158 -136 l 240 -179 q 260 -181 250 -187 q 276 -172 274 -172 q 322 -111 300 -153 q 336 -69 322 -97 q 353 13 336 -42 l 353 28 q 356 63 353 49 q 358 86 358 78 q 340 47 347 65 q 324 17 333 29 q 294 0 322 8 l 243 -1 q 235 0 243 0 l 214 1 q 121 21 140 1 q 97 44 111 33 q 82 83 85 60 q 76 107 78 88 l 76 122 l 74 139 q 71 158 75 142 q 68 213 68 175 l 68 229 q 71 358 68 353 q 75 374 75 367 q 76 389 72 381 l 79 408 l 93 451 q 101 486 93 457 q 111 506 110 494 q 117 542 117 532 q 129 568 118 551 q 178 577 146 581 q 235 549 211 574 l 219 488 q 221 471 221 478 l 218 438 z "},"z":{"ha":567,"x_min":25,"x_max":547,"o":"m 546 68 l 547 50 q 536 33 547 39 q 393 -25 517 17 q 225 -53 361 -35 q 141 -70 174 -71 q 99 -65 108 -69 q 68 -28 89 -64 q 54 11 68 -18 q 40 43 47 18 q 25 106 28 89 l 25 125 q 54 178 25 143 q 61 190 58 182 q 93 226 64 197 l 161 285 q 181 301 168 294 q 217 329 188 306 l 267 361 q 311 395 310 393 q 314 400 313 397 q 301 408 317 408 l 268 408 q 135 414 146 408 q 100 465 115 425 q 90 478 99 468 q 79 514 81 489 q 110 547 82 531 l 138 558 q 196 571 140 561 q 225 572 219 571 l 226 572 q 305 564 233 574 q 389 547 376 554 q 399 546 392 547 q 413 544 406 544 q 463 521 446 540 q 497 451 478 500 q 515 385 515 403 q 506 368 513 375 l 489 356 q 468 341 475 342 q 426 314 461 340 q 374 272 390 288 q 285 210 369 272 q 217 147 267 200 q 191 117 203 135 q 179 85 179 99 q 186 69 179 71 q 281 76 253 64 q 321 86 297 86 q 402 98 372 90 q 449 106 432 106 q 506 110 500 111 q 519 103 513 108 q 531 97 525 99 q 546 68 546 76 z "},"{":{"ha":393,"x_min":35,"x_max":481,"o":"m 414 901 l 376 903 q 339 890 354 903 q 338 765 332 869 q 331 619 343 660 q 324 468 331 525 q 315 432 322 465 q 303 392 307 399 q 290 371 300 386 q 261 306 272 343 q 295 266 278 296 q 318 215 313 236 l 324 136 q 308 60 324 96 q 328 -142 288 -62 q 376 -162 333 -142 q 424 -178 388 -162 q 451 -203 435 -189 q 474 -225 468 -217 q 476 -238 481 -233 q 450 -249 471 -243 q 426 -253 429 -254 q 340 -246 413 -246 q 295 -231 329 -243 q 240 -212 261 -218 l 199 -187 q 160 -150 185 -183 q 131 -111 144 -135 q 115 -52 117 -81 q 115 24 114 -24 q 124 48 118 28 q 133 74 131 68 q 136 83 135 81 q 147 128 140 90 q 154 154 144 129 q 164 183 164 179 q 170 215 167 199 q 171 242 174 231 q 147 285 163 276 q 97 279 118 285 q 44 294 82 272 q 38 351 35 296 q 82 356 47 354 q 128 379 82 357 q 169 443 146 379 l 169 444 q 171 447 169 444 q 173 453 172 450 q 176 463 174 456 q 181 478 178 469 q 186 540 183 486 q 193 614 189 547 q 184 733 193 685 q 169 839 175 781 q 181 951 164 897 q 236 992 190 965 q 343 996 279 1006 l 393 976 q 425 958 393 975 q 452 939 438 958 q 471 900 467 919 q 414 901 465 894 z "},"|":{"ha":350,"x_min":100,"x_max":268,"o":"m 138 731 l 147 810 l 150 878 l 150 896 q 200 929 182 924 q 235 919 217 938 l 250 907 q 263 885 263 900 q 267 875 268 878 q 239 717 260 865 q 235 661 239 717 q 230 594 235 650 q 225 467 225 538 l 224 438 l 217 400 q 218 379 217 382 l 218 357 q 214 322 215 326 l 214 265 q 217 161 217 201 l 218 75 l 218 11 l 221 -15 l 221 -36 q 224 -75 224 -61 l 231 -143 l 236 -181 q 234 -223 240 -201 q 218 -252 228 -244 q 185 -252 208 -260 q 156 -235 161 -244 q 146 -228 150 -226 q 131 -200 136 -217 q 121 -181 119 -194 q 115 -156 122 -167 q 108 -137 108 -146 q 106 -107 108 -121 l 107 -96 q 103 -83 103 -92 l 101 -69 l 101 -50 q 101 -35 101 -39 q 103 -21 100 -31 q 106 268 103 -19 l 107 301 l 107 339 q 108 421 108 372 q 117 564 117 529 q 138 731 117 617 z "},"}":{"ha":418,"x_min":-14,"x_max":400,"o":"m 294 69 l 296 21 q 294 -83 306 -14 q 285 -129 285 -124 q 264 -182 264 -167 q 219 -214 261 -193 q 130 -231 196 -232 q 49 -228 64 -231 q 17 -203 17 -224 q -8 -144 -14 -144 q 29 -153 29 -132 q 85 -186 74 -185 q 124 -168 97 -187 q 146 -129 136 -154 l 154 -86 q 160 -46 147 -79 q 151 56 156 21 q 151 118 147 92 q 149 217 132 146 q 151 274 149 260 q 157 326 150 303 q 194 361 164 349 q 133 464 136 417 q 131 538 119 503 q 158 644 157 642 q 174 757 172 746 q 168 883 186 825 l 139 917 q 42 928 58 917 q 54 979 44 958 q 83 987 56 981 q 129 1006 110 993 q 167 1008 144 1008 q 224 1003 214 1008 q 247 989 235 999 q 267 964 267 972 q 304 895 301 911 q 307 874 307 879 q 315 788 307 868 q 300 698 301 701 q 299 693 299 694 l 300 689 q 293 645 294 669 q 293 617 292 621 q 272 532 275 575 q 263 480 261 494 q 269 444 264 465 q 293 403 283 403 q 335 392 326 390 q 363 392 344 394 q 385 388 382 390 q 374 342 400 360 q 349 336 369 339 q 289 308 303 328 q 285 292 285 303 l 278 246 q 278 208 279 222 q 276 164 276 167 q 294 69 283 88 z "},"~":{"ha":717,"x_min":68,"x_max":650,"o":"m 414 415 q 484 415 456 415 q 551 421 513 415 q 604 438 590 426 q 633 460 608 439 q 650 375 643 460 q 649 356 649 367 q 650 343 649 344 q 647 322 647 332 q 632 293 640 318 q 608 285 625 293 q 551 269 597 279 q 528 264 551 265 q 469 269 469 261 q 463 269 468 269 q 440 282 458 269 q 408 289 433 281 q 400 289 406 286 q 371 304 381 304 q 344 324 361 304 q 304 339 339 321 q 290 343 301 336 q 278 349 279 350 q 238 363 276 347 q 210 369 222 371 q 169 379 189 376 q 117 371 150 382 q 81 367 89 351 q 73 401 78 369 q 73 448 68 432 q 106 476 78 464 q 210 479 160 489 q 308 460 271 460 q 353 442 310 457 q 401 423 393 428 q 414 415 408 418 z "},"":{"ha":294,"x_min":0,"x_max":0,"o":""},"":{"ha":307,"x_min":39,"x_max":279,"o":"m 211 560 q 189 554 203 560 q 164 549 175 549 q 87 563 97 561 q 69 567 76 564 q 57 596 57 575 q 124 714 76 696 l 164 721 q 206 701 181 721 q 235 694 219 700 q 250 683 250 688 q 265 661 250 679 q 279 624 279 643 q 263 590 279 606 q 211 560 263 560 m 53 -208 q 79 57 58 -136 q 100 319 100 250 q 92 413 100 388 q 124 439 107 439 q 151 436 142 439 q 163 433 160 433 q 168 433 165 433 l 174 432 q 210 344 206 382 q 234 272 232 283 q 242 249 236 260 q 246 188 246 192 l 244 176 l 244 164 l 246 128 q 240 57 240 93 l 240 36 q 229 -49 240 6 q 218 -136 218 -104 q 197 -217 218 -168 q 167 -284 175 -265 q 157 -311 160 -303 q 150 -328 154 -319 q 132 -339 143 -339 q 103 -347 111 -347 q 39 -314 39 -347 l 53 -208 z "},"":{"ha":532,"x_min":44,"x_max":511,"o":"m 276 482 l 278 483 q 304 567 269 488 q 303 567 301 564 q 321 619 303 576 q 326 635 321 626 q 254 626 296 660 l 244 608 q 222 528 242 603 q 196 392 203 454 q 201 302 196 335 q 207 267 207 269 q 225 336 225 332 q 244 386 240 381 q 253 416 253 397 q 276 482 253 435 m 100 -61 q 96 -49 96 -57 q 110 1 96 -40 q 154 111 110 22 q 157 139 156 111 l 157 140 l 136 153 l 117 172 q 98 188 111 174 q 78 218 85 201 q 67 247 67 236 l 60 275 q 51 311 60 286 q 49 358 51 336 q 56 407 44 396 q 53 432 57 407 l 53 482 q 65 542 53 504 q 89 608 67 557 q 133 679 92 629 l 150 707 q 194 739 167 729 q 269 763 218 758 q 371 760 344 763 q 424 867 393 814 l 425 867 q 469 910 436 906 q 494 860 511 906 q 466 797 493 854 q 436 733 439 739 q 441 729 439 732 q 453 717 443 726 q 468 668 463 701 q 470 599 474 635 q 451 537 467 563 q 394 503 435 511 q 358 521 365 503 l 354 528 q 322 443 344 494 q 314 404 318 411 q 289 325 304 388 q 270 282 272 285 q 260 253 268 279 q 244 208 251 228 q 267 207 250 207 q 344 258 307 207 q 379 286 344 263 q 433 242 431 292 q 425 211 436 228 q 378 129 417 192 q 358 124 364 129 q 286 110 333 104 q 243 117 274 111 l 224 117 q 214 119 219 118 q 163 3 211 114 q 117 -62 126 -62 q 107 -63 111 -62 q 100 -61 103 -64 z "},"":{"ha":503,"x_min":-15,"x_max":522,"o":"m 301 192 q 326 199 307 197 q 349 204 344 201 q 407 215 354 207 q 431 208 421 208 q 453 190 440 207 l 464 176 l 490 151 q 503 129 490 147 q 494 92 522 108 q 478 86 492 90 q 407 61 418 69 q 340 44 363 44 l 321 38 q 250 10 285 17 q 201 -12 232 -3 l 160 -31 l 135 -37 q 108 -40 115 -53 q 107 -37 108 -39 q 104 -32 106 -35 l 46 22 q 38 35 38 28 q 32 63 38 53 q 36 96 26 74 q 96 118 92 117 l 96 131 q 99 185 88 157 q 101 204 99 188 q 103 219 100 213 q 103 230 106 219 q 101 250 101 240 q 108 304 108 268 q 115 353 107 340 q 117 368 115 360 q 86 361 114 367 q -1 382 46 354 l -12 404 q -15 449 -15 419 q 40 471 0 458 q 86 485 67 471 l 88 485 q 132 494 101 489 q 133 502 135 497 q 135 515 131 507 q 143 538 140 522 q 142 551 140 547 q 147 582 143 556 q 154 610 150 608 q 161 645 157 632 q 165 662 165 658 q 172 679 165 665 q 177 697 175 694 q 178 701 179 699 q 190 756 175 706 q 204 810 206 810 l 204 817 q 205 832 207 826 q 211 856 203 838 q 226 876 219 875 q 238 886 236 886 q 288 881 269 890 l 306 867 q 314 860 306 860 q 338 846 321 858 q 361 826 356 833 q 364 805 364 821 q 350 728 364 789 q 329 626 329 642 l 321 599 q 307 519 321 586 l 378 529 l 426 526 q 450 515 450 526 q 453 496 453 504 q 419 461 453 474 l 389 449 q 364 440 381 449 l 342 440 q 319 429 335 440 q 296 428 318 428 l 289 425 l 283 371 q 272 319 274 335 q 258 174 269 304 l 249 169 q 268 172 265 169 l 301 192 z "},"":{"ha":794,"x_min":113,"x_max":681,"o":"m 246 411 q 239 353 246 371 q 271 274 239 310 q 361 239 303 239 q 449 278 419 239 q 460 288 453 278 q 471 310 467 297 q 481 324 475 311 q 513 376 496 364 q 549 493 547 419 l 549 507 q 522 577 549 536 q 440 618 496 618 q 358 596 388 618 q 326 563 350 589 q 300 532 308 547 q 285 510 290 514 q 276 504 279 507 q 269 497 272 501 q 254 465 260 486 l 246 411 m 479 693 q 542 663 504 693 l 578 718 q 644 790 621 790 q 667 780 654 790 q 681 756 681 769 q 664 708 681 742 q 596 604 646 672 q 631 514 631 556 q 615 415 631 472 q 585 336 600 357 q 565 301 588 333 l 621 226 l 638 193 l 650 175 q 667 141 667 164 q 654 107 667 118 q 631 96 642 96 q 565 165 607 96 q 529 217 536 207 q 515 232 522 228 l 507 221 q 447 184 490 206 q 372 163 403 163 q 293 188 340 163 q 267 197 276 192 q 222 128 249 172 q 178 65 194 83 q 149 46 161 46 q 125 56 138 46 q 113 81 113 65 q 133 136 113 96 q 160 179 153 176 l 203 243 q 157 353 157 292 q 191 501 157 442 q 231 567 225 561 q 238 582 231 572 l 181 660 l 153 713 q 138 753 138 733 q 151 783 138 772 q 174 793 164 793 q 201 772 185 793 q 244 708 218 750 q 292 638 269 665 l 294 633 q 365 675 343 664 q 479 693 406 693 z "},"":{"ha":658,"x_min":13,"x_max":667,"o":"m 190 314 q 123 307 163 307 q 46 326 83 307 l 21 338 l 13 367 q 18 407 13 382 q 92 415 42 411 q 153 418 129 415 l 154 418 l 178 419 l 178 426 q 173 450 172 431 q 168 482 174 469 q 140 549 151 499 q 131 607 133 601 q 123 625 128 613 q 110 657 118 638 q 100 692 103 676 q 92 731 89 725 q 85 753 89 733 q 44 847 40 828 q 82 874 49 865 q 131 881 88 875 l 161 881 q 192 867 176 881 q 225 799 219 842 q 243 739 238 750 q 254 703 254 711 l 271 661 l 274 631 q 281 619 276 625 q 296 579 293 603 l 307 553 q 327 494 324 500 q 333 476 331 488 q 336 483 336 479 l 347 504 q 374 557 347 515 q 418 679 403 629 q 451 776 433 735 q 467 810 449 781 l 482 840 q 565 889 507 879 l 586 894 q 656 885 644 894 q 663 847 667 875 l 649 817 l 614 753 l 588 713 q 568 686 578 708 l 553 660 l 518 586 q 509 563 515 583 q 486 525 503 543 l 474 488 q 467 474 474 486 q 458 459 460 461 q 451 447 456 457 q 446 433 446 435 q 442 418 446 431 l 454 418 l 511 415 q 575 406 529 415 q 621 386 621 396 q 618 367 618 381 q 567 343 618 349 q 494 336 522 336 l 465 336 q 447 333 461 336 q 406 331 433 331 l 371 331 q 368 308 371 325 q 364 285 368 289 l 361 240 l 511 233 q 572 225 528 233 q 621 208 617 217 q 619 202 621 206 q 618 185 618 199 q 567 161 618 167 q 494 154 522 154 l 465 154 q 447 151 461 154 q 406 149 433 149 l 372 149 l 375 107 q 378 83 381 89 q 383 42 376 76 q 361 -28 397 -18 q 256 -11 324 -39 q 240 10 244 -3 q 232 32 229 15 q 225 44 232 36 q 218 58 218 51 q 215 82 218 64 l 210 125 l 210 131 q 190 132 194 131 q 123 125 163 125 q 46 144 83 125 l 21 156 l 13 185 q 18 225 13 200 q 92 233 42 229 q 153 236 129 233 l 154 236 l 217 240 l 221 308 l 221 314 q 190 314 200 311 z "},"":{"ha":350,"x_min":90,"x_max":292,"o":"m 104 165 q 113 196 113 174 l 113 201 l 114 218 q 115 229 114 219 l 113 236 q 169 256 153 253 q 196 254 185 260 l 211 250 q 224 249 224 250 l 224 244 l 231 242 l 229 240 q 219 221 229 239 l 215 193 l 208 174 q 207 160 208 164 q 209 156 210 158 q 208 149 208 153 q 207 136 208 146 q 206 115 206 126 q 207 74 206 104 l 206 61 l 199 46 q 204 38 203 39 l 204 29 q 200 15 201 17 l 200 7 l 204 -7 q 217 -83 204 -29 l 217 -110 l 224 -124 l 224 -128 q 226 -133 225 -132 q 226 -143 226 -135 q 230 -155 232 -151 q 238 -169 228 -158 l 243 -183 q 243 -201 247 -190 q 229 -214 239 -211 q 196 -217 219 -217 q 161 -211 172 -217 l 157 -211 q 139 -201 150 -210 q 129 -192 126 -201 q 126 -187 129 -189 q 119 -184 122 -186 q 115 -179 115 -182 q 114 -175 115 -176 q 111 -162 114 -174 q 104 -154 104 -162 l 104 -146 q 103 -140 104 -142 q 106 -135 103 -139 q 99 -71 103 -132 q 93 10 96 -6 q 90 40 94 26 q 94 63 93 61 q 95 70 96 64 q 94 85 94 76 q 94 108 94 100 q 94 126 92 119 q 97 136 97 132 l 103 149 l 104 165 m 174 883 l 172 890 q 224 907 208 904 q 257 897 240 910 q 285 889 285 890 l 285 885 q 289 881 292 882 l 285 874 l 272 863 l 258 817 q 257 803 258 807 l 257 799 q 253 786 256 794 q 243 717 243 768 l 239 706 l 229 694 q 232 686 231 688 l 232 678 q 228 664 229 665 l 228 656 l 229 642 q 230 569 229 583 q 225 549 231 556 l 225 539 l 229 528 l 229 519 q 232 503 232 511 q 235 489 236 490 q 240 472 233 488 q 242 458 239 465 q 239 442 244 450 q 222 432 233 433 q 189 433 211 431 q 156 443 167 436 q 135 458 147 446 q 126 468 124 458 q 124 476 129 472 q 118 482 118 479 q 115 493 118 488 l 115 499 q 110 508 110 500 l 110 517 q 109 522 110 521 q 111 528 108 524 q 110 544 108 531 q 115 596 113 557 q 121 643 117 635 l 121 703 q 132 731 132 726 q 132 741 132 735 q 133 753 132 747 q 133 765 133 760 q 133 774 133 771 l 150 811 l 157 831 q 159 839 157 839 q 161 844 161 839 q 167 863 163 850 q 174 883 172 875 z "},"":{"ha":511,"x_min":64,"x_max":435,"o":"m 204 460 q 265 335 210 393 q 303 388 306 342 q 257 476 301 435 q 225 501 246 490 q 204 460 204 493 m 76 428 q 138 576 71 519 q 76 689 79 643 q 114 817 71 771 q 217 865 151 863 q 376 813 324 869 q 431 700 428 756 q 403 640 435 644 q 343 653 367 638 q 311 671 331 651 q 296 690 303 675 q 276 734 289 706 q 246 765 263 763 q 225 724 225 757 q 293 592 231 658 q 357 517 326 554 q 422 382 421 433 q 404 315 424 331 q 354 257 358 263 q 422 118 421 169 q 404 51 424 67 q 249 -22 344 -19 q 90 38 153 -25 q 74 69 74 54 q 68 104 65 96 q 68 163 64 143 q 133 208 76 207 q 160 183 154 208 q 194 90 178 113 q 246 69 210 68 q 290 121 292 72 q 243 211 288 169 q 216 237 229 228 q 199 250 203 246 q 192 258 197 254 q 121 332 163 281 q 76 428 79 383 z "},"":{"ha":606,"x_min":83,"x_max":522,"o":"m 461 856 q 522 803 510 856 q 493 727 522 756 q 438 699 464 699 q 374 722 413 699 q 336 774 336 746 q 396 857 336 843 q 447 853 414 858 q 461 856 447 856 m 179 708 q 115 728 147 708 q 83 789 83 747 q 153 878 83 865 q 229 846 221 854 l 250 799 q 221 739 246 769 q 179 708 196 708 z "},"":{"ha":794,"x_min":51,"x_max":740,"o":"m 263 439 q 312 524 279 482 q 369 579 344 567 q 431 576 393 592 q 504 500 508 550 q 480 479 500 482 q 442 488 460 476 l 415 504 l 381 497 q 342 433 353 467 q 342 374 326 386 q 388 371 358 361 q 421 368 401 364 q 483 358 476 381 q 482 334 492 347 q 460 315 472 321 q 440 305 447 308 q 419 297 432 301 q 400 289 406 292 q 329 294 376 288 q 254 358 269 294 q 252 401 250 369 q 263 439 254 433 m 169 428 q 167 378 174 394 l 167 361 l 163 328 l 163 326 q 169 282 160 318 q 256 165 190 204 q 357 154 293 143 q 424 169 400 158 q 475 211 449 179 q 507 257 489 211 q 526 294 522 265 q 551 332 543 311 q 568 358 560 353 q 621 529 618 429 q 608 615 625 578 q 540 689 592 651 q 369 701 488 726 q 290 629 317 668 q 267 602 276 610 q 253 583 258 594 q 231 553 244 561 q 213 539 218 544 q 186 483 197 524 q 179 458 183 482 q 169 428 175 433 m 85 208 q 52 324 53 240 q 85 499 51 408 q 92 522 85 510 q 101 538 99 535 q 117 556 114 550 l 129 581 q 158 632 140 614 q 165 642 160 636 q 172 654 171 649 l 194 676 l 208 696 q 228 710 214 696 q 264 732 243 724 q 282 746 268 739 q 312 767 282 757 q 360 790 342 776 q 400 800 363 797 l 421 806 q 488 812 431 810 q 563 803 544 814 q 622 757 582 793 q 646 739 639 746 q 656 730 653 732 q 663 722 658 728 q 669 713 668 715 q 676 701 671 711 q 685 689 682 692 q 733 526 740 600 q 728 478 733 508 q 715 439 722 447 q 693 358 708 404 q 667 299 678 313 q 633 240 668 294 q 581 167 597 185 q 542 122 567 146 q 442 69 517 99 q 244 86 356 22 q 157 139 207 100 q 85 208 107 178 z "},"":{"ha":604,"x_min":82,"x_max":564,"o":"m 228 763 q 217 672 217 725 q 224 603 217 618 q 233 584 231 588 q 239 582 236 581 q 258 604 244 582 q 318 819 322 697 q 307 853 315 839 q 268 869 299 867 q 246 833 258 864 q 228 763 231 807 m 182 413 q 266 419 196 419 q 457 410 336 419 q 485 399 474 410 q 497 382 497 389 l 497 367 q 489 343 497 347 q 451 332 483 342 q 397 325 440 332 q 221 313 271 307 q 152 319 172 311 q 128 346 132 326 q 135 392 125 381 q 181 413 144 404 l 182 413 m 175 518 q 114 581 139 533 q 88 644 89 628 q 82 694 88 661 l 82 721 q 85 760 82 754 q 88 767 88 765 q 93 790 88 771 q 129 886 99 836 q 166 935 143 915 q 217 956 189 954 l 222 956 q 228 954 224 954 l 256 954 q 331 944 319 946 q 346 942 342 942 l 361 939 q 399 933 372 940 q 427 924 426 926 q 431 907 428 922 l 442 835 q 450 792 442 833 q 482 689 476 694 l 485 656 q 499 626 485 635 q 524 578 515 586 l 532 569 q 500 517 564 533 q 485 515 496 515 q 453 525 474 515 q 431 536 438 525 l 408 547 q 363 633 400 547 q 358 612 360 625 q 349 583 357 599 q 324 549 340 567 q 303 524 307 531 q 263 501 293 503 q 206 508 233 500 q 175 518 178 515 z "},"":{"ha":772,"x_min":49,"x_max":739,"o":"m 682 474 l 636 422 q 608 392 636 419 q 574 364 603 388 q 528 331 544 340 q 554 318 536 329 q 613 267 564 308 q 650 218 644 235 q 669 205 665 213 q 676 191 672 197 q 682 181 681 185 q 713 150 696 171 q 729 126 729 129 q 739 99 729 122 q 724 83 739 93 q 706 78 711 82 q 692 56 701 74 q 667 36 681 56 q 656 31 667 31 q 604 50 624 31 q 568 94 594 57 q 535 138 542 132 q 504 178 528 144 q 388 289 419 282 q 400 310 386 294 q 411 329 399 326 q 442 361 411 342 q 447 369 443 363 q 481 411 465 399 q 542 454 538 453 q 578 486 546 463 q 613 517 611 510 q 668 543 663 543 q 704 549 685 551 q 724 533 724 546 q 685 478 724 517 q 682 474 682 475 m 344 474 l 299 422 q 271 392 299 419 q 236 364 265 388 q 190 331 207 340 q 217 318 199 329 q 275 267 226 308 q 313 218 307 235 q 331 205 328 213 q 339 191 335 197 q 344 181 343 185 q 375 150 358 171 q 392 126 392 129 q 401 99 392 122 q 386 83 401 93 q 369 78 374 82 q 354 56 364 74 q 329 36 343 56 q 318 31 329 31 q 267 50 286 31 q 231 94 257 57 q 197 138 204 132 q 167 178 190 144 q 50 289 82 282 q 63 310 49 294 q 74 329 61 326 q 104 361 74 342 q 110 369 106 363 q 143 411 128 399 q 204 454 200 453 q 241 486 208 463 q 275 517 274 510 q 331 543 325 543 q 367 549 347 551 q 386 533 386 546 q 347 478 386 517 q 344 474 344 475 z "},"":{"ha":889,"x_min":92,"x_max":815,"o":"m 661 185 q 650 219 650 200 q 644 259 650 238 q 639 302 638 281 q 640 335 640 324 q 635 353 639 346 q 628 367 631 361 q 616 376 625 372 q 600 381 607 379 q 578 383 593 382 q 551 383 563 383 q 517 382 540 382 l 478 382 l 289 379 q 143 369 256 369 q 102 392 113 369 q 92 452 92 414 q 113 494 92 490 q 163 504 136 504 q 219 510 189 504 q 307 515 250 515 l 668 507 l 692 504 q 753 485 728 504 q 779 451 779 465 q 772 405 772 418 q 778 368 772 392 q 791 328 785 344 q 797 299 797 313 q 803 277 804 288 q 806 264 803 267 q 815 225 815 254 q 792 196 815 217 l 765 185 q 743 183 763 182 q 700 181 736 181 q 661 185 688 185 z "},"":{"ha":565,"x_min":43,"x_max":536,"o":"m 50 368 q 108 379 76 379 q 171 385 139 379 q 258 390 203 390 l 425 382 l 449 379 q 510 360 485 379 q 535 330 536 340 q 533 307 535 319 q 531 289 532 294 q 500 271 526 276 l 478 267 q 436 261 453 267 q 400 255 415 261 q 346 249 385 249 l 324 244 q 240 232 279 231 q 206 226 224 225 q 183 222 188 226 q 118 214 169 214 q 69 238 106 214 l 50 264 q 49 286 47 267 q 43 329 43 296 q 50 368 50 339 z "},"":{"ha":594,"x_min":32,"x_max":546,"o":"m 340 736 q 305 745 313 747 q 292 740 297 743 q 283 730 286 736 q 279 719 281 724 q 276 703 278 714 q 274 689 275 693 q 326 703 315 701 q 342 718 336 706 q 340 736 347 731 m 258 649 q 251 650 251 651 q 239 628 251 649 q 224 600 226 607 q 197 588 206 586 q 168 617 188 590 q 171 626 169 618 q 174 642 172 633 q 176 651 176 650 q 190 675 185 658 q 207 711 194 692 q 226 735 221 725 q 249 763 232 746 q 283 783 258 783 q 336 783 303 786 q 356 776 342 779 q 388 759 371 774 q 410 726 406 744 q 403 715 414 721 q 393 707 393 708 q 319 665 385 692 q 297 654 317 664 q 346 592 357 604 q 342 589 344 589 q 332 586 340 589 q 301 586 314 582 q 286 617 290 615 q 258 649 281 639 m 454 811 q 394 846 433 842 q 333 850 356 850 q 178 779 263 853 q 122 692 144 749 q 113 669 115 674 q 115 572 97 638 q 133 546 119 558 q 147 528 133 543 q 156 514 149 518 q 183 504 163 510 q 281 489 247 472 q 304 496 299 489 l 344 525 q 356 538 347 528 q 374 556 365 549 q 395 579 382 564 q 418 600 408 594 q 443 636 435 632 q 464 669 451 640 q 479 715 476 699 q 454 811 485 779 m 282 913 q 451 893 374 913 q 483 864 456 893 q 524 813 510 835 q 533 793 524 803 q 541 709 546 746 q 524 653 536 672 q 499 601 517 631 q 443 521 479 561 q 400 478 410 481 q 325 421 393 468 q 258 406 281 404 q 213 426 217 424 q 196 432 208 428 q 151 453 169 440 q 124 476 128 476 q 97 503 104 489 q 74 522 88 514 l 53 558 q 42 581 50 558 q 38 597 40 583 q 32 619 35 610 q 35 663 32 642 q 54 725 35 692 q 104 799 58 746 q 131 819 108 804 q 146 840 131 825 q 163 856 161 856 l 207 890 q 222 894 211 892 q 257 908 249 903 q 282 913 281 908 z "},"":{"ha":617,"x_min":83,"x_max":532,"o":"m 189 840 q 283 846 236 846 q 400 840 328 846 q 478 833 472 835 q 531 810 532 818 q 530 792 531 803 q 528 779 529 782 q 493 765 524 771 q 439 758 458 758 l 417 758 q 404 756 414 758 q 372 753 394 753 l 340 753 q 297 749 329 751 q 264 743 282 739 q 222 734 256 739 q 162 729 188 729 q 108 749 136 729 l 90 760 l 83 789 q 88 829 83 811 q 137 836 106 835 q 188 840 168 838 l 189 840 z "},"":{"ha":560,"x_min":103,"x_max":515,"o":"m 376 936 q 350 966 374 951 q 307 980 326 981 q 265 970 288 979 q 238 947 243 961 q 231 761 201 883 q 258 724 235 743 q 313 705 297 704 q 353 724 328 706 q 385 754 379 742 l 394 786 q 399 800 401 790 q 413 864 410 807 q 397 874 400 874 l 392 879 q 388 896 392 883 q 379 918 381 903 q 376 936 378 933 m 299 1061 l 306 1061 q 360 1059 331 1061 q 422 1036 389 1057 q 476 988 456 1015 q 504 945 496 960 q 514 903 513 931 q 508 869 515 875 q 483 857 500 863 q 489 813 489 840 q 481 739 496 764 q 461 686 478 715 q 425 638 444 657 q 357 617 400 619 q 267 621 304 617 q 193 643 229 625 q 122 725 139 678 q 103 823 104 797 q 106 874 103 849 q 108 888 108 874 q 167 1015 119 974 q 299 1061 208 1061 z "},"":{"ha":717,"x_min":75,"x_max":657,"o":"m 249 201 l 567 193 l 588 190 q 636 173 615 190 q 657 147 657 156 q 656 131 657 139 q 655 120 656 124 q 651 111 654 117 q 644 103 649 106 q 578 85 635 94 q 484 78 557 85 q 376 69 411 71 q 310 62 364 67 q 235 58 257 57 q 208 53 225 53 q 188 50 192 53 q 135 42 175 42 q 96 64 126 42 l 81 88 q 79 107 79 89 q 75 146 75 117 q 81 181 81 154 q 126 190 99 189 q 168 193 154 192 l 169 193 q 249 201 203 201 m 301 306 q 290 343 290 324 q 288 375 290 363 l 288 376 q 279 442 279 403 l 279 461 q 235 461 250 458 q 208 456 225 456 q 188 453 192 456 q 135 444 175 444 q 96 467 126 444 l 81 490 q 79 510 79 492 q 75 549 75 519 q 81 583 81 557 q 126 593 99 592 q 168 596 154 594 l 169 596 q 236 604 203 604 q 285 603 269 604 q 290 715 286 656 q 310 754 290 738 q 338 771 329 771 q 356 770 347 771 q 369 769 365 769 q 380 767 374 768 q 389 761 386 765 q 408 707 400 750 q 419 600 408 689 q 567 596 517 596 l 588 593 q 636 576 615 593 q 657 550 657 558 q 656 534 657 542 q 655 523 656 526 q 651 514 654 519 q 644 506 649 508 q 578 488 635 497 l 435 476 q 438 431 438 438 q 444 406 444 418 q 447 392 443 394 q 456 349 456 385 q 432 318 456 339 l 406 306 q 383 304 404 304 q 340 300 372 300 q 301 306 332 306 z "},"":{"ha":476,"x_min":64,"x_max":408,"o":"m 193 1058 l 233 1063 q 281 1054 233 1063 l 285 1054 q 294 1046 289 1054 l 304 1039 q 326 1020 306 1039 q 350 995 347 1001 q 362 984 353 989 q 386 953 371 979 q 397 892 401 926 q 373 824 393 857 q 293 718 353 792 q 200 624 272 693 q 341 622 338 624 q 371 600 344 619 q 385 577 375 596 q 397 553 396 558 q 403 541 400 546 q 406 532 406 536 q 397 521 408 521 q 313 531 388 531 q 198 530 239 531 q 157 531 157 529 l 146 532 q 133 538 142 532 q 123 542 125 544 q 113 544 121 539 q 81 579 90 558 q 72 618 64 606 q 94 649 81 631 q 113 674 108 667 q 130 694 118 682 q 146 714 142 707 q 171 739 150 726 q 224 808 203 794 q 240 840 226 818 q 288 918 274 876 q 283 947 292 936 q 253 949 275 957 q 143 850 190 924 q 127 851 133 847 q 106 865 121 854 q 88 907 88 875 q 96 953 88 939 q 111 979 111 972 q 122 990 115 989 q 125 1003 128 999 q 142 1026 129 1007 q 163 1044 153 1040 q 182 1054 174 1047 q 193 1058 185 1054 z "},"":{"ha":476,"x_min":67,"x_max":413,"o":"m 219 728 q 169 764 185 715 q 181 825 158 806 q 222 835 206 833 q 240 837 238 836 q 244 840 242 838 q 264 851 251 844 q 290 874 282 869 q 315 924 324 903 q 297 939 313 935 q 207 924 267 950 q 124 926 139 906 q 100 1003 88 990 q 101 1011 103 1003 q 117 1025 104 1026 l 126 1025 q 150 1025 135 1031 q 182 1025 174 1022 l 199 1031 q 224 1036 217 1031 q 238 1042 231 1042 q 250 1042 244 1042 q 274 1044 257 1040 q 297 1044 290 1049 l 315 1039 q 325 1036 319 1039 q 333 1033 331 1033 q 338 1031 335 1032 q 346 1029 342 1031 q 347 1026 344 1028 q 361 1022 350 1025 q 381 993 378 1008 q 405 928 397 954 q 381 871 413 901 q 369 860 378 869 q 324 822 357 847 q 358 801 351 818 q 367 794 361 801 q 381 747 375 781 l 392 711 q 386 638 403 668 l 376 611 q 331 561 367 576 l 285 543 q 239 523 261 528 q 165 521 217 518 q 88 558 104 533 q 71 615 71 582 q 103 643 67 643 q 139 631 122 643 q 202 625 160 619 q 278 655 244 631 q 315 690 311 679 q 321 719 322 699 q 304 742 319 740 q 263 736 296 744 q 219 728 240 728 z "},"":{"ha":435,"x_min":78,"x_max":358,"o":"m 264 918 l 286 917 q 347 863 318 901 q 329 839 358 849 q 314 825 328 835 q 256 772 283 801 q 213 729 228 743 q 131 664 185 672 q 95 681 113 664 q 86 733 78 699 q 133 804 93 756 q 156 840 133 808 q 264 918 199 896 z "},"":{"ha":639,"x_min":68,"x_max":613,"o":"m 76 400 l 82 458 l 93 508 q 107 551 93 529 q 126 578 121 574 q 165 596 132 589 q 183 594 172 594 q 204 591 194 593 q 239 569 214 589 q 257 543 253 557 q 263 508 261 529 q 263 482 264 488 q 260 469 261 476 q 249 389 253 432 q 244 363 244 379 l 231 239 q 232 153 231 165 q 238 133 233 140 q 250 125 239 128 q 265 131 261 122 q 274 150 265 143 q 292 189 274 153 q 297 204 292 194 q 303 222 301 214 q 307 232 306 229 q 321 263 313 236 q 338 294 321 278 q 351 328 338 299 l 354 340 q 378 414 379 393 l 385 482 l 399 538 q 454 592 418 582 q 499 586 471 599 q 535 562 528 574 q 543 539 543 550 l 543 514 l 542 499 l 542 424 q 544 297 542 340 q 593 83 553 172 q 576 15 613 39 q 528 1 556 1 q 463 38 481 1 q 444 75 453 51 q 433 106 436 99 q 422 136 425 133 l 411 163 q 335 -4 389 92 q 296 -35 324 -22 q 224 -12 268 -28 l 224 -176 q 229 -239 224 -229 q 161 -268 208 -275 q 136 -260 142 -265 l 136 -261 q 100 -227 117 -250 q 83 -183 83 -204 q 82 -135 89 -147 q 81 -79 79 -90 q 78 -56 82 -68 q 74 -1 78 -22 q 78 14 78 10 q 68 111 68 88 q 72 182 68 136 l 72 203 q 70 314 68 293 q 72 349 72 335 q 74 374 69 354 q 76 400 78 393 z "},"":{"ha":722,"x_min":69,"x_max":626,"o":"m 471 401 l 469 461 q 483 575 469 519 q 486 597 483 583 q 493 757 490 633 q 519 874 494 801 q 561 876 544 876 q 626 828 624 876 q 606 558 613 694 q 590 378 599 422 q 596 269 596 344 q 525 -11 596 -11 q 479 28 483 -11 q 471 193 471 82 q 474 321 471 304 l 468 356 l 471 401 m 267 226 l 269 274 q 258 381 269 297 q 203 401 247 381 q 69 522 76 401 q 93 629 69 599 q 117 686 93 639 q 153 744 142 733 q 214 800 164 756 q 244 828 221 822 q 267 844 250 828 q 303 875 285 861 l 346 879 q 400 868 361 864 q 415 866 408 867 q 428 863 421 865 q 442 843 442 856 q 438 831 442 840 q 425 746 425 804 l 426 715 q 422 685 426 710 q 417 647 417 660 q 403 531 417 633 q 389 347 389 428 q 395 228 389 267 q 401 144 401 190 q 383 6 401 7 q 369 8 375 6 q 344 11 363 11 l 296 10 q 279 17 283 10 q 272 50 275 24 l 272 147 q 269 200 272 182 q 267 226 267 218 z "},"":{"ha":278,"x_min":40,"x_max":224,"o":"m 188 186 q 146 193 174 186 q 89 207 118 200 q 64 221 64 217 q 49 246 49 236 q 46 285 40 263 q 54 321 51 307 l 67 344 q 82 386 67 354 q 89 408 85 404 q 124 428 111 422 l 125 428 q 178 413 151 432 l 192 397 q 210 381 193 392 q 206 344 211 376 q 222 307 215 338 q 213 210 224 278 q 208 196 215 203 q 188 186 201 189 z "},"":{"ha":446,"x_min":83,"x_max":365,"o":"m 101 -234 q 98 -231 101 -234 q 89 -215 94 -228 q 83 -178 83 -201 q 99 -131 83 -154 q 136 -107 115 -107 q 164 -135 164 -107 q 163 -157 164 -149 q 174 -183 168 -165 q 185 -208 179 -201 q 194 -215 192 -215 l 201 -215 q 250 -194 224 -215 q 257 -147 257 -182 q 238 -99 257 -112 l 222 -68 q 169 -3 210 -49 l 267 10 q 328 -82 269 7 q 361 -173 357 -144 q 335 -244 365 -201 q 240 -287 310 -283 q 133 -261 206 -292 q 119 -249 131 -258 q 101 -234 107 -240 z "},"":{"ha":414,"x_min":69,"x_max":344,"o":"m 306 649 q 303 579 303 615 q 294 534 303 543 q 251 528 285 525 q 228 543 233 532 q 222 549 228 547 q 197 605 199 554 q 199 663 196 656 q 199 672 203 663 q 199 717 196 704 q 202 796 201 729 q 196 867 203 863 q 181 863 189 871 q 163 843 169 849 q 116 832 146 826 q 79 843 86 838 q 71 859 72 849 q 81 878 69 869 q 115 910 106 893 l 128 922 q 155 943 149 939 q 163 953 161 947 q 172 967 165 960 q 179 979 179 974 q 196 990 188 985 q 221 1021 203 1003 l 233 1036 q 246 1042 240 1040 q 258 1048 251 1044 q 283 1050 264 1051 q 302 1047 301 1049 q 305 1041 303 1044 q 311 1038 307 1038 q 319 1032 315 1038 l 336 1026 l 344 1014 q 339 1004 339 1011 l 331 939 q 314 726 318 897 q 310 688 310 710 q 306 649 310 667 z "},"":{"ha":549,"x_min":110,"x_max":483,"o":"m 286 868 q 247 836 261 868 q 240 650 211 772 q 260 613 243 636 q 297 594 268 593 q 349 675 324 594 q 353 689 356 679 q 367 753 364 696 q 351 763 354 763 l 346 768 q 342 785 346 772 q 333 807 335 792 q 286 868 328 869 m 168 425 q 252 432 182 432 q 443 422 322 432 q 472 412 460 422 q 483 394 483 401 l 483 379 q 475 356 483 361 q 438 344 469 354 q 383 339 426 344 q 207 325 257 319 q 138 331 158 324 q 114 358 118 339 q 121 405 111 393 q 167 425 131 417 l 168 425 m 281 950 l 288 950 q 392 926 360 950 q 440 876 424 901 q 471 799 469 833 q 465 760 472 764 q 449 746 461 751 q 455 688 453 728 q 446 628 457 649 q 393 526 440 585 q 264 507 369 500 q 189 532 214 515 q 125 614 135 569 q 110 715 111 693 q 113 763 110 738 q 115 776 115 763 q 165 904 124 864 q 281 950 203 950 z "},"":{"ha":772,"x_min":35,"x_max":725,"o":"m 475 422 l 429 474 q 426 478 429 475 q 419 486 424 481 q 388 534 388 522 q 407 549 388 546 q 443 543 426 551 q 499 517 449 543 q 518 497 500 510 q 546 476 536 485 q 569 454 568 457 q 631 411 574 453 q 657 381 646 399 q 669 361 668 363 q 700 329 700 342 q 711 310 713 326 q 724 289 725 294 q 607 178 692 282 q 576 138 583 144 q 554 111 569 132 q 507 49 517 57 q 482 35 497 40 q 456 31 467 31 q 444 36 444 31 q 419 56 431 56 q 405 78 410 74 q 388 83 400 82 q 372 99 372 93 q 382 126 382 122 q 399 150 382 129 q 429 181 415 171 q 435 191 431 185 q 442 205 439 197 q 461 218 444 213 q 508 275 468 240 q 557 318 549 310 q 583 331 575 329 q 538 364 567 340 q 503 392 508 388 q 475 422 475 419 m 138 422 l 92 474 q 89 478 92 475 q 82 486 86 481 q 50 534 50 522 q 69 549 50 546 q 106 543 89 551 q 161 517 111 543 q 181 497 163 510 q 208 476 199 485 q 232 454 231 458 q 293 411 236 453 q 319 381 308 399 q 332 361 331 363 q 363 329 363 342 q 374 310 375 326 q 386 289 388 294 q 269 178 354 282 q 239 138 246 144 q 217 111 232 132 q 169 49 179 57 q 144 35 160 40 q 118 31 129 31 q 107 36 107 31 q 82 56 93 56 q 67 78 72 74 q 50 83 63 82 q 35 99 35 93 q 44 126 44 122 q 61 150 44 129 q 92 181 78 171 q 97 191 93 185 q 104 205 101 197 q 124 218 107 213 q 171 275 131 240 q 219 318 211 310 q 246 331 238 329 q 200 364 229 340 q 165 392 171 388 q 138 422 138 419 z "},"":{"ha":1115,"x_min":69,"x_max":1072,"o":"m 850 326 q 854 356 853 344 q 868 407 856 368 l 868 413 q 858 401 863 407 q 849 388 854 394 q 839 375 843 381 q 794 315 799 324 q 776 288 789 306 q 717 208 776 288 q 710 201 710 203 q 716 201 710 200 q 731 203 722 203 l 744 204 q 779 211 751 204 q 822 219 808 211 q 836 249 828 221 q 840 279 836 256 q 844 314 844 303 q 850 325 850 317 l 850 326 m 306 538 q 303 468 303 504 q 294 423 303 432 q 251 417 285 414 q 228 432 233 421 q 222 438 228 436 q 197 494 199 443 q 199 551 196 544 q 199 561 203 551 q 199 606 196 593 q 202 685 201 618 q 196 756 203 751 q 181 751 189 760 q 163 732 169 738 q 116 721 146 715 q 79 732 86 726 q 71 748 72 738 q 81 767 69 758 q 115 799 106 782 l 128 811 q 155 832 149 828 q 163 842 161 836 q 172 856 165 849 q 179 868 179 863 q 196 879 188 874 q 221 910 203 892 l 233 925 q 246 931 240 929 q 258 937 251 933 q 283 939 264 940 q 302 935 301 938 q 305 930 303 933 q 311 926 307 926 q 319 921 315 926 l 336 915 l 344 903 q 339 893 339 900 l 331 828 q 314 615 318 786 q 310 577 310 599 q 306 538 310 556 m 744 847 l 750 847 q 760 845 753 846 q 771 843 767 844 q 782 765 814 811 q 702 653 721 689 q 661 581 683 617 q 471 268 650 563 l 428 183 q 353 8 376 83 q 303 4 336 -18 q 300 6 301 6 q 297 10 299 7 q 294 15 296 13 q 286 22 292 18 q 264 86 271 39 q 269 124 264 111 q 313 229 285 157 q 344 285 325 246 q 372 335 351 304 l 460 494 q 508 576 488 539 q 536 615 517 585 l 564 671 q 635 765 622 744 q 661 797 647 786 q 672 813 663 801 q 703 838 682 825 q 744 847 724 850 m 588 149 l 585 160 q 599 208 583 171 l 606 215 q 608 220 606 217 q 611 228 610 224 q 617 233 615 229 q 626 244 619 233 q 642 268 639 263 q 649 276 646 269 q 661 292 653 282 q 672 303 669 301 q 679 317 669 303 q 692 335 681 319 q 707 357 704 351 l 717 367 l 735 392 l 761 421 q 781 446 764 429 q 801 467 782 450 q 831 489 821 485 q 838 497 838 496 q 849 499 839 499 q 863 497 858 499 q 893 478 867 496 q 908 479 896 479 q 972 450 924 479 q 971 432 976 450 q 939 318 950 383 q 928 246 928 253 q 944 244 929 244 l 988 247 q 1008 243 1000 247 q 1036 226 1024 243 q 1042 219 1036 222 q 1046 211 1042 214 l 1053 208 l 1063 193 q 1072 184 1072 189 q 1061 176 1072 179 q 1017 179 1042 183 q 986 175 992 175 q 917 161 928 165 l 911 147 q 908 128 911 132 q 905 15 901 29 q 908 -12 908 1 q 911 -25 911 -17 q 908 -35 914 -28 q 895 -40 907 -40 q 876 -36 883 -39 q 847 -31 853 -36 q 828 -25 840 -31 q 821 -17 828 -22 q 811 -12 814 -12 l 804 -12 q 801 11 801 -4 q 808 76 804 60 l 808 89 q 810 104 810 93 l 811 128 q 811 144 815 144 q 753 128 793 144 q 708 110 713 111 q 700 107 703 108 q 688 104 694 104 q 649 107 667 94 q 640 113 649 111 q 631 113 632 114 q 624 117 631 111 q 615 126 618 122 q 603 132 611 131 l 594 140 q 588 149 594 144 z "},"":{"ha":1115,"x_min":69,"x_max":1006,"o":"m 306 538 q 303 468 303 504 q 294 423 303 432 q 251 417 285 414 q 228 432 233 421 q 222 438 228 436 q 197 494 199 443 q 199 551 196 544 q 199 561 203 551 q 199 606 196 593 q 202 685 201 618 q 196 756 203 751 q 181 751 189 760 q 163 732 169 738 q 116 721 146 715 q 79 732 86 726 q 71 748 72 738 q 81 767 69 758 q 115 799 106 782 l 128 811 q 155 832 149 828 q 163 842 161 836 q 172 856 165 849 q 179 868 179 863 q 196 879 188 874 q 221 910 203 892 l 233 925 q 246 931 240 929 q 258 937 251 933 q 283 939 264 940 q 302 935 301 938 q 305 930 303 933 q 311 926 307 926 q 319 921 315 926 l 336 915 l 344 903 q 339 893 339 900 l 331 828 q 314 615 318 786 q 310 577 310 599 q 306 538 310 556 m 790 503 l 831 507 l 878 499 l 882 499 q 892 490 886 499 l 901 483 q 924 465 903 483 q 947 440 944 446 q 959 428 950 433 q 983 397 968 424 q 994 336 999 371 q 970 269 990 301 q 890 163 950 236 q 797 68 869 138 q 938 66 935 68 q 968 44 942 64 q 983 22 972 40 q 994 -3 993 3 q 1000 -15 997 -10 q 1003 -24 1003 -19 q 994 -35 1006 -35 q 910 -25 985 -25 q 795 -26 836 -25 q 754 -25 754 -26 l 743 -24 q 731 -17 739 -24 q 720 -14 722 -11 q 710 -11 718 -17 q 678 24 688 3 q 669 63 661 50 q 692 93 678 75 q 710 119 706 111 q 727 139 715 126 q 743 158 739 151 q 768 183 747 171 q 821 253 800 239 q 838 285 824 263 q 885 363 871 321 q 881 391 889 381 q 850 393 872 401 q 740 294 788 368 q 724 295 731 292 q 703 310 718 299 q 685 351 685 319 q 693 397 685 383 q 708 424 708 417 q 719 435 713 433 q 722 447 725 443 q 739 471 726 451 q 760 488 750 485 q 779 499 771 492 q 790 503 782 499 m 731 847 l 736 847 q 746 845 739 846 q 757 843 753 844 q 768 765 800 811 q 688 653 707 689 q 647 581 669 617 q 457 268 636 563 l 414 183 q 339 8 363 83 q 289 4 322 -18 q 286 6 288 6 q 283 10 285 7 q 280 15 282 13 q 272 22 278 18 q 250 86 257 39 q 256 124 250 111 q 299 229 271 157 q 331 285 311 246 q 358 335 338 304 l 446 494 q 494 576 474 539 q 522 615 503 585 l 550 671 q 621 765 608 744 q 647 797 633 786 q 658 813 649 801 q 689 838 668 825 q 731 847 710 850 z "},"":{"ha":1115,"x_min":67,"x_max":1072,"o":"m 850 326 q 854 356 853 344 q 868 407 856 368 l 868 413 q 858 401 863 407 q 849 388 854 394 q 839 375 843 381 q 794 315 799 324 q 776 288 789 306 q 717 208 776 288 q 710 201 710 203 q 716 201 710 200 q 731 203 722 203 l 744 204 q 779 211 751 204 q 822 219 808 211 q 836 249 828 221 q 840 279 836 256 q 844 314 844 303 q 850 325 850 317 l 850 326 m 219 617 q 169 653 185 604 q 181 714 158 694 q 222 724 206 722 q 240 726 238 725 q 244 729 242 726 q 264 740 251 733 q 290 763 282 758 q 315 813 324 792 q 297 828 313 824 q 207 813 267 839 q 124 815 139 794 q 100 892 88 879 q 101 900 103 892 q 117 914 104 915 l 126 914 q 150 914 135 919 q 182 914 174 911 l 199 919 q 224 925 217 919 q 238 931 231 931 q 250 931 244 931 q 274 933 257 929 q 297 933 290 938 l 315 928 q 325 925 319 928 q 333 922 331 922 q 338 920 335 921 q 346 918 342 919 q 347 915 344 917 q 361 911 350 914 q 381 882 378 897 q 405 817 397 843 q 381 760 413 790 q 369 749 378 758 q 324 711 357 736 q 358 690 351 707 q 367 683 361 690 q 381 636 375 669 l 392 600 q 386 526 403 557 l 376 500 q 331 450 367 465 l 285 432 q 239 412 261 417 q 165 410 217 407 q 88 447 104 422 q 71 504 71 471 q 103 532 67 532 q 139 519 122 532 q 202 514 160 508 q 278 544 244 519 q 315 579 311 568 q 321 608 322 588 q 304 631 319 629 q 263 625 296 633 q 219 617 240 617 m 771 847 l 776 847 q 788 845 781 846 q 797 843 794 844 q 808 765 840 811 q 728 653 747 689 q 686 581 710 617 q 497 268 676 563 l 454 183 q 379 8 403 83 q 329 4 363 -18 q 326 6 328 6 q 324 10 325 7 q 320 15 322 13 q 314 22 318 18 q 290 86 297 39 q 296 124 290 111 q 339 229 311 157 q 371 285 351 246 q 399 335 378 304 l 486 494 q 535 576 514 539 q 563 615 543 585 l 590 671 q 661 765 649 744 q 688 797 674 786 q 699 813 689 801 q 729 838 708 825 q 771 847 750 850 m 588 149 l 585 160 q 599 208 583 171 l 606 215 q 608 220 606 217 q 611 228 610 224 q 617 233 615 229 q 626 244 619 233 q 642 268 639 263 q 649 276 646 269 q 661 292 653 282 q 672 303 669 301 q 679 317 669 303 q 692 335 681 319 q 707 357 704 351 l 717 367 l 735 392 l 761 421 q 781 446 764 429 q 801 467 782 450 q 831 489 821 485 q 838 497 838 496 q 849 499 839 499 q 863 497 858 499 q 893 478 867 496 q 908 479 896 479 q 972 450 924 479 q 971 432 976 450 q 939 318 950 383 q 928 246 928 253 q 944 244 929 244 l 988 247 q 1008 243 1000 247 q 1036 226 1024 243 q 1042 219 1036 222 q 1046 211 1042 214 l 1053 208 l 1063 193 q 1072 184 1072 189 q 1061 176 1072 179 q 1017 179 1042 183 q 986 175 992 175 q 917 161 928 165 l 911 147 q 908 128 911 132 q 905 15 901 29 q 908 -12 908 1 q 911 -25 911 -17 q 908 -35 914 -28 q 895 -40 907 -40 q 876 -36 883 -39 q 847 -31 853 -36 q 828 -25 840 -31 q 821 -17 828 -22 q 811 -12 814 -12 l 804 -12 q 801 11 801 -4 q 808 76 804 60 l 808 89 q 810 104 810 93 l 811 128 q 811 144 815 144 q 753 128 793 144 q 708 110 713 111 q 700 107 703 108 q 688 104 694 104 q 649 107 667 94 q 640 113 649 111 q 631 113 632 114 q 624 117 631 111 q 615 126 618 122 q 603 132 611 131 l 594 140 q 588 149 594 144 z "},"":{"ha":610,"x_min":39,"x_max":549,"o":"m 418 503 l 372 507 q 351 525 360 522 q 307 558 318 558 q 297 578 296 560 q 310 613 297 597 q 361 679 329 656 q 385 686 376 686 q 430 680 393 686 q 472 657 467 674 l 472 625 q 466 594 472 599 q 460 572 460 589 l 456 543 q 440 524 446 536 q 433 501 439 504 q 418 503 428 499 m 226 -128 q 219 -155 219 -151 q 215 -164 218 -158 q 204 -194 204 -186 l 204 -214 q 218 -226 204 -226 q 274 -206 239 -222 q 324 -177 310 -190 q 363 -126 339 -164 q 388 -75 386 -87 q 395 -56 390 -62 q 405 -23 400 -49 q 410 10 410 3 q 403 18 410 18 q 413 29 388 21 q 428 31 417 31 q 472 22 467 31 q 506 10 488 22 q 529 -17 524 -1 q 517 -124 549 -74 q 478 -192 499 -176 q 449 -247 454 -242 q 440 -253 444 -251 q 435 -270 435 -267 q 422 -281 435 -274 q 403 -294 410 -289 q 389 -311 389 -306 q 371 -315 379 -311 q 346 -329 351 -319 q 315 -337 338 -329 q 240 -342 283 -346 q 214 -328 233 -339 q 192 -316 194 -318 q 185 -312 189 -314 q 165 -297 174 -308 q 142 -287 153 -294 q 107 -268 128 -275 l 83 -254 q 56 -250 67 -251 q 42 -231 50 -250 q 106 -36 39 -158 q 120 -6 110 -26 q 132 22 131 14 q 207 181 146 53 q 278 326 268 308 q 285 334 279 326 q 293 343 290 342 l 300 358 q 315 369 300 365 q 338 371 329 372 l 382 371 q 421 359 415 365 q 426 324 426 353 q 389 172 426 232 q 363 117 375 138 q 349 86 351 97 q 326 56 346 75 q 310 22 318 33 q 290 -4 303 19 q 276 -35 276 -28 q 264 -51 276 -43 q 256 -69 264 -57 q 247 -98 256 -89 q 239 -119 239 -107 q 226 -128 239 -128 z "},"":{"ha":649,"x_min":32,"x_max":640,"o":"m 264 375 q 297 381 267 378 q 367 406 326 385 q 365 439 368 406 q 358 522 361 497 q 353 569 356 556 q 332 679 353 596 l 271 472 q 256 367 251 386 l 264 375 m 178 1190 l 200 1192 q 308 1114 265 1169 q 331 1078 331 1082 q 378 1007 371 1029 q 369 955 386 972 q 333 938 351 938 q 251 1003 279 946 q 208 1047 236 1017 q 163 1089 181 1075 q 135 1113 136 1108 q 117 1136 106 1122 q 178 1190 146 1175 m 76 335 l 85 396 q 90 432 85 414 q 114 503 90 456 q 126 539 114 506 q 153 621 126 542 l 169 661 q 176 683 169 667 q 187 715 183 699 q 196 746 190 731 q 231 810 215 783 q 339 860 260 865 l 383 856 q 447 832 425 844 q 490 805 479 819 q 500 757 501 790 q 508 613 501 740 q 515 483 515 485 l 522 424 q 553 224 522 415 l 583 126 q 613 45 611 49 q 625 15 615 42 q 599 -46 640 -31 q 543 -39 561 -51 q 511 -26 536 -39 q 495 -13 508 -19 q 478 -3 482 -7 q 450 40 463 1 q 435 63 446 43 q 429 94 425 82 q 419 146 419 107 q 407 211 407 167 q 393 281 407 256 q 242 246 322 249 q 226 240 226 246 q 218 196 226 228 l 194 43 q 169 -65 208 -60 q 133 -71 158 -65 q 90 -61 107 -76 q 45 -24 58 -43 q 33 18 32 -6 q 40 101 35 38 q 42 133 43 104 q 46 176 42 161 l 68 263 q 79 304 72 265 q 78 318 78 307 l 76 335 z "},"":{"ha":649,"x_min":32,"x_max":640,"o":"m 501 1196 l 524 1194 q 585 1140 556 1179 q 567 1117 596 1126 q 551 1103 565 1113 q 493 1050 521 1079 q 450 1007 465 1021 q 368 942 422 950 q 333 959 350 942 q 324 1011 315 976 q 371 1082 331 1033 q 393 1118 371 1086 q 501 1196 436 1174 m 264 375 q 297 381 267 378 q 367 406 326 385 q 365 439 368 406 q 358 522 361 497 q 353 569 356 556 q 332 679 353 596 l 271 472 q 256 367 251 386 l 264 375 m 76 335 l 85 396 q 90 432 85 414 q 114 503 90 456 q 126 539 114 506 q 153 621 126 542 l 169 661 q 176 683 169 667 q 187 715 183 699 q 196 746 190 731 q 231 810 215 783 q 339 860 260 865 l 383 856 q 447 832 425 844 q 490 805 479 819 q 500 757 501 790 q 508 613 501 740 q 515 483 515 485 l 522 424 q 553 224 522 415 l 583 126 q 613 45 611 49 q 625 15 615 42 q 599 -46 640 -31 q 543 -39 561 -51 q 511 -26 536 -39 q 495 -13 508 -19 q 478 -3 482 -7 q 450 40 463 1 q 435 63 446 43 q 429 94 425 82 q 419 146 419 107 q 407 211 407 167 q 393 281 407 256 q 242 246 322 249 q 226 240 226 246 q 218 196 226 228 l 194 43 q 169 -65 208 -60 q 133 -71 158 -65 q 90 -61 107 -76 q 45 -24 58 -43 q 33 18 32 -6 q 40 101 35 38 q 42 133 43 104 q 46 176 42 161 l 68 263 q 79 304 72 265 q 78 318 78 307 l 76 335 z "},"":{"ha":649,"x_min":32,"x_max":640,"o":"m 307 1169 q 353 1163 342 1169 q 419 1104 385 1140 q 493 1031 476 1044 q 517 1002 510 1018 q 524 978 525 986 q 517 965 522 969 q 499 956 511 960 q 478 947 488 953 q 435 951 468 942 q 404 981 421 951 q 371 1005 388 985 q 336 1038 354 1025 q 321 1049 328 1050 q 308 1039 314 1049 q 294 1018 301 1029 q 283 1002 286 1007 q 275 992 279 997 q 265 976 268 979 q 201 971 243 953 q 178 987 189 974 q 181 1024 168 1000 q 228 1089 181 1031 q 281 1153 275 1147 q 307 1169 288 1164 m 264 375 q 297 381 267 378 q 367 406 326 385 q 365 439 368 406 q 358 522 361 497 q 353 569 356 556 q 332 679 353 596 l 271 472 q 256 367 251 386 l 264 375 m 76 335 l 85 396 q 90 432 85 414 q 114 503 90 456 q 126 539 114 506 q 153 621 126 542 l 169 661 q 176 683 169 667 q 187 715 183 699 q 196 746 190 731 q 231 810 215 783 q 339 860 260 865 l 383 856 q 447 832 425 844 q 490 805 479 819 q 500 757 501 790 q 508 613 501 740 q 515 483 515 485 l 522 424 q 553 224 522 415 l 583 126 q 613 45 611 49 q 625 15 615 42 q 599 -46 640 -31 q 543 -39 561 -51 q 511 -26 536 -39 q 495 -13 508 -19 q 478 -3 482 -7 q 450 40 463 1 q 435 63 446 43 q 429 94 425 82 q 419 146 419 107 q 407 211 407 167 q 393 281 407 256 q 242 246 322 249 q 226 240 226 246 q 218 196 226 228 l 194 43 q 169 -65 208 -60 q 133 -71 158 -65 q 90 -61 107 -76 q 45 -24 58 -43 q 33 18 32 -6 q 40 101 35 38 q 42 133 43 104 q 46 176 42 161 l 68 263 q 79 304 72 265 q 78 318 78 307 l 76 335 z "},"":{"ha":649,"x_min":32,"x_max":640,"o":"m 250 1128 q 356 1121 250 1128 q 433 1109 371 1119 q 503 1099 496 1099 q 530 1107 510 1099 q 567 1115 550 1115 q 572 1099 572 1108 q 535 1029 572 1064 q 435 994 499 994 q 397 1000 425 994 q 186 1017 311 1017 l 129 1003 q 122 1033 122 1003 q 144 1091 122 1063 q 250 1128 165 1119 m 264 375 q 297 381 267 378 q 367 406 326 385 q 365 439 368 406 q 358 522 361 497 q 353 569 356 556 q 332 679 353 596 l 271 472 q 256 367 251 386 l 264 375 m 76 335 l 85 396 q 90 432 85 414 q 114 503 90 456 q 126 539 114 506 q 153 621 126 542 l 169 661 q 176 683 169 667 q 187 715 183 699 q 196 746 190 731 q 231 810 215 783 q 339 860 260 865 l 383 856 q 447 832 425 844 q 490 805 479 819 q 500 757 501 790 q 508 613 501 740 q 515 483 515 485 l 522 424 q 553 224 522 415 l 583 126 q 613 45 611 49 q 625 15 615 42 q 599 -46 640 -31 q 543 -39 561 -51 q 511 -26 536 -39 q 495 -13 508 -19 q 478 -3 482 -7 q 450 40 463 1 q 435 63 446 43 q 429 94 425 82 q 419 146 419 107 q 407 211 407 167 q 393 281 407 256 q 242 246 322 249 q 226 240 226 246 q 218 196 226 228 l 194 43 q 169 -65 208 -60 q 133 -71 158 -65 q 90 -61 107 -76 q 45 -24 58 -43 q 33 18 32 -6 q 40 101 35 38 q 42 133 43 104 q 46 176 42 161 l 68 263 q 79 304 72 265 q 78 318 78 307 l 76 335 z "},"":{"ha":649,"x_min":32,"x_max":640,"o":"m 506 1133 q 567 1081 554 1133 q 538 1005 567 1033 q 483 976 508 976 q 419 1000 457 976 q 381 1051 381 1024 q 440 1135 381 1121 q 492 1131 458 1136 q 506 1133 492 1133 m 224 986 q 160 1006 192 986 q 128 1067 128 1025 q 197 1156 128 1143 q 274 1124 265 1132 l 294 1076 q 265 1017 290 1047 q 224 986 240 986 m 264 375 q 297 381 267 378 q 367 406 326 385 q 365 439 368 406 q 358 522 361 497 q 353 569 356 556 q 332 679 353 596 l 271 472 q 256 367 251 386 l 264 375 m 76 335 l 85 396 q 90 432 85 414 q 114 503 90 456 q 126 539 114 506 q 153 621 126 542 l 169 661 q 176 683 169 667 q 187 715 183 699 q 196 746 190 731 q 231 810 215 783 q 339 860 260 865 l 383 856 q 447 832 425 844 q 490 805 479 819 q 500 757 501 790 q 508 613 501 740 q 515 483 515 485 l 522 424 q 553 224 522 415 l 583 126 q 613 45 611 49 q 625 15 615 42 q 599 -46 640 -31 q 543 -39 561 -51 q 511 -26 536 -39 q 495 -13 508 -19 q 478 -3 482 -7 q 450 40 463 1 q 435 63 446 43 q 429 94 425 82 q 419 146 419 107 q 407 211 407 167 q 393 281 407 256 q 242 246 322 249 q 226 240 226 246 q 218 196 226 228 l 194 43 q 169 -65 208 -60 q 133 -71 158 -65 q 90 -61 107 -76 q 45 -24 58 -43 q 33 18 32 -6 q 40 101 35 38 q 42 133 43 104 q 46 176 42 161 l 68 263 q 79 304 72 265 q 78 318 78 307 l 76 335 z "},"":{"ha":649,"x_min":32,"x_max":640,"o":"m 381 1118 q 301 1092 328 1118 q 272 1036 275 1065 q 344 990 297 993 q 389 1019 375 990 q 418 1063 418 1049 q 405 1098 418 1078 q 381 1118 392 1118 m 264 375 q 297 381 267 378 q 367 406 326 385 q 365 439 368 406 q 358 522 361 497 q 353 569 356 556 q 332 679 353 596 l 271 472 q 256 367 251 386 l 264 375 m 338 1207 q 419 1176 371 1207 q 443 1160 422 1174 q 482 1120 482 1133 q 490 1083 482 1107 q 497 1053 497 1060 q 475 974 497 1015 q 411 913 444 913 q 278 929 308 913 q 242 958 260 938 q 218 984 225 978 q 204 1012 211 990 q 197 1063 197 1033 q 207 1124 197 1093 q 224 1144 208 1126 q 251 1188 239 1163 q 338 1207 258 1207 m 76 335 l 85 396 q 90 432 85 414 q 114 503 90 456 q 126 539 114 506 q 153 621 126 542 l 169 661 q 176 683 169 667 q 187 715 183 699 q 196 746 190 731 q 231 810 215 783 q 339 860 260 865 l 383 856 q 447 832 425 844 q 490 805 479 819 q 500 757 501 790 q 508 613 501 740 q 515 483 515 485 l 522 424 q 553 224 522 415 l 583 126 q 613 45 611 49 q 625 15 615 42 q 599 -46 640 -31 q 543 -39 561 -51 q 511 -26 536 -39 q 495 -13 508 -19 q 478 -3 482 -7 q 450 40 463 1 q 435 63 446 43 q 429 94 425 82 q 419 146 419 107 q 407 211 407 167 q 393 281 407 256 q 242 246 322 249 q 226 240 226 246 q 218 196 226 228 l 194 43 q 169 -65 208 -60 q 133 -71 158 -65 q 90 -61 107 -76 q 45 -24 58 -43 q 33 18 32 -6 q 40 101 35 38 q 42 133 43 104 q 46 176 42 161 l 68 263 q 79 304 72 265 q 78 318 78 307 l 76 335 z "},"":{"ha":900,"x_min":32,"x_max":875,"o":"m 264 403 q 297 409 267 406 q 367 433 326 413 q 365 467 368 433 q 358 550 361 525 q 353 597 356 583 q 332 707 353 624 l 271 500 q 256 394 251 414 l 264 403 m 76 363 l 85 424 q 90 460 85 442 q 114 531 90 483 q 126 567 114 533 q 153 649 126 569 l 169 689 q 176 709 169 690 q 187 743 183 728 q 196 774 190 758 q 231 838 215 811 q 339 888 260 893 l 383 883 q 447 860 425 872 q 490 833 479 847 q 500 785 501 818 l 500 781 l 529 839 l 546 861 q 610 878 572 888 q 650 861 635 874 q 685 856 660 856 q 718 858 690 858 q 787 863 751 865 q 835 853 822 860 q 862 832 849 847 q 872 801 875 817 q 860 778 868 786 q 793 742 842 763 q 706 696 717 700 q 668 678 697 692 q 642 649 647 664 q 617 561 621 578 q 606 516 615 551 q 594 469 596 481 q 591 455 592 458 q 590 450 590 451 q 621 457 604 457 l 638 461 q 658 469 639 461 q 697 472 692 474 q 715 474 704 471 q 729 476 726 476 q 779 489 768 486 q 815 490 790 492 q 831 487 821 493 q 844 468 842 481 q 840 447 846 456 q 718 369 824 422 l 639 329 q 590 313 617 315 l 569 321 l 569 313 q 568 250 565 283 l 568 221 q 576 169 571 175 q 583 138 575 168 q 614 74 583 115 l 633 68 q 707 92 649 68 l 769 117 q 807 139 775 117 q 857 143 839 161 q 861 93 875 125 q 813 22 847 60 q 738 -39 778 -15 q 654 -58 679 -64 q 600 -44 638 -58 q 597 -46 600 -46 l 525 -31 q 506 -18 525 -25 l 481 -3 q 468 13 481 3 q 453 29 458 17 q 447 46 447 42 l 435 67 q 419 99 429 69 q 413 124 414 106 q 406 167 406 139 q 392 222 397 179 q 388 293 386 264 l 388 306 q 242 274 331 278 q 226 268 226 274 q 218 224 226 256 l 194 71 q 169 -37 208 -32 q 133 -43 158 -37 q 90 -33 107 -49 q 45 3 58 -15 q 33 46 32 22 q 40 129 35 65 q 42 160 43 132 q 46 204 42 189 l 68 290 q 79 332 72 293 q 78 346 78 335 l 76 363 z "},"":{"ha":615,"x_min":53,"x_max":585,"o":"m 260 850 q 340 856 279 858 q 428 844 401 854 l 463 833 q 511 804 506 804 q 576 688 568 760 q 579 632 585 657 q 574 596 579 624 l 560 564 l 543 540 q 533 539 535 539 q 454 537 482 531 q 406 567 426 543 q 401 582 401 575 q 404 594 403 589 q 413 617 413 617 q 410 692 431 661 q 396 707 410 696 q 374 724 382 718 q 347 725 367 729 q 290 640 314 711 q 251 546 263 604 q 235 428 235 442 l 233 397 l 233 385 q 236 264 231 382 q 242 244 238 257 q 254 194 246 229 l 272 164 q 290 139 279 160 q 301 129 297 139 q 310 118 311 119 q 331 110 317 117 q 396 118 368 90 q 420 145 406 128 q 442 173 435 163 q 467 193 450 183 q 546 190 513 228 q 548 137 553 179 q 508 49 543 94 q 490 22 506 40 q 458 -8 475 3 q 386 -19 456 -15 l 426 -82 q 460 -173 456 -144 q 433 -244 464 -201 q 339 -287 408 -283 q 232 -261 304 -292 q 217 -249 229 -258 q 200 -233 206 -240 q 182 -185 182 -217 q 198 -131 182 -154 q 235 -107 214 -107 q 263 -135 263 -107 q 261 -157 263 -149 q 272 -183 267 -165 q 284 -208 278 -201 q 292 -215 290 -215 l 300 -215 q 349 -194 322 -215 q 356 -147 356 -182 q 336 -99 356 -112 l 321 -68 q 274 -10 313 -56 q 261 -7 263 -7 l 243 -3 q 221 4 232 -3 q 184 28 210 11 q 144 57 158 46 q 85 133 103 90 q 78 160 79 143 q 72 186 76 178 q 62 222 61 197 q 58 283 63 247 q 60 303 58 300 q 54 327 53 310 q 56 375 56 344 q 59 424 60 383 q 61 486 58 465 q 60 522 56 499 l 61 564 q 74 617 63 589 q 79 647 75 629 q 115 717 83 664 q 136 744 115 728 q 147 761 136 750 q 172 789 158 772 q 215 824 192 813 q 260 850 239 835 z "},"":{"ha":557,"x_min":40,"x_max":532,"o":"m 167 1190 l 189 1192 q 297 1114 254 1169 q 319 1078 319 1082 q 367 1007 360 1029 q 358 955 375 972 q 322 938 340 938 q 240 1003 268 946 q 197 1047 225 1017 q 151 1089 169 1075 q 124 1113 125 1108 q 106 1136 94 1122 q 167 1190 135 1175 m 224 324 l 224 268 q 233 172 224 182 q 240 139 232 171 q 251 104 240 128 q 290 71 251 97 q 372 99 307 71 l 471 136 q 505 131 489 142 q 524 95 521 121 q 523 58 528 69 q 499 31 518 47 q 475 7 481 14 q 454 -8 469 0 q 420 -24 439 -15 q 394 -36 401 -32 q 311 -56 340 -61 q 274 -49 293 -56 q 253 -42 256 -42 q 242 -41 251 -43 q 225 -37 233 -39 q 182 -28 217 -35 q 163 -17 182 -22 l 125 14 q 104 49 115 19 l 92 69 q 76 101 86 74 q 69 126 71 108 q 63 169 63 142 q 50 222 57 176 q 49 329 40 282 q 58 381 49 356 q 61 403 60 392 q 71 458 68 439 q 89 551 65 478 q 98 584 89 563 q 108 629 107 606 l 119 656 q 140 738 119 667 q 151 768 151 764 l 186 842 l 203 864 q 232 881 213 874 q 276 879 240 888 q 307 863 299 871 q 331 858 317 858 l 438 865 q 492 856 478 863 q 519 835 506 850 q 528 804 532 819 q 517 781 525 789 q 450 744 499 765 q 358 696 365 699 l 325 681 q 299 651 304 667 q 252 478 256 496 q 248 458 249 461 q 247 453 247 454 l 275 456 q 347 468 336 475 q 363 472 353 468 q 453 488 414 490 q 468 482 460 492 q 481 458 476 472 q 460 404 489 424 q 321 342 401 365 q 247 315 294 321 l 224 324 z "},"":{"ha":557,"x_min":40,"x_max":585,"o":"m 490 1196 l 513 1194 q 574 1140 544 1179 q 556 1117 585 1126 q 540 1103 554 1113 q 482 1050 510 1079 q 439 1007 454 1021 q 357 942 411 950 q 322 959 339 942 q 313 1011 304 976 q 360 1082 319 1033 q 382 1118 360 1086 q 490 1196 425 1174 m 224 324 l 224 268 q 233 172 224 182 q 240 139 232 171 q 251 104 240 128 q 290 71 251 97 q 372 99 307 71 l 471 136 q 505 131 489 142 q 524 95 521 121 q 523 58 528 69 q 499 31 518 47 q 475 7 481 14 q 454 -8 469 0 q 420 -24 439 -15 q 394 -36 401 -32 q 311 -56 340 -61 q 274 -49 293 -56 q 253 -42 256 -42 q 242 -41 251 -43 q 225 -37 233 -39 q 182 -28 217 -35 q 163 -17 182 -22 l 125 14 q 104 49 115 19 l 92 69 q 76 101 86 74 q 69 126 71 108 q 63 169 63 142 q 50 222 57 176 q 49 329 40 282 q 58 381 49 356 q 61 403 60 392 q 71 458 68 439 q 89 551 65 478 q 98 584 89 563 q 108 629 107 606 l 119 656 q 140 738 119 667 q 151 768 151 764 l 186 842 l 203 864 q 232 881 213 874 q 276 879 240 888 q 307 863 299 871 q 331 858 317 858 l 438 865 q 492 856 478 863 q 519 835 506 850 q 528 804 532 819 q 517 781 525 789 q 450 744 499 765 q 358 696 365 699 l 325 681 q 299 651 304 667 q 252 478 256 496 q 248 458 249 461 q 247 453 247 454 l 275 456 q 347 468 336 475 q 363 472 353 468 q 453 488 414 490 q 468 482 460 492 q 481 458 476 472 q 460 404 489 424 q 321 342 401 365 q 247 315 294 321 l 224 324 z "},"":{"ha":557,"x_min":40,"x_max":532,"o":"m 296 1169 q 340 1163 331 1169 q 408 1104 374 1140 q 482 1031 465 1044 q 506 1002 499 1018 q 513 978 514 986 q 506 965 511 969 q 488 956 500 960 q 467 947 476 953 q 424 951 457 942 q 393 981 410 951 q 360 1005 376 985 q 325 1038 343 1025 q 310 1049 317 1050 q 297 1039 303 1049 q 283 1018 290 1029 q 272 1002 275 1007 q 264 992 268 997 q 254 976 257 979 q 190 971 232 953 q 167 987 178 974 q 169 1024 157 1000 q 217 1089 169 1031 q 269 1153 264 1147 q 296 1169 276 1164 m 224 324 l 224 268 q 233 172 224 182 q 240 139 232 171 q 251 104 240 128 q 290 71 251 97 q 372 99 307 71 l 471 136 q 505 131 489 142 q 524 95 521 121 q 523 58 528 69 q 499 31 518 47 q 475 7 481 14 q 454 -8 469 0 q 420 -24 439 -15 q 394 -36 401 -32 q 311 -56 340 -61 q 274 -49 293 -56 q 253 -42 256 -42 q 242 -41 251 -43 q 225 -37 233 -39 q 182 -28 217 -35 q 163 -17 182 -22 l 125 14 q 104 49 115 19 l 92 69 q 76 101 86 74 q 69 126 71 108 q 63 169 63 142 q 50 222 57 176 q 49 329 40 282 q 58 381 49 356 q 61 403 60 392 q 71 458 68 439 q 89 551 65 478 q 98 584 89 563 q 108 629 107 606 l 119 656 q 140 738 119 667 q 151 768 151 764 l 186 842 l 203 864 q 232 881 213 874 q 276 879 240 888 q 307 863 299 871 q 331 858 317 858 l 438 865 q 492 856 478 863 q 519 835 506 850 q 528 804 532 819 q 517 781 525 789 q 450 744 499 765 q 358 696 365 699 l 325 681 q 299 651 304 667 q 252 478 256 496 q 248 458 249 461 q 247 453 247 454 l 275 456 q 347 468 336 475 q 363 472 353 468 q 453 488 414 490 q 468 482 460 492 q 481 458 476 472 q 460 404 489 424 q 321 342 401 365 q 247 315 294 321 l 224 324 z "},"":{"ha":557,"x_min":40,"x_max":556,"o":"m 494 1133 q 556 1081 543 1133 q 526 1005 556 1033 q 472 976 497 976 q 408 1000 446 976 q 369 1051 369 1024 q 429 1135 369 1121 q 481 1131 447 1136 q 494 1133 481 1133 m 213 986 q 149 1006 181 986 q 117 1067 117 1025 q 186 1156 117 1143 q 263 1124 254 1132 l 283 1076 q 254 1017 279 1047 q 213 986 229 986 m 224 324 l 224 268 q 233 172 224 182 q 240 139 232 171 q 251 104 240 128 q 290 71 251 97 q 372 99 307 71 l 471 136 q 505 131 489 142 q 524 95 521 121 q 523 58 528 69 q 499 31 518 47 q 475 7 481 14 q 454 -8 469 0 q 420 -24 439 -15 q 394 -36 401 -32 q 311 -56 340 -61 q 274 -49 293 -56 q 253 -42 256 -42 q 242 -41 251 -43 q 225 -37 233 -39 q 182 -28 217 -35 q 163 -17 182 -22 l 125 14 q 104 49 115 19 l 92 69 q 76 101 86 74 q 69 126 71 108 q 63 169 63 142 q 50 222 57 176 q 49 329 40 282 q 58 381 49 356 q 61 403 60 392 q 71 458 68 439 q 89 551 65 478 q 98 584 89 563 q 108 629 107 606 l 119 656 q 140 738 119 667 q 151 768 151 764 l 186 842 l 203 864 q 232 881 213 874 q 276 879 240 888 q 307 863 299 871 q 331 858 317 858 l 438 865 q 492 856 478 863 q 519 835 506 850 q 528 804 532 819 q 517 781 525 789 q 450 744 499 765 q 358 696 365 699 l 325 681 q 299 651 304 667 q 252 478 256 496 q 248 458 249 461 q 247 453 247 454 l 275 456 q 347 468 336 475 q 363 472 353 468 q 453 488 414 490 q 468 482 460 492 q 481 458 476 472 q 460 404 489 424 q 321 342 401 365 q 247 315 294 321 l 224 324 z "},"":{"ha":528,"x_min":24,"x_max":528,"o":"m 126 1190 l 149 1192 q 257 1114 214 1169 q 279 1078 279 1082 q 326 1007 319 1029 q 317 955 335 972 q 282 938 300 938 q 200 1003 228 946 q 156 1047 185 1017 q 111 1089 129 1075 q 83 1113 85 1108 q 65 1136 54 1122 q 126 1190 94 1175 m 524 764 q 517 740 528 746 q 494 733 506 733 q 432 731 482 733 q 368 713 400 724 l 367 713 q 353 639 367 688 q 346 585 353 622 q 342 563 346 574 q 338 528 338 551 q 329 465 328 471 q 329 450 331 460 q 324 421 328 440 q 319 375 319 401 q 313 328 319 349 l 313 313 q 309 242 315 263 q 303 206 303 221 q 296 161 303 192 q 292 89 289 131 l 300 89 q 337 91 335 92 q 356 94 339 90 l 378 93 l 392 93 q 410 83 396 93 q 429 63 424 72 q 435 44 439 53 q 404 14 432 35 l 378 6 q 358 -4 374 1 q 332 -10 343 -10 q 294 -33 300 -17 q 228 -42 289 -44 l 181 -42 l 154 -50 q 93 -57 119 -64 q 58 -47 67 -50 q 36 -33 49 -43 q 26 -9 24 -22 q 35 29 28 4 q 68 54 58 49 q 153 82 135 75 q 150 136 153 128 q 160 196 154 138 q 153 222 161 201 l 153 231 q 151 301 157 269 q 157 350 151 303 q 157 394 164 358 q 167 436 163 421 l 168 456 q 176 506 168 464 l 176 519 l 179 531 q 213 681 204 633 q 199 678 201 678 l 153 671 q 60 694 100 657 q 58 775 25 742 q 122 800 79 793 q 171 818 160 813 q 236 849 185 818 q 296 856 288 856 l 361 864 q 394 862 374 865 q 419 853 415 858 q 464 836 438 849 l 497 806 q 524 764 517 778 z "},"":{"ha":528,"x_min":24,"x_max":544,"o":"m 450 1196 l 472 1194 q 533 1140 504 1179 q 515 1117 544 1126 q 500 1103 514 1113 q 442 1050 469 1079 q 399 1007 414 1021 q 317 942 371 950 q 281 959 299 942 q 272 1011 264 976 q 319 1082 279 1033 q 342 1118 319 1086 q 450 1196 385 1174 m 524 764 q 517 740 528 746 q 494 733 506 733 q 432 731 482 733 q 368 713 400 724 l 367 713 q 353 639 367 688 q 346 585 353 622 q 342 563 346 574 q 338 528 338 551 q 329 465 328 471 q 329 450 331 460 q 324 421 328 440 q 319 375 319 401 q 313 328 319 349 l 313 313 q 309 242 315 263 q 303 206 303 221 q 296 161 303 192 q 292 89 289 131 l 300 89 q 337 91 335 92 q 356 94 339 90 l 378 93 l 392 93 q 410 83 396 93 q 429 63 424 72 q 435 44 439 53 q 404 14 432 35 l 378 6 q 358 -4 374 1 q 332 -10 343 -10 q 294 -33 300 -17 q 228 -42 289 -44 l 181 -42 l 154 -50 q 93 -57 119 -64 q 58 -47 67 -50 q 36 -33 49 -43 q 26 -9 24 -22 q 35 29 28 4 q 68 54 58 49 q 153 82 135 75 q 150 136 153 128 q 160 196 154 138 q 153 222 161 201 l 153 231 q 151 301 157 269 q 157 350 151 303 q 157 394 164 358 q 167 436 163 421 l 168 456 q 176 506 168 464 l 176 519 l 179 531 q 213 681 204 633 q 199 678 201 678 l 153 671 q 60 694 100 657 q 58 775 25 742 q 122 800 79 793 q 171 818 160 813 q 236 849 185 818 q 296 856 288 856 l 361 864 q 394 862 374 865 q 419 853 415 858 q 464 836 438 849 l 497 806 q 524 764 517 778 z "},"":{"ha":528,"x_min":24,"x_max":528,"o":"m 256 1169 q 300 1163 290 1169 q 368 1104 333 1140 q 442 1031 425 1044 q 466 1002 458 1018 q 472 978 474 986 q 465 965 471 969 q 448 956 460 960 q 426 947 436 953 q 383 951 417 942 q 353 981 369 951 q 319 1005 336 985 q 285 1038 303 1025 q 269 1049 276 1050 q 256 1039 263 1049 q 242 1018 250 1029 q 231 1002 235 1007 q 225 992 228 997 q 214 976 217 979 q 150 971 192 953 q 127 987 138 974 q 129 1024 117 1000 q 176 1089 129 1031 q 229 1153 224 1147 q 256 1169 236 1164 m 524 764 q 517 740 528 746 q 494 733 506 733 q 432 731 482 733 q 368 713 400 724 l 367 713 q 353 639 367 688 q 346 585 353 622 q 342 563 346 574 q 338 528 338 551 q 329 465 328 471 q 329 450 331 460 q 324 421 328 440 q 319 375 319 401 q 313 328 319 349 l 313 313 q 309 242 315 263 q 303 206 303 221 q 296 161 303 192 q 292 89 289 131 l 300 89 q 337 91 335 92 q 356 94 339 90 l 378 93 l 392 93 q 410 83 396 93 q 429 63 424 72 q 435 44 439 53 q 404 14 432 35 l 378 6 q 358 -4 374 1 q 332 -10 343 -10 q 294 -33 300 -17 q 228 -42 289 -44 l 181 -42 l 154 -50 q 93 -57 119 -64 q 58 -47 67 -50 q 36 -33 49 -43 q 26 -9 24 -22 q 35 29 28 4 q 68 54 58 49 q 153 82 135 75 q 150 136 153 128 q 160 196 154 138 q 153 222 161 201 l 153 231 q 151 301 157 269 q 157 350 151 303 q 157 394 164 358 q 167 436 163 421 l 168 456 q 176 506 168 464 l 176 519 l 179 531 q 213 681 204 633 q 199 678 201 678 l 153 671 q 60 694 100 657 q 58 775 25 742 q 122 800 79 793 q 171 818 160 813 q 236 849 185 818 q 296 856 288 856 l 361 864 q 394 862 374 865 q 419 853 415 858 q 464 836 438 849 l 497 806 q 524 764 517 778 z "},"":{"ha":528,"x_min":24,"x_max":528,"o":"m 454 1133 q 515 1081 503 1133 q 486 1005 515 1033 q 431 976 457 976 q 367 1000 406 976 q 329 1051 329 1024 q 389 1135 329 1121 q 440 1131 407 1136 q 454 1133 440 1133 m 172 986 q 108 1006 140 986 q 76 1067 76 1025 q 146 1156 76 1143 q 222 1124 214 1132 l 243 1076 q 214 1017 239 1047 q 172 986 189 986 m 524 764 q 517 740 528 746 q 494 733 506 733 q 432 731 482 733 q 368 713 400 724 l 367 713 q 353 639 367 688 q 346 585 353 622 q 342 563 346 574 q 338 528 338 551 q 329 465 328 471 q 329 450 331 460 q 324 421 328 440 q 319 375 319 401 q 313 328 319 349 l 313 313 q 309 242 315 263 q 303 206 303 221 q 296 161 303 192 q 292 89 289 131 l 300 89 q 337 91 335 92 q 356 94 339 90 l 378 93 l 392 93 q 410 83 396 93 q 429 63 424 72 q 435 44 439 53 q 404 14 432 35 l 378 6 q 358 -4 374 1 q 332 -10 343 -10 q 294 -33 300 -17 q 228 -42 289 -44 l 181 -42 l 154 -50 q 93 -57 119 -64 q 58 -47 67 -50 q 36 -33 49 -43 q 26 -9 24 -22 q 35 29 28 4 q 68 54 58 49 q 153 82 135 75 q 150 136 153 128 q 160 196 154 138 q 153 222 161 201 l 153 231 q 151 301 157 269 q 157 350 151 303 q 157 394 164 358 q 167 436 163 421 l 168 456 q 176 506 168 464 l 176 519 l 179 531 q 213 681 204 633 q 199 678 201 678 l 153 671 q 60 694 100 657 q 58 775 25 742 q 122 800 79 793 q 171 818 160 813 q 236 849 185 818 q 296 856 288 856 l 361 864 q 394 862 374 865 q 419 853 415 858 q 464 836 438 849 l 497 806 q 524 764 517 778 z "},"":{"ha":742,"x_min":6,"x_max":701,"o":"m 329 461 q 424 456 343 461 q 488 432 485 440 q 487 426 488 429 q 485 412 486 422 q 483 399 485 401 q 449 385 479 390 q 394 378 414 378 l 372 378 q 360 375 369 378 q 328 372 350 372 l 321 372 l 321 365 q 307 113 303 128 q 321 118 313 115 q 350 136 332 118 q 404 179 399 176 l 424 197 q 460 231 440 200 l 460 232 l 486 267 l 514 324 q 535 372 526 340 q 551 433 543 404 l 551 454 l 554 492 q 557 519 554 503 q 468 732 557 682 q 399 743 432 753 q 351 724 386 743 l 351 708 q 350 658 350 689 l 343 607 l 329 461 m 144 460 l 158 461 q 158 489 158 481 q 161 553 158 544 q 163 586 164 561 q 167 635 167 590 l 151 624 q 130 599 146 619 q 97 563 114 579 q 45 557 81 547 q 6 590 10 567 q 30 653 17 626 q 61 725 43 679 q 94 782 89 753 l 104 796 l 126 821 q 160 860 126 831 q 182 870 164 867 q 236 889 200 874 q 259 899 242 894 q 283 904 276 904 q 418 897 361 921 q 464 892 450 897 q 501 874 478 879 l 572 836 q 635 764 588 821 q 700 578 686 672 q 701 485 701 551 q 656 301 689 358 q 640 260 653 285 q 622 226 640 257 q 579 165 603 194 q 549 125 556 135 q 466 51 474 56 q 455 45 458 47 q 447 42 451 43 q 337 -15 343 -11 q 303 -25 331 -19 q 253 -21 263 -29 q 213 8 231 -11 q 190 31 207 10 q 165 50 168 47 q 147 96 153 68 q 142 125 142 124 q 139 188 138 161 q 136 208 136 193 q 140 242 136 222 q 144 289 144 261 q 151 350 144 317 q 117 349 142 349 q 64 368 92 349 l 46 379 l 39 408 q 43 449 39 431 q 92 456 61 454 q 143 460 124 457 l 144 460 z "},"":{"ha":744,"x_min":56,"x_max":667,"o":"m 313 1128 q 418 1121 313 1128 q 496 1109 433 1119 q 565 1099 558 1099 q 592 1107 572 1099 q 629 1115 613 1115 q 635 1099 635 1108 q 598 1029 635 1064 q 497 994 561 994 q 458 1000 488 994 q 249 1017 374 1017 l 192 1003 q 185 1033 185 1003 q 206 1091 185 1063 q 313 1128 228 1119 m 503 311 q 502 335 500 318 q 507 379 504 351 q 508 432 507 422 l 507 460 q 508 497 507 482 l 508 538 q 509 579 511 550 q 511 653 507 608 q 518 708 515 699 l 518 736 q 519 765 518 740 l 519 775 q 518 800 521 796 l 531 851 l 536 881 q 557 904 539 886 q 589 908 561 908 q 631 907 617 908 q 649 899 644 906 q 657 874 653 893 q 661 828 665 856 q 663 815 663 819 l 663 801 q 661 744 667 774 q 663 722 661 733 l 663 710 q 658 661 663 682 l 658 626 q 654 592 660 608 q 653 558 654 586 q 647 535 650 549 q 647 506 651 524 q 650 472 643 501 q 651 407 644 454 l 651 379 q 650 292 656 335 l 650 283 q 647 243 650 256 q 647 183 650 219 l 647 175 l 644 142 q 556 29 629 43 q 413 78 465 13 l 404 99 q 364 163 389 101 q 321 265 325 256 q 301 324 301 319 q 299 350 301 324 q 293 361 297 353 q 286 378 289 369 q 276 419 286 388 q 269 454 276 422 l 253 578 q 251 592 253 582 l 246 561 q 232 449 236 468 l 225 308 l 225 253 l 221 185 q 225 89 221 133 q 210 35 224 49 q 168 21 196 22 q 115 42 149 26 q 102 65 106 47 q 86 94 99 82 q 72 122 74 107 l 56 228 q 58 274 56 250 q 58 325 60 299 q 65 386 56 351 q 72 445 74 421 q 75 508 71 469 q 79 563 79 546 q 83 590 79 581 q 86 625 83 613 q 94 667 85 629 q 99 696 94 676 q 107 749 103 715 q 122 803 111 782 q 157 850 133 824 q 179 886 169 857 q 215 913 189 900 q 241 919 225 919 q 271 910 257 919 q 338 836 325 889 l 343 801 q 356 764 343 793 q 361 724 356 750 q 371 683 361 704 q 392 585 385 613 q 403 558 399 575 q 414 521 406 546 q 426 467 417 497 q 497 257 483 281 q 500 292 500 263 l 503 311 z "},"":{"ha":678,"x_min":42,"x_max":625,"o":"m 169 1190 l 192 1192 q 300 1114 257 1169 q 322 1078 322 1082 q 369 1007 363 1029 q 360 955 378 972 q 325 938 343 938 q 243 1003 271 946 q 200 1047 228 1017 q 154 1089 172 1075 q 126 1113 128 1108 q 108 1136 97 1122 q 169 1190 138 1175 m 225 315 l 229 190 q 294 79 251 111 q 326 64 301 72 l 361 56 q 376 61 368 56 q 390 68 386 64 q 410 90 400 81 q 418 100 419 100 q 422 118 424 106 q 433 136 426 122 q 464 236 449 214 q 469 314 469 297 q 439 457 469 372 q 422 581 422 476 q 413 619 414 601 q 403 656 411 636 q 392 683 396 676 q 387 697 388 690 q 381 713 386 703 q 313 676 358 746 l 289 635 q 275 583 289 632 q 253 497 253 506 q 238 439 254 488 q 237 419 236 435 q 231 377 238 404 q 225 315 225 350 m 67 417 l 76 519 q 83 544 76 528 q 90 565 89 561 q 93 575 90 568 q 114 640 93 613 q 163 750 146 714 q 199 810 179 786 q 228 832 200 817 q 335 863 285 863 q 431 847 385 863 q 472 826 446 844 q 501 807 497 808 q 551 748 525 793 q 578 682 576 703 q 595 616 581 661 q 610 549 610 571 q 617 485 610 528 q 624 415 625 442 q 574 132 615 219 q 542 54 565 71 l 539 35 q 523 -3 538 18 q 486 -35 508 -24 q 431 -47 482 -39 q 333 -61 357 -61 q 256 -58 303 -71 q 203 -44 210 -44 q 173 -28 196 -43 q 143 -6 150 -14 q 117 21 121 11 l 97 60 q 72 112 79 78 q 58 156 65 146 q 46 188 51 171 q 47 222 47 197 l 47 236 q 50 276 42 257 q 52 301 51 286 q 56 343 53 315 l 56 361 q 67 417 68 403 z "},"":{"ha":678,"x_min":42,"x_max":625,"o":"m 493 1196 l 515 1194 q 576 1140 547 1179 q 558 1117 588 1126 q 543 1103 557 1113 q 485 1050 513 1079 q 442 1007 457 1021 q 360 942 414 950 q 324 959 342 942 q 315 1011 307 976 q 363 1082 322 1033 q 385 1118 363 1086 q 493 1196 428 1174 m 225 315 l 229 190 q 294 79 251 111 q 326 64 301 72 l 361 56 q 376 61 368 56 q 390 68 386 64 q 410 90 400 81 q 418 100 419 100 q 422 118 424 106 q 433 136 426 122 q 464 236 449 214 q 469 314 469 297 q 439 457 469 372 q 422 581 422 476 q 413 619 414 601 q 403 656 411 636 q 392 683 396 676 q 387 697 388 690 q 381 713 386 703 q 313 676 358 746 l 289 635 q 275 583 289 632 q 253 497 253 506 q 238 439 254 488 q 237 419 236 435 q 231 377 238 404 q 225 315 225 350 m 67 417 l 76 519 q 83 544 76 528 q 90 565 89 561 q 93 575 90 568 q 114 640 93 613 q 163 750 146 714 q 199 810 179 786 q 228 832 200 817 q 335 863 285 863 q 431 847 385 863 q 472 826 446 844 q 501 807 497 808 q 551 748 525 793 q 578 682 576 703 q 595 616 581 661 q 610 549 610 571 q 617 485 610 528 q 624 415 625 442 q 574 132 615 219 q 542 54 565 71 l 539 35 q 523 -3 538 18 q 486 -35 508 -24 q 431 -47 482 -39 q 333 -61 357 -61 q 256 -58 303 -71 q 203 -44 210 -44 q 173 -28 196 -43 q 143 -6 150 -14 q 117 21 121 11 l 97 60 q 72 112 79 78 q 58 156 65 146 q 46 188 51 171 q 47 222 47 197 l 47 236 q 50 276 42 257 q 52 301 51 286 q 56 343 53 315 l 56 361 q 67 417 68 403 z "},"":{"ha":678,"x_min":42,"x_max":625,"o":"m 299 1169 q 344 1163 333 1169 q 411 1104 376 1140 q 485 1031 468 1044 q 509 1002 501 1018 q 515 978 517 986 q 508 965 514 969 q 491 956 503 960 q 469 947 479 953 q 426 951 460 942 q 396 981 413 951 q 363 1005 379 985 q 328 1038 346 1025 q 313 1049 319 1050 q 299 1039 306 1049 q 285 1018 293 1029 q 274 1002 278 1007 q 267 992 271 997 q 257 976 260 979 q 193 971 235 953 q 170 987 181 974 q 172 1024 160 1000 q 219 1089 172 1031 q 272 1153 267 1147 q 299 1169 279 1164 m 225 315 l 229 190 q 294 79 251 111 q 326 64 301 72 l 361 56 q 376 61 368 56 q 390 68 386 64 q 410 90 400 81 q 418 100 419 100 q 422 118 424 106 q 433 136 426 122 q 464 236 449 214 q 469 314 469 297 q 439 457 469 372 q 422 581 422 476 q 413 619 414 601 q 403 656 411 636 q 392 683 396 676 q 387 697 388 690 q 381 713 386 703 q 313 676 358 746 l 289 635 q 275 583 289 632 q 253 497 253 506 q 238 439 254 488 q 237 419 236 435 q 231 377 238 404 q 225 315 225 350 m 67 417 l 76 519 q 83 544 76 528 q 90 565 89 561 q 93 575 90 568 q 114 640 93 613 q 163 750 146 714 q 199 810 179 786 q 228 832 200 817 q 335 863 285 863 q 431 847 385 863 q 472 826 446 844 q 501 807 497 808 q 551 748 525 793 q 578 682 576 703 q 595 616 581 661 q 610 549 610 571 q 617 485 610 528 q 624 415 625 442 q 574 132 615 219 q 542 54 565 71 l 539 35 q 523 -3 538 18 q 486 -35 508 -24 q 431 -47 482 -39 q 333 -61 357 -61 q 256 -58 303 -71 q 203 -44 210 -44 q 173 -28 196 -43 q 143 -6 150 -14 q 117 21 121 11 l 97 60 q 72 112 79 78 q 58 156 65 146 q 46 188 51 171 q 47 222 47 197 l 47 236 q 50 276 42 257 q 52 301 51 286 q 56 343 53 315 l 56 361 q 67 417 68 403 z "},"":{"ha":678,"x_min":42,"x_max":625,"o":"m 242 1128 q 347 1121 242 1128 q 425 1109 363 1119 q 494 1099 488 1099 q 522 1107 501 1099 q 558 1115 542 1115 q 564 1099 564 1108 q 527 1029 564 1064 q 426 994 490 994 q 389 1000 417 994 q 178 1017 303 1017 l 121 1003 q 114 1033 114 1003 q 135 1091 114 1063 q 242 1128 157 1119 m 225 315 l 229 190 q 294 79 251 111 q 326 64 301 72 l 361 56 q 376 61 368 56 q 390 68 386 64 q 410 90 400 81 q 418 100 419 100 q 422 118 424 106 q 433 136 426 122 q 464 236 449 214 q 469 314 469 297 q 439 457 469 372 q 422 581 422 476 q 413 619 414 601 q 403 656 411 636 q 392 683 396 676 q 387 697 388 690 q 381 713 386 703 q 313 676 358 746 l 289 635 q 275 583 289 632 q 253 497 253 506 q 238 439 254 488 q 237 419 236 435 q 231 377 238 404 q 225 315 225 350 m 67 417 l 76 519 q 83 544 76 528 q 90 565 89 561 q 93 575 90 568 q 114 640 93 613 q 163 750 146 714 q 199 810 179 786 q 228 832 200 817 q 335 863 285 863 q 431 847 385 863 q 472 826 446 844 q 501 807 497 808 q 551 748 525 793 q 578 682 576 703 q 595 616 581 661 q 610 549 610 571 q 617 485 610 528 q 624 415 625 442 q 574 132 615 219 q 542 54 565 71 l 539 35 q 523 -3 538 18 q 486 -35 508 -24 q 431 -47 482 -39 q 333 -61 357 -61 q 256 -58 303 -71 q 203 -44 210 -44 q 173 -28 196 -43 q 143 -6 150 -14 q 117 21 121 11 l 97 60 q 72 112 79 78 q 58 156 65 146 q 46 188 51 171 q 47 222 47 197 l 47 236 q 50 276 42 257 q 52 301 51 286 q 56 343 53 315 l 56 361 q 67 417 68 403 z "},"":{"ha":678,"x_min":42,"x_max":625,"o":"m 215 986 q 151 1006 183 986 q 119 1067 119 1025 q 189 1156 119 1143 q 265 1124 257 1132 l 286 1076 q 257 1017 282 1047 q 215 986 232 986 m 497 1133 q 558 1081 546 1133 q 529 1005 558 1033 q 474 976 500 976 q 410 1000 449 976 q 372 1051 372 1024 q 432 1135 372 1121 q 483 1131 450 1136 q 497 1133 483 1133 m 225 315 l 229 190 q 294 79 251 111 q 326 64 301 72 l 361 56 q 376 61 368 56 q 390 68 386 64 q 410 90 400 81 q 418 100 419 100 q 422 118 424 106 q 433 136 426 122 q 464 236 449 214 q 469 314 469 297 q 439 457 469 372 q 422 581 422 476 q 413 619 414 601 q 403 656 411 636 q 392 683 396 676 q 387 697 388 690 q 381 713 386 703 q 313 676 358 746 l 289 635 q 275 583 289 632 q 253 497 253 506 q 238 439 254 488 q 237 419 236 435 q 231 377 238 404 q 225 315 225 350 m 67 417 l 76 519 q 83 544 76 528 q 90 565 89 561 q 93 575 90 568 q 114 640 93 613 q 163 750 146 714 q 199 810 179 786 q 228 832 200 817 q 335 863 285 863 q 431 847 385 863 q 472 826 446 844 q 501 807 497 808 q 551 748 525 793 q 578 682 576 703 q 595 616 581 661 q 610 549 610 571 q 617 485 610 528 q 624 415 625 442 q 574 132 615 219 q 542 54 565 71 l 539 35 q 523 -3 538 18 q 486 -35 508 -24 q 431 -47 482 -39 q 333 -61 357 -61 q 256 -58 303 -71 q 203 -44 210 -44 q 173 -28 196 -43 q 143 -6 150 -14 q 117 21 121 11 l 97 60 q 72 112 79 78 q 58 156 65 146 q 46 188 51 171 q 47 222 47 197 l 47 236 q 50 276 42 257 q 52 301 51 286 q 56 343 53 315 l 56 361 q 67 417 68 403 z "},"":{"ha":717,"x_min":118,"x_max":606,"o":"m 499 133 l 451 174 q 405 208 421 192 q 382 231 389 225 q 368 245 375 238 q 354 260 361 253 q 322 228 339 244 q 308 203 318 213 q 297 189 297 193 q 265 144 294 174 q 221 133 260 138 l 192 142 q 175 156 189 142 q 142 183 165 160 q 118 215 138 196 q 143 256 124 236 l 171 288 q 221 349 189 318 l 246 374 l 171 454 l 158 471 q 136 521 138 490 q 146 557 135 551 q 168 576 163 574 q 182 581 174 578 q 221 567 196 583 l 249 547 q 343 467 260 535 q 451 568 424 540 l 468 581 q 518 603 488 601 q 554 593 549 604 q 573 571 571 576 q 578 557 575 565 q 564 518 581 543 l 544 490 q 451 379 532 479 q 511 325 494 343 q 536 310 526 321 q 550 300 546 300 q 594 268 565 297 q 606 224 601 263 l 597 194 q 583 178 597 192 q 556 144 579 168 q 524 121 543 140 q 499 133 508 125 z "},"":{"ha":678,"x_min":24,"x_max":676,"o":"m 268 643 q 211 403 232 556 q 208 363 213 397 l 349 585 q 394 658 385 636 l 460 725 q 442 744 454 733 l 428 747 q 349 717 406 750 q 326 700 346 717 q 301 678 306 683 q 285 665 297 676 q 268 643 274 654 m 414 201 q 464 308 464 306 q 471 337 464 313 q 480 372 478 361 q 485 389 482 382 q 488 421 488 396 q 497 483 490 422 l 497 525 q 497 556 497 536 q 496 585 496 576 q 454 521 467 544 l 438 472 l 397 450 q 392 429 392 439 l 374 407 q 347 355 368 392 q 321 318 325 318 q 314 308 321 317 q 279 247 294 282 q 233 167 256 221 q 246 149 233 163 q 267 122 258 135 q 278 114 268 122 q 317 103 301 96 q 332 110 318 103 q 349 118 332 114 q 357 129 350 118 q 368 139 360 129 q 376 151 368 143 q 390 164 385 158 q 404 190 389 167 q 414 201 407 190 m 611 757 q 621 735 615 749 l 621 733 q 622 725 621 731 q 638 643 631 700 q 640 526 649 589 q 638 494 640 506 q 633 449 639 479 q 625 414 638 438 q 613 354 625 397 q 589 275 617 346 q 518 128 561 204 q 456 40 499 89 q 415 1 447 28 q 351 -46 381 -36 q 331 -47 347 -47 q 310 -42 314 -46 q 287 -39 292 -42 q 281 -36 282 -36 q 265 -31 274 -33 q 246 -25 256 -29 q 233 -21 236 -21 q 228 -19 231 -21 q 216 -15 226 -18 q 161 10 206 -12 q 68 -71 121 -81 q 38 -40 51 -67 q 33 25 24 -12 l 44 56 q 74 140 44 83 q 71 154 71 149 q 60 240 64 193 q 57 260 57 246 q 53 307 53 285 q 50 336 50 318 q 49 356 50 354 q 47 389 47 357 q 47 423 46 421 q 50 449 49 425 l 53 521 l 53 546 l 56 601 q 60 629 56 608 q 68 669 63 632 q 84 726 79 717 q 91 740 89 735 q 97 751 93 746 q 111 776 101 757 l 136 814 q 145 825 136 817 q 160 835 154 833 q 171 844 163 843 q 200 860 181 847 q 215 868 215 865 q 274 885 240 885 l 294 883 l 335 868 q 394 888 385 888 q 413 896 397 892 q 443 896 428 896 l 486 886 q 514 869 501 883 l 533 854 l 536 861 q 549 870 539 863 q 563 879 558 878 l 604 892 q 648 897 629 903 q 669 882 667 892 l 676 849 q 657 811 675 844 l 636 790 l 611 757 z "},"":{"ha":706,"x_min":68,"x_max":667,"o":"m 232 1190 l 254 1192 q 363 1114 319 1169 q 385 1078 385 1082 q 432 1007 425 1029 q 423 955 440 972 q 388 938 406 938 q 306 1003 333 946 q 261 1047 290 1017 q 217 1089 235 1075 q 189 1113 190 1108 q 171 1136 160 1122 q 232 1190 200 1175 m 90 118 q 80 144 85 124 q 76 183 75 165 q 72 231 76 201 q 74 262 74 236 q 71 313 74 288 q 69 355 68 339 q 68 390 69 371 q 74 424 69 400 q 72 459 72 425 q 78 514 72 493 q 85 599 78 553 l 85 622 q 97 707 94 682 q 106 757 99 738 q 118 835 100 775 q 156 861 124 849 l 154 860 q 189 864 163 865 q 224 858 215 863 q 257 847 233 854 q 274 693 289 839 q 265 624 274 679 q 261 567 265 596 l 261 540 l 258 506 q 258 482 258 493 q 256 448 257 471 q 252 413 256 425 q 249 396 249 400 q 243 372 244 392 q 235 315 242 349 q 240 169 228 303 q 260 115 243 128 q 306 122 276 101 q 315 133 314 131 l 321 154 q 336 182 326 154 l 351 210 l 356 226 q 367 258 356 238 q 382 285 379 278 l 403 354 l 411 389 q 422 419 411 397 q 429 456 422 426 q 428 493 429 482 q 430 501 429 493 q 437 528 431 510 q 443 575 443 547 q 456 603 443 579 q 482 699 456 639 q 482 701 481 697 q 484 710 483 707 q 486 718 485 714 q 488 726 488 722 q 489 747 483 735 q 499 774 494 760 q 508 801 503 788 l 542 824 q 560 826 549 824 q 615 825 572 828 q 642 794 632 819 q 646 725 657 771 q 635 657 646 715 q 626 611 635 647 q 615 547 618 575 q 607 508 611 518 q 606 476 604 489 l 597 417 q 593 350 597 394 q 584 281 589 306 q 597 185 579 257 l 614 94 q 621 59 614 74 q 628 44 628 44 l 628 38 q 601 -51 667 -39 q 563 -63 569 -60 q 533 -60 556 -67 q 490 -35 510 -54 q 475 15 485 -26 q 465 64 471 24 q 456 96 461 68 q 450 114 458 101 q 436 89 440 94 q 424 67 426 74 q 414 39 422 61 l 389 -6 q 317 -54 360 -60 q 289 -51 315 -53 q 250 -42 283 -46 q 236 -40 244 -40 q 214 -37 228 -39 q 193 -22 211 -33 q 136 19 151 -7 q 118 39 124 22 q 100 78 115 47 l 90 118 z "},"":{"ha":706,"x_min":68,"x_max":667,"o":"m 556 1196 l 578 1194 q 639 1140 610 1179 q 621 1117 650 1126 q 606 1103 619 1113 q 547 1050 575 1079 q 504 1007 519 1021 q 422 942 476 950 q 387 959 404 942 q 378 1011 369 976 q 425 1082 385 1033 q 447 1118 425 1086 q 556 1196 490 1174 m 90 118 q 80 144 85 124 q 76 183 75 165 q 72 231 76 201 q 74 262 74 236 q 71 313 74 288 q 69 355 68 339 q 68 390 69 371 q 74 424 69 400 q 72 459 72 425 q 78 514 72 493 q 85 599 78 553 l 85 622 q 97 707 94 682 q 106 757 99 738 q 118 835 100 775 q 156 861 124 849 l 154 860 q 189 864 163 865 q 224 858 215 863 q 257 847 233 854 q 274 693 289 839 q 265 624 274 679 q 261 567 265 596 l 261 540 l 258 506 q 258 482 258 493 q 256 448 257 471 q 252 413 256 425 q 249 396 249 400 q 243 372 244 392 q 235 315 242 349 q 240 169 228 303 q 260 115 243 128 q 306 122 276 101 q 315 133 314 131 l 321 154 q 336 182 326 154 l 351 210 l 356 226 q 367 258 356 238 q 382 285 379 278 l 403 354 l 411 389 q 422 419 411 397 q 429 456 422 426 q 428 493 429 482 q 430 501 429 493 q 437 528 431 510 q 443 575 443 547 q 456 603 443 579 q 482 699 456 639 q 482 701 481 697 q 484 710 483 707 q 486 718 485 714 q 488 726 488 722 q 489 747 483 735 q 499 774 494 760 q 508 801 503 788 l 542 824 q 560 826 549 824 q 615 825 572 828 q 642 794 632 819 q 646 725 657 771 q 635 657 646 715 q 626 611 635 647 q 615 547 618 575 q 607 508 611 518 q 606 476 604 489 l 597 417 q 593 350 597 394 q 584 281 589 306 q 597 185 579 257 l 614 94 q 621 59 614 74 q 628 44 628 44 l 628 38 q 601 -51 667 -39 q 563 -63 569 -60 q 533 -60 556 -67 q 490 -35 510 -54 q 475 15 485 -26 q 465 64 471 24 q 456 96 461 68 q 450 114 458 101 q 436 89 440 94 q 424 67 426 74 q 414 39 422 61 l 389 -6 q 317 -54 360 -60 q 289 -51 315 -53 q 250 -42 283 -46 q 236 -40 244 -40 q 214 -37 228 -39 q 193 -22 211 -33 q 136 19 151 -7 q 118 39 124 22 q 100 78 115 47 l 90 118 z "},"":{"ha":706,"x_min":68,"x_max":667,"o":"m 361 1169 q 406 1163 396 1169 q 474 1104 439 1140 q 547 1031 531 1044 q 572 1002 564 1018 q 578 978 579 986 q 571 965 576 969 q 553 956 565 960 q 532 947 542 953 q 489 951 522 942 q 458 981 475 951 q 425 1005 442 985 q 390 1038 408 1025 q 375 1049 382 1050 q 362 1039 368 1049 q 348 1018 356 1029 q 337 1002 340 1007 q 331 992 333 997 q 319 976 322 979 q 256 971 297 953 q 233 987 243 974 q 235 1024 222 1000 q 282 1089 235 1031 q 335 1153 329 1147 q 361 1169 342 1164 m 90 118 q 80 144 85 124 q 76 183 75 165 q 72 231 76 201 q 74 262 74 236 q 71 313 74 288 q 69 355 68 339 q 68 390 69 371 q 74 424 69 400 q 72 459 72 425 q 78 514 72 493 q 85 599 78 553 l 85 622 q 97 707 94 682 q 106 757 99 738 q 118 835 100 775 q 156 861 124 849 l 154 860 q 189 864 163 865 q 224 858 215 863 q 257 847 233 854 q 274 693 289 839 q 265 624 274 679 q 261 567 265 596 l 261 540 l 258 506 q 258 482 258 493 q 256 448 257 471 q 252 413 256 425 q 249 396 249 400 q 243 372 244 392 q 235 315 242 349 q 240 169 228 303 q 260 115 243 128 q 306 122 276 101 q 315 133 314 131 l 321 154 q 336 182 326 154 l 351 210 l 356 226 q 367 258 356 238 q 382 285 379 278 l 403 354 l 411 389 q 422 419 411 397 q 429 456 422 426 q 428 493 429 482 q 430 501 429 493 q 437 528 431 510 q 443 575 443 547 q 456 603 443 579 q 482 699 456 639 q 482 701 481 697 q 484 710 483 707 q 486 718 485 714 q 488 726 488 722 q 489 747 483 735 q 499 774 494 760 q 508 801 503 788 l 542 824 q 560 826 549 824 q 615 825 572 828 q 642 794 632 819 q 646 725 657 771 q 635 657 646 715 q 626 611 635 647 q 615 547 618 575 q 607 508 611 518 q 606 476 604 489 l 597 417 q 593 350 597 394 q 584 281 589 306 q 597 185 579 257 l 614 94 q 621 59 614 74 q 628 44 628 44 l 628 38 q 601 -51 667 -39 q 563 -63 569 -60 q 533 -60 556 -67 q 490 -35 510 -54 q 475 15 485 -26 q 465 64 471 24 q 456 96 461 68 q 450 114 458 101 q 436 89 440 94 q 424 67 426 74 q 414 39 422 61 l 389 -6 q 317 -54 360 -60 q 289 -51 315 -53 q 250 -42 283 -46 q 236 -40 244 -40 q 214 -37 228 -39 q 193 -22 211 -33 q 136 19 151 -7 q 118 39 124 22 q 100 78 115 47 l 90 118 z "},"":{"ha":706,"x_min":68,"x_max":667,"o":"m 278 986 q 214 1006 246 986 q 182 1067 182 1025 q 251 1156 182 1143 q 328 1124 319 1132 l 349 1076 q 319 1017 344 1047 q 278 986 294 986 m 560 1133 q 621 1081 608 1133 q 592 1005 621 1033 q 537 976 563 976 q 473 1000 511 976 q 435 1051 435 1024 q 494 1135 435 1121 q 546 1131 513 1136 q 560 1133 546 1133 m 90 118 q 80 144 85 124 q 76 183 75 165 q 72 231 76 201 q 74 262 74 236 q 71 313 74 288 q 69 355 68 339 q 68 390 69 371 q 74 424 69 400 q 72 459 72 425 q 78 514 72 493 q 85 599 78 553 l 85 622 q 97 707 94 682 q 106 757 99 738 q 118 835 100 775 q 156 861 124 849 l 154 860 q 189 864 163 865 q 224 858 215 863 q 257 847 233 854 q 274 693 289 839 q 265 624 274 679 q 261 567 265 596 l 261 540 l 258 506 q 258 482 258 493 q 256 448 257 471 q 252 413 256 425 q 249 396 249 400 q 243 372 244 392 q 235 315 242 349 q 240 169 228 303 q 260 115 243 128 q 306 122 276 101 q 315 133 314 131 l 321 154 q 336 182 326 154 l 351 210 l 356 226 q 367 258 356 238 q 382 285 379 278 l 403 354 l 411 389 q 422 419 411 397 q 429 456 422 426 q 428 493 429 482 q 430 501 429 493 q 437 528 431 510 q 443 575 443 547 q 456 603 443 579 q 482 699 456 639 q 482 701 481 697 q 484 710 483 707 q 486 718 485 714 q 488 726 488 722 q 489 747 483 735 q 499 774 494 760 q 508 801 503 788 l 542 824 q 560 826 549 824 q 615 825 572 828 q 642 794 632 819 q 646 725 657 771 q 635 657 646 715 q 626 611 635 647 q 615 547 618 575 q 607 508 611 518 q 606 476 604 489 l 597 417 q 593 350 597 394 q 584 281 589 306 q 597 185 579 257 l 614 94 q 621 59 614 74 q 628 44 628 44 l 628 38 q 601 -51 667 -39 q 563 -63 569 -60 q 533 -60 556 -67 q 490 -35 510 -54 q 475 15 485 -26 q 465 64 471 24 q 456 96 461 68 q 450 114 458 101 q 436 89 440 94 q 424 67 426 74 q 414 39 422 61 l 389 -6 q 317 -54 360 -60 q 289 -51 315 -53 q 250 -42 283 -46 q 236 -40 244 -40 q 214 -37 228 -39 q 193 -22 211 -33 q 136 19 151 -7 q 118 39 124 22 q 100 78 115 47 l 90 118 z "},"":{"ha":635,"x_min":29,"x_max":581,"o":"m 471 1196 l 493 1194 q 554 1140 525 1179 q 536 1117 565 1126 q 521 1103 535 1113 q 463 1050 490 1079 q 419 1007 435 1021 q 338 942 392 950 q 302 959 319 942 q 293 1011 285 976 q 340 1082 300 1033 q 363 1118 340 1086 q 471 1196 406 1174 m 368 433 q 369 465 368 453 q 380 551 376 533 q 383 574 383 569 l 383 633 q 392 701 388 639 q 397 800 392 768 q 411 839 397 821 q 454 882 429 869 l 456 882 q 498 881 476 888 q 522 873 519 874 q 530 870 525 872 q 537 867 535 868 q 542 865 539 867 q 548 860 546 863 q 553 856 550 858 q 557 851 556 854 q 576 668 571 824 q 581 588 581 643 q 579 514 581 533 l 579 500 q 576 463 576 475 l 576 453 q 572 413 576 426 q 565 353 572 381 q 559 317 565 342 q 553 278 553 293 q 540 219 554 271 q 531 176 543 214 q 521 141 531 161 q 504 102 511 121 q 496 81 497 83 q 451 -12 488 38 l 429 -35 q 422 -47 432 -37 q 339 -97 414 -57 q 310 -106 338 -99 q 249 -112 283 -112 q 182 -101 214 -112 q 147 -87 163 -97 q 128 -74 140 -81 q 88 -49 121 -74 q 51 3 82 -44 q 41 27 42 25 q 37 36 40 29 q 32 68 33 43 q 69 124 29 124 q 147 82 111 124 q 161 67 158 71 q 174 54 164 64 q 191 42 185 44 q 208 35 197 39 q 228 31 218 31 q 253 37 238 31 q 275 53 269 43 q 291 89 275 67 q 308 114 307 111 q 317 142 313 133 q 331 204 325 165 q 325 239 333 207 q 302 252 325 244 q 263 261 279 260 q 192 289 235 256 q 169 310 174 303 q 162 321 165 318 q 156 331 158 324 q 126 393 126 379 l 121 407 q 110 432 121 421 q 106 482 110 435 q 96 547 96 518 l 96 569 l 97 599 q 99 643 94 610 l 99 696 l 100 717 l 100 746 q 101 760 101 747 l 103 774 q 104 796 103 788 q 165 864 104 854 q 229 854 213 868 q 257 739 261 826 q 254 697 257 714 q 258 651 263 671 q 261 632 261 642 l 261 611 q 266 560 261 606 q 276 497 271 514 q 282 463 276 479 q 297 421 282 451 q 344 363 310 358 q 367 410 358 365 q 368 433 371 414 z "},"":{"ha":647,"x_min":17,"x_max":638,"o":"m 256 546 q 257 519 257 529 l 258 496 l 268 279 l 267 254 q 278 251 269 251 q 326 264 304 251 q 358 286 331 272 q 372 296 358 289 q 393 315 385 311 q 399 322 394 318 q 406 326 403 325 q 428 365 411 331 q 444 419 444 400 q 451 435 447 419 q 454 465 454 450 q 454 497 457 479 q 450 536 451 515 q 442 582 450 557 q 432 606 435 590 q 375 651 411 639 q 347 654 365 656 l 332 657 q 276 651 300 657 q 249 644 251 646 q 246 622 249 642 l 251 615 l 256 583 l 256 546 m 94 536 q 92 574 92 565 l 92 575 q 90 583 90 576 l 90 593 q 86 613 90 606 q 35 636 42 632 q 18 672 17 653 q 60 719 19 699 q 69 729 58 719 q 81 736 69 732 q 81 756 79 750 q 72 819 83 767 q 97 906 64 893 q 192 882 140 924 l 203 882 q 218 851 213 871 q 228 832 229 846 q 233 807 226 818 q 240 786 240 796 l 240 775 l 246 775 q 268 772 254 775 q 313 768 288 772 q 414 756 375 768 q 466 741 432 747 q 567 692 500 735 l 582 678 q 588 674 583 678 q 597 667 593 669 q 628 571 624 621 q 629 553 631 561 l 629 533 q 628 482 638 511 l 621 450 q 613 413 621 446 q 600 371 604 381 q 549 307 596 361 q 514 269 521 279 l 496 242 q 290 161 432 153 q 269 163 288 163 l 271 108 l 269 43 l 269 22 q 267 -5 269 6 q 264 -25 265 -15 q 261 -49 264 -44 q 221 -72 250 -72 q 161 -65 167 -72 q 149 -61 157 -65 q 125 -50 140 -57 q 96 40 99 -35 q 96 56 94 49 q 94 121 97 61 q 90 140 90 132 q 101 247 101 232 q 104 269 101 263 q 107 342 107 275 q 99 467 107 417 l 97 488 q 94 524 97 507 l 94 536 z "},"":{"ha":694,"x_min":46,"x_max":688,"o":"m 56 431 l 67 476 q 72 510 63 503 q 74 547 76 518 q 76 565 75 551 q 84 595 76 578 q 99 643 92 613 q 105 655 101 646 q 111 668 108 664 q 121 706 118 700 q 125 722 124 713 q 132 747 128 739 q 147 793 138 775 q 160 821 160 817 q 176 840 160 825 q 204 860 193 856 q 231 874 215 864 q 244 881 236 875 q 271 892 265 892 q 336 893 296 903 q 461 860 399 888 q 516 841 475 849 q 569 816 557 833 q 583 753 582 799 q 501 457 596 628 q 488 422 489 431 q 493 396 486 414 q 507 356 496 372 q 581 285 517 329 q 629 243 601 263 q 679 176 671 192 q 688 128 688 161 q 575 -32 685 -3 q 513 -37 540 -42 q 461 -31 486 -32 q 429 -28 436 -29 q 372 -25 388 -29 q 336 -6 356 -21 q 282 74 283 26 q 290 119 276 119 q 324 125 294 124 q 371 122 354 126 q 392 113 382 124 q 418 76 401 103 q 459 53 442 53 q 484 67 476 53 q 492 90 492 82 q 493 135 492 99 q 494 144 496 136 q 492 154 492 153 q 478 176 482 154 q 456 208 478 192 q 433 233 433 224 q 410 247 428 239 q 391 263 404 254 q 376 276 378 271 q 367 283 375 281 q 340 295 350 290 q 314 317 331 300 q 314 376 299 343 q 319 403 307 393 l 335 417 q 356 433 342 418 q 371 453 371 447 q 388 496 371 460 q 399 540 399 535 q 410 590 393 556 q 433 653 429 610 q 399 763 453 743 q 314 747 344 783 q 297 726 301 735 q 290 716 292 718 q 287 708 289 714 q 284 699 285 701 q 281 687 283 696 q 278 674 279 678 q 235 470 247 581 q 211 340 222 360 l 211 331 l 210 289 q 222 -21 197 214 q 264 -231 224 -31 q 288 -254 278 -249 q 301 -286 315 -251 q 251 -285 282 -294 q 208 -277 219 -276 q 187 -269 197 -278 q 165 -263 176 -261 q 131 -255 154 -265 q 103 -231 108 -244 l 93 -182 q 74 -106 93 -158 q 53 39 51 22 q 54 67 54 56 q 46 146 54 76 q 47 235 57 157 q 56 343 47 281 l 56 431 z "},"":{"ha":599,"x_min":61,"x_max":600,"o":"m 331 399 q 317 445 329 429 q 271 464 304 461 q 245 417 261 457 q 225 333 229 378 q 211 200 211 267 q 233 100 213 132 q 239 96 236 94 q 261 124 246 96 q 331 399 335 257 m 147 913 l 169 914 q 278 836 235 892 q 300 800 300 804 q 347 729 340 751 q 338 677 356 694 q 303 660 321 660 q 221 725 249 668 q 178 769 206 739 q 132 811 150 797 q 104 835 106 831 q 86 858 75 844 q 147 913 115 897 m 374 133 l 353 79 q 313 19 353 76 q 266 -10 300 -7 q 200 -3 232 -12 q 135 33 157 13 q 91 103 113 54 q 68 185 69 153 q 61 243 61 231 l 61 276 q 65 335 61 326 q 72 364 67 340 q 106 475 79 422 q 211 579 157 576 l 218 579 q 226 578 221 578 l 244 578 q 304 569 293 574 q 340 564 325 564 l 376 557 q 420 550 393 558 q 449 538 447 542 q 457 507 451 533 q 465 469 463 481 q 468 444 467 457 q 504 256 479 343 q 507 243 506 251 q 517 210 508 235 q 529 169 525 186 q 544 125 533 153 q 569 76 553 104 q 538 10 600 33 q 508 7 529 7 q 482 21 504 7 q 456 36 468 21 l 444 39 q 428 49 435 49 q 378 161 425 51 q 374 133 374 146 z "},"":{"ha":599,"x_min":61,"x_max":600,"o":"m 433 918 l 456 917 q 517 863 488 901 q 499 839 528 849 q 483 825 497 835 q 425 772 453 801 q 382 729 397 743 q 300 664 354 672 q 265 681 282 664 q 256 733 247 699 q 303 804 263 756 q 325 840 303 808 q 433 918 368 896 m 331 399 q 317 445 329 429 q 271 464 304 461 q 245 417 261 457 q 225 333 229 378 q 211 200 211 267 q 233 100 213 132 q 239 96 236 94 q 261 124 246 96 q 331 399 335 257 m 374 133 l 353 79 q 313 19 353 76 q 266 -10 300 -7 q 200 -3 232 -12 q 135 33 157 13 q 91 103 113 54 q 68 185 69 153 q 61 243 61 231 l 61 276 q 65 335 61 326 q 72 364 67 340 q 106 475 79 422 q 211 579 157 576 l 218 579 q 226 578 221 578 l 244 578 q 304 569 293 574 q 340 564 325 564 l 376 557 q 420 550 393 558 q 449 538 447 542 q 457 507 451 533 q 465 469 463 481 q 468 444 467 457 q 504 256 479 343 q 507 243 506 251 q 517 210 508 235 q 529 169 525 186 q 544 125 533 153 q 569 76 553 104 q 538 10 600 33 q 508 7 529 7 q 482 21 504 7 q 456 36 468 21 l 444 39 q 428 49 435 49 q 378 161 425 51 q 374 133 374 146 z "},"":{"ha":599,"x_min":61,"x_max":600,"o":"m 331 399 q 317 445 329 429 q 271 464 304 461 q 245 417 261 457 q 225 333 229 378 q 211 200 211 267 q 233 100 213 132 q 239 96 236 94 q 261 124 246 96 q 331 399 335 257 m 282 892 q 328 885 317 892 q 394 826 360 863 q 468 753 451 767 q 492 724 485 740 q 499 700 500 708 q 492 687 497 692 q 474 678 486 682 q 453 669 463 675 q 410 674 443 664 q 379 703 396 674 q 346 727 363 707 q 311 760 329 747 q 296 772 303 772 q 283 761 289 771 q 269 740 276 751 q 258 724 261 729 q 250 714 254 719 q 240 699 243 701 q 176 693 218 675 q 153 709 164 696 q 156 746 143 722 q 203 811 156 753 q 256 875 250 869 q 282 892 263 886 m 374 133 l 353 79 q 313 19 353 76 q 266 -10 300 -7 q 200 -3 232 -12 q 135 33 157 13 q 91 103 113 54 q 68 185 69 153 q 61 243 61 231 l 61 276 q 65 335 61 326 q 72 364 67 340 q 106 475 79 422 q 211 579 157 576 l 218 579 q 226 578 221 578 l 244 578 q 304 569 293 574 q 340 564 325 564 l 376 557 q 420 550 393 558 q 449 538 447 542 q 457 507 451 533 q 465 469 463 481 q 468 444 467 457 q 504 256 479 343 q 507 243 506 251 q 517 210 508 235 q 529 169 525 186 q 544 125 533 153 q 569 76 553 104 q 538 10 600 33 q 508 7 529 7 q 482 21 504 7 q 456 36 468 21 l 444 39 q 428 49 435 49 q 378 161 425 51 q 374 133 374 146 z "},"":{"ha":599,"x_min":61,"x_max":600,"o":"m 201 850 q 307 843 201 850 q 385 831 322 842 q 454 821 447 821 q 481 829 461 821 q 518 838 501 838 q 524 821 524 831 q 487 751 524 786 q 386 717 450 717 q 347 722 376 717 q 138 739 263 739 l 81 725 q 74 755 74 725 q 95 813 74 785 q 201 850 117 842 m 331 399 q 317 445 329 429 q 271 464 304 461 q 245 417 261 457 q 225 333 229 378 q 211 200 211 267 q 233 100 213 132 q 239 96 236 94 q 261 124 246 96 q 331 399 335 257 m 374 133 l 353 79 q 313 19 353 76 q 266 -10 300 -7 q 200 -3 232 -12 q 135 33 157 13 q 91 103 113 54 q 68 185 69 153 q 61 243 61 231 l 61 276 q 65 335 61 326 q 72 364 67 340 q 106 475 79 422 q 211 579 157 576 l 218 579 q 226 578 221 578 l 244 578 q 304 569 293 574 q 340 564 325 564 l 376 557 q 420 550 393 558 q 449 538 447 542 q 457 507 451 533 q 465 469 463 481 q 468 444 467 457 q 504 256 479 343 q 507 243 506 251 q 517 210 508 235 q 529 169 525 186 q 544 125 533 153 q 569 76 553 104 q 538 10 600 33 q 508 7 529 7 q 482 21 504 7 q 456 36 468 21 l 444 39 q 428 49 435 49 q 378 161 425 51 q 374 133 374 146 z "},"":{"ha":599,"x_min":61,"x_max":600,"o":"m 457 856 q 518 803 506 856 q 489 727 518 756 q 434 699 460 699 q 370 722 408 699 q 332 774 332 746 q 392 857 332 843 q 443 853 410 858 q 457 856 443 856 m 175 708 q 111 728 143 708 q 79 789 79 747 q 149 878 79 865 q 225 846 217 854 l 246 799 q 217 739 242 769 q 175 708 192 708 m 331 399 q 317 445 329 429 q 271 464 304 461 q 245 417 261 457 q 225 333 229 378 q 211 200 211 267 q 233 100 213 132 q 239 96 236 94 q 261 124 246 96 q 331 399 335 257 m 374 133 l 353 79 q 313 19 353 76 q 266 -10 300 -7 q 200 -3 232 -12 q 135 33 157 13 q 91 103 113 54 q 68 185 69 153 q 61 243 61 231 l 61 276 q 65 335 61 326 q 72 364 67 340 q 106 475 79 422 q 211 579 157 576 l 218 579 q 226 578 221 578 l 244 578 q 304 569 293 574 q 340 564 325 564 l 376 557 q 420 550 393 558 q 449 538 447 542 q 457 507 451 533 q 465 469 463 481 q 468 444 467 457 q 504 256 479 343 q 507 243 506 251 q 517 210 508 235 q 529 169 525 186 q 544 125 533 153 q 569 76 553 104 q 538 10 600 33 q 508 7 529 7 q 482 21 504 7 q 456 36 468 21 l 444 39 q 428 49 435 49 q 378 161 425 51 q 374 133 374 146 z "},"":{"ha":599,"x_min":61,"x_max":600,"o":"m 332 840 q 253 814 279 840 q 224 758 226 788 q 296 713 249 715 q 340 742 326 713 q 369 785 369 771 q 356 820 369 800 q 332 840 343 840 m 331 399 q 317 445 329 429 q 271 464 304 461 q 245 417 261 457 q 225 333 229 378 q 211 200 211 267 q 233 100 213 132 q 239 96 236 94 q 261 124 246 96 q 331 399 335 257 m 289 929 q 371 899 322 929 q 394 882 374 896 q 433 842 433 856 q 441 806 433 829 q 449 775 449 782 q 426 696 449 738 q 363 635 396 635 q 229 651 260 635 q 194 680 211 660 q 169 706 176 700 q 156 734 163 713 q 149 785 149 756 q 158 846 149 815 q 175 867 160 849 q 203 910 190 885 q 289 929 210 929 m 374 133 l 353 79 q 313 19 353 76 q 266 -10 300 -7 q 200 -3 232 -12 q 135 33 157 13 q 91 103 113 54 q 68 185 69 153 q 61 243 61 231 l 61 276 q 65 335 61 326 q 72 364 67 340 q 106 475 79 422 q 211 579 157 576 l 218 579 q 226 578 221 578 l 244 578 q 304 569 293 574 q 340 564 325 564 l 376 557 q 420 550 393 558 q 449 538 447 542 q 457 507 451 533 q 465 469 463 481 q 468 444 467 457 q 504 256 479 343 q 507 243 506 251 q 517 210 508 235 q 529 169 525 186 q 544 125 533 153 q 569 76 553 104 q 538 10 600 33 q 508 7 529 7 q 482 21 504 7 q 456 36 468 21 l 444 39 q 428 49 435 49 q 378 161 425 51 q 374 133 374 146 z "},"":{"ha":793,"x_min":61,"x_max":749,"o":"m 608 444 q 607 497 614 465 q 581 506 597 506 q 543 467 560 506 q 510 393 521 433 l 508 393 q 493 331 493 335 q 529 326 515 325 q 561 340 543 326 q 608 444 593 371 m 331 399 q 317 445 329 429 q 271 464 304 461 q 245 417 261 457 q 225 333 229 378 q 211 200 211 267 q 233 100 213 132 q 239 96 236 94 q 261 124 246 96 q 331 399 335 257 m 604 244 l 553 240 q 485 249 510 240 l 489 222 q 553 71 493 107 q 581 64 569 64 q 610 75 592 64 q 619 90 615 81 q 633 101 621 103 q 719 158 690 174 q 749 128 749 139 q 742 115 749 122 l 742 107 q 724 57 742 93 q 688 -4 707 21 q 663 -33 678 -25 q 568 -56 618 -61 q 553 -50 557 -54 q 536 -49 542 -47 l 525 -47 q 504 -42 513 -47 q 485 -33 490 -33 q 441 -12 449 -19 q 428 -3 433 -6 q 401 26 422 0 q 381 46 383 42 q 367 64 372 58 q 357 90 357 74 l 353 79 q 313 19 353 76 q 266 -10 300 -7 q 200 -3 232 -12 q 135 33 157 13 q 91 103 113 54 q 68 185 69 153 q 61 243 61 231 l 61 276 q 65 335 61 326 q 72 364 67 340 q 106 475 79 422 q 211 579 157 576 l 218 579 q 226 578 221 578 l 244 578 q 304 569 293 574 q 340 564 325 564 l 376 557 q 409 553 393 558 q 431 547 425 547 l 435 556 l 453 572 q 478 590 461 585 q 507 600 497 600 l 546 606 q 556 604 553 604 l 574 604 q 624 592 604 601 q 685 560 665 579 q 728 467 728 511 q 714 390 728 422 q 664 290 679 311 q 604 244 639 244 z "},"":{"ha":500,"x_min":54,"x_max":433,"o":"m 81 410 q 91 456 81 431 q 108 489 101 482 q 139 533 111 493 l 163 563 l 181 574 q 218 581 190 581 l 221 581 q 313 578 261 590 q 386 533 365 565 q 425 407 418 475 q 426 340 433 371 q 417 315 426 338 q 389 306 413 311 q 358 296 379 296 q 335 308 336 296 q 322 318 331 310 q 313 331 313 326 l 300 349 q 290 388 288 374 q 294 426 297 424 q 281 468 294 447 q 275 469 279 469 q 261 482 267 472 q 240 467 251 479 q 217 390 221 414 q 208 310 208 329 l 208 246 q 219 185 211 196 q 225 165 219 179 q 261 93 226 143 q 283 74 268 74 q 336 125 303 74 l 350 146 q 411 167 369 172 q 429 146 429 164 q 421 83 431 133 q 407 56 413 75 l 389 24 q 354 -14 363 -14 q 318 -24 351 -17 l 356 -82 q 389 -173 385 -144 q 363 -244 393 -201 q 268 -287 338 -283 q 161 -261 233 -292 q 147 -249 158 -258 q 128 -233 135 -240 q 111 -185 111 -217 q 127 -131 111 -154 q 164 -107 143 -107 q 192 -135 192 -107 q 190 -157 192 -149 q 201 -183 196 -165 q 213 -208 207 -201 q 222 -215 219 -215 l 229 -215 q 278 -194 251 -215 q 285 -147 285 -182 q 265 -99 285 -112 l 250 -68 q 220 -33 240 -53 q 192 -8 200 -14 q 154 13 165 8 q 136 24 143 17 l 128 49 q 99 67 110 49 q 82 110 99 76 l 75 131 l 71 156 l 71 181 l 54 289 l 54 308 l 67 356 q 81 410 65 386 z "}}}
